<?xml version="1.0" encoding="UTF-8" standalone="no"?>
<!DOCTYPE svg PUBLIC "-//W3C//DTD SVG 1.1//EN"
 "http://www.w3.org/Graphics/SVG/1.1/DTD/svg11.dtd">
<!-- Generated by graphviz version 7.0.0 (0)
 -->
<!-- Title: diag Pages: 1 -->
<svg width="1350pt" height="1058pt"
 viewBox="0.00 0.00 1349.56 1057.92" xmlns="http://www.w3.org/2000/svg" xmlns:xlink="http://www.w3.org/1999/xlink">
<g id="graph0" class="graph" transform="scale(1 1) rotate(0) translate(4 1053.92)">
<title>diag</title>
<polygon fill="white" stroke="none" points="-4,4 -4,-1053.92 1345.56,-1053.92 1345.56,4 -4,4"/>
<!-- O que são linguagens de programação?\n4 / 4 -->
<g id="node1" class="node">
<title>O que são linguagens de programação?\n4 / 4</title>
<path fill="pink" stroke="green" stroke-width="3" d="M674.56,-977.92C674.56,-977.92 401.56,-977.92 401.56,-977.92 395.56,-977.92 389.56,-971.92 389.56,-965.92 389.56,-965.92 389.56,-951.92 389.56,-951.92 389.56,-945.92 395.56,-939.92 401.56,-939.92 401.56,-939.92 674.56,-939.92 674.56,-939.92 680.56,-939.92 686.56,-945.92 686.56,-951.92 686.56,-951.92 686.56,-965.92 686.56,-965.92 686.56,-971.92 680.56,-977.92 674.56,-977.92"/>
<text text-anchor="middle" x="538.06" y="-962.72" font-family="Times,serif" font-size="14.00">O que são linguagens de programação?</text>
<text text-anchor="middle" x="538.06" y="-947.72" font-family="Times,serif" font-size="14.00">4 / 4</text>
</g>
<!-- Uso do bash\n0 / 1 -->
<g id="node2" class="node">
<title>Uso do bash\n0 / 1</title>
<ellipse fill="lightblue" stroke="red" stroke-width="3" cx="212.06" cy="-877.05" rx="73.58" ry="26.74"/>
<text text-anchor="middle" x="212.06" y="-880.85" font-family="Times,serif" font-size="14.00">Uso do bash</text>
<text text-anchor="middle" x="212.06" y="-865.85" font-family="Times,serif" font-size="14.00">0 / 1</text>
</g>
<!-- O que são linguagens de programação?\n4 / 4&#45;&gt;Uso do bash\n0 / 1 -->
<g id="edge1" class="edge">
<title>O que são linguagens de programação?\n4 / 4&#45;&gt;Uso do bash\n0 / 1</title>
<path fill="none" stroke="black" d="M441.82,-938.47C397,-928.91 343.08,-916.72 295.06,-903.92 289.55,-902.45 283.86,-900.85 278.16,-899.2"/>
<polygon fill="black" stroke="black" points="279.27,-895.87 268.69,-896.38 277.28,-902.59 279.27,-895.87"/>
</g>
<!-- Makefile\n0 / 4 -->
<g id="node4" class="node">
<title>Makefile\n0 / 4</title>
<ellipse fill="lightblue" stroke="red" stroke-width="3" cx="358.06" cy="-877.05" rx="54.39" ry="26.74"/>
<text text-anchor="middle" x="358.06" y="-880.85" font-family="Times,serif" font-size="14.00">Makefile</text>
<text text-anchor="middle" x="358.06" y="-865.85" font-family="Times,serif" font-size="14.00">0 / 4</text>
</g>
<!-- O que são linguagens de programação?\n4 / 4&#45;&gt;Makefile\n0 / 4 -->
<g id="edge3" class="edge">
<title>O que são linguagens de programação?\n4 / 4&#45;&gt;Makefile\n0 / 4</title>
<path fill="none" stroke="black" d="M494.49,-938.59C468.77,-927.17 436.08,-912.67 409.16,-900.72"/>
<polygon fill="black" stroke="black" points="410.71,-897.58 400.15,-896.73 407.87,-903.98 410.71,-897.58"/>
</g>
<!-- TKO &#45; Ferramenta de Testes\n0 / 1 -->
<g id="node7" class="node">
<title>TKO &#45; Ferramenta de Testes\n0 / 1</title>
<path fill="lightblue" stroke="red" stroke-width="3" d="M634.06,-896.05C634.06,-896.05 442.06,-896.05 442.06,-896.05 436.06,-896.05 430.06,-890.05 430.06,-884.05 430.06,-884.05 430.06,-870.05 430.06,-870.05 430.06,-864.05 436.06,-858.05 442.06,-858.05 442.06,-858.05 634.06,-858.05 634.06,-858.05 640.06,-858.05 646.06,-864.05 646.06,-870.05 646.06,-870.05 646.06,-884.05 646.06,-884.05 646.06,-890.05 640.06,-896.05 634.06,-896.05"/>
<text text-anchor="middle" x="538.06" y="-880.85" font-family="Times,serif" font-size="14.00">TKO &#45; Ferramenta de Testes</text>
<text text-anchor="middle" x="538.06" y="-865.85" font-family="Times,serif" font-size="14.00">0 / 1</text>
</g>
<!-- O que são linguagens de programação?\n4 / 4&#45;&gt;TKO &#45; Ferramenta de Testes\n0 / 1 -->
<g id="edge5" class="edge">
<title>O que são linguagens de programação?\n4 / 4&#45;&gt;TKO &#45; Ferramenta de Testes\n0 / 1</title>
<path fill="none" stroke="black" d="M538.06,-938.59C538.06,-929.63 538.06,-918.76 538.06,-908.72"/>
<polygon fill="black" stroke="black" points="541.56,-909 538.06,-899 534.56,-909 541.56,-909"/>
</g>
<!-- Primeiro código\n0 / 6 -->
<g id="node9" class="node">
<title>Primeiro código\n0 / 6</title>
<path fill="pink" stroke="red" stroke-width="3" d="M782.06,-896.05C782.06,-896.05 676.06,-896.05 676.06,-896.05 670.06,-896.05 664.06,-890.05 664.06,-884.05 664.06,-884.05 664.06,-870.05 664.06,-870.05 664.06,-864.05 670.06,-858.05 676.06,-858.05 676.06,-858.05 782.06,-858.05 782.06,-858.05 788.06,-858.05 794.06,-864.05 794.06,-870.05 794.06,-870.05 794.06,-884.05 794.06,-884.05 794.06,-890.05 788.06,-896.05 782.06,-896.05"/>
<text text-anchor="middle" x="729.06" y="-880.85" font-family="Times,serif" font-size="14.00">Primeiro código</text>
<text text-anchor="middle" x="729.06" y="-865.85" font-family="Times,serif" font-size="14.00">0 / 6</text>
</g>
<!-- O que são linguagens de programação?\n4 / 4&#45;&gt;Primeiro código\n0 / 6 -->
<g id="edge7" class="edge">
<title>O que são linguagens de programação?\n4 / 4&#45;&gt;Primeiro código\n0 / 6</title>
<path fill="none" stroke="black" d="M584.3,-938.59C610.73,-927.53 644.1,-913.58 672.13,-901.86"/>
<polygon fill="black" stroke="black" points="673.32,-905.15 681.19,-898.07 670.62,-898.7 673.32,-905.15"/>
</g>
<!-- Debugando\n0 / 1 -->
<g id="node23" class="node">
<title>Debugando\n0 / 1</title>
<ellipse fill="cyan" stroke="red" stroke-width="3" cx="881.06" cy="-877.05" rx="69.09" ry="26.74"/>
<text text-anchor="middle" x="881.06" y="-880.85" font-family="Times,serif" font-size="14.00">Debugando</text>
<text text-anchor="middle" x="881.06" y="-865.85" font-family="Times,serif" font-size="14.00">0 / 1</text>
</g>
<!-- O que são linguagens de programação?\n4 / 4&#45;&gt;Debugando\n0 / 1 -->
<g id="edge23" class="edge">
<title>O que são linguagens de programação?\n4 / 4&#45;&gt;Debugando\n0 / 1</title>
<path fill="none" stroke="black" d="M648.66,-938.44C696.45,-929.23 752.82,-917.32 803.06,-903.92 808.14,-902.57 813.36,-901.07 818.6,-899.49"/>
<polygon fill="black" stroke="black" points="819.33,-902.93 827.85,-896.62 817.26,-896.24 819.33,-902.93"/>
</g>
<!-- Configuração do Ambiente\n0 / 2 -->
<g id="node3" class="node">
<title>Configuração do Ambiente\n0 / 2</title>
<ellipse fill="lightblue" stroke="white" cx="212.06" cy="-787.31" rx="144.91" ry="26.74"/>
<text text-anchor="middle" x="212.06" y="-791.11" font-family="Times,serif" font-size="14.00">Configuração do Ambiente</text>
<text text-anchor="middle" x="212.06" y="-776.11" font-family="Times,serif" font-size="14.00">0 / 2</text>
</g>
<!-- Uso do bash\n0 / 1&#45;&gt;Configuração do Ambiente\n0 / 2 -->
<g id="edge2" class="edge">
<title>Uso do bash\n0 / 1&#45;&gt;Configuração do Ambiente\n0 / 2</title>
<path fill="none" stroke="black" stroke-dasharray="1,5" d="M212.06,-849.25C212.06,-841.8 212.06,-833.57 212.06,-825.64"/>
<polygon fill="black" stroke="black" points="215.56,-825.86 212.06,-815.86 208.56,-825.86 215.56,-825.86"/>
</g>
<!-- While\n0 / 4 -->
<g id="node5" class="node">
<title>While\n0 / 4</title>
<path fill="yellow" stroke="white" d="M595.56,-560.7C595.56,-560.7 562.56,-560.7 562.56,-560.7 556.56,-560.7 550.56,-554.7 550.56,-548.7 550.56,-548.7 550.56,-534.7 550.56,-534.7 550.56,-528.7 556.56,-522.7 562.56,-522.7 562.56,-522.7 595.56,-522.7 595.56,-522.7 601.56,-522.7 607.56,-528.7 607.56,-534.7 607.56,-534.7 607.56,-548.7 607.56,-548.7 607.56,-554.7 601.56,-560.7 595.56,-560.7"/>
<text text-anchor="middle" x="579.06" y="-545.5" font-family="Times,serif" font-size="14.00">While</text>
<text text-anchor="middle" x="579.06" y="-530.5" font-family="Times,serif" font-size="14.00">0 / 4</text>
</g>
<!-- Macros: include, define, if, ifdef, endif\n2 / 2 -->
<g id="node6" class="node">
<title>Macros: include, define, if, ifdef, endif\n2 / 2</title>
<ellipse fill="lightblue" stroke="white" cx="702.06" cy="-459.83" rx="202.47" ry="26.74"/>
<text text-anchor="middle" x="702.06" y="-463.63" font-family="Times,serif" font-size="14.00">Macros: include, define, if, ifdef, endif</text>
<text text-anchor="middle" x="702.06" y="-448.63" font-family="Times,serif" font-size="14.00">2 / 2</text>
</g>
<!-- While\n0 / 4&#45;&gt;Macros: include, define, if, ifdef, endif\n2 / 2 -->
<g id="edge4" class="edge">
<title>While\n0 / 4&#45;&gt;Macros: include, define, if, ifdef, endif\n2 / 2</title>
<path fill="none" stroke="black" stroke-dasharray="1,5" d="M607.28,-522.38C620.91,-513.53 637.65,-502.65 653.26,-492.52"/>
<polygon fill="black" stroke="black" points="655.04,-495.54 661.52,-487.16 651.23,-489.67 655.04,-495.54"/>
</g>
<!-- Tratamento de erros de entrada fflush\n0 / 1 -->
<g id="node20" class="node">
<title>Tratamento de erros de entrada fflush\n0 / 1</title>
<ellipse fill="lightgreen" stroke="white" cx="205.06" cy="-459.83" rx="205.12" ry="26.74"/>
<text text-anchor="middle" x="205.06" y="-463.63" font-family="Times,serif" font-size="14.00">Tratamento de erros de entrada fflush</text>
<text text-anchor="middle" x="205.06" y="-448.63" font-family="Times,serif" font-size="14.00">0 / 1</text>
</g>
<!-- While\n0 / 4&#45;&gt;Tratamento de erros de entrada fflush\n0 / 1 -->
<g id="edge18" class="edge">
<title>While\n0 / 4&#45;&gt;Tratamento de erros de entrada fflush\n0 / 1</title>
<path fill="none" stroke="black" stroke-dasharray="1,5" d="M550.33,-534.57C501.82,-524.2 401.08,-502.69 320.88,-485.56"/>
<polygon fill="black" stroke="black" points="321.7,-482.16 311.19,-483.49 320.23,-489.01 321.7,-482.16"/>
</g>
<!-- for\n0 / 8 -->
<g id="node28" class="node">
<title>for\n0 / 8</title>
<path fill="yellow" stroke="white" d="M470.06,-478.83C470.06,-478.83 440.06,-478.83 440.06,-478.83 434.06,-478.83 428.06,-472.83 428.06,-466.83 428.06,-466.83 428.06,-452.83 428.06,-452.83 428.06,-446.83 434.06,-440.83 440.06,-440.83 440.06,-440.83 470.06,-440.83 470.06,-440.83 476.06,-440.83 482.06,-446.83 482.06,-452.83 482.06,-452.83 482.06,-466.83 482.06,-466.83 482.06,-472.83 476.06,-478.83 470.06,-478.83"/>
<text text-anchor="middle" x="455.06" y="-463.63" font-family="Times,serif" font-size="14.00">for</text>
<text text-anchor="middle" x="455.06" y="-448.63" font-family="Times,serif" font-size="14.00">0 / 8</text>
</g>
<!-- While\n0 / 4&#45;&gt;for\n0 / 8 -->
<g id="edge29" class="edge">
<title>While\n0 / 4&#45;&gt;for\n0 / 8</title>
<path fill="none" stroke="black" stroke-dasharray="1,5" d="M550.19,-523.71C532.86,-513.33 510.47,-499.6 491.06,-486.7 490.5,-486.33 489.94,-485.95 489.37,-485.57"/>
<polygon fill="black" stroke="black" points="491.54,-482.81 481.32,-480.02 487.57,-488.58 491.54,-482.81"/>
</g>
<!-- Operações Básicas\n1 / 3 -->
<g id="node16" class="node">
<title>Operações Básicas\n1 / 3</title>
<path fill="pink" stroke="white" d="M553.06,-806.31C553.06,-806.31 427.06,-806.31 427.06,-806.31 421.06,-806.31 415.06,-800.31 415.06,-794.31 415.06,-794.31 415.06,-780.31 415.06,-780.31 415.06,-774.31 421.06,-768.31 427.06,-768.31 427.06,-768.31 553.06,-768.31 553.06,-768.31 559.06,-768.31 565.06,-774.31 565.06,-780.31 565.06,-780.31 565.06,-794.31 565.06,-794.31 565.06,-800.31 559.06,-806.31 553.06,-806.31"/>
<text text-anchor="middle" x="490.06" y="-791.11" font-family="Times,serif" font-size="14.00">Operações Básicas</text>
<text text-anchor="middle" x="490.06" y="-776.11" font-family="Times,serif" font-size="14.00">1 / 3</text>
</g>
<!-- TKO &#45; Ferramenta de Testes\n0 / 1&#45;&gt;Operações Básicas\n1 / 3 -->
<g id="edge14" class="edge">
<title>TKO &#45; Ferramenta de Testes\n0 / 1&#45;&gt;Operações Básicas\n1 / 3</title>
<path fill="none" stroke="black" stroke-dasharray="1,5" d="M527.41,-856.58C520.96,-844.79 512.62,-829.55 505.46,-816.46"/>
<polygon fill="black" stroke="black" points="508.62,-814.95 500.75,-807.86 502.48,-818.31 508.62,-814.95"/>
</g>
<!-- Início -->
<g id="node8" class="node">
<title>Início</title>
<path fill="lightgrey" stroke="black" d="M554.06,-1049.92C554.06,-1049.92 522.06,-1049.92 522.06,-1049.92 516.06,-1049.92 510.06,-1043.92 510.06,-1037.92 510.06,-1037.92 510.06,-1025.92 510.06,-1025.92 510.06,-1019.92 516.06,-1013.92 522.06,-1013.92 522.06,-1013.92 554.06,-1013.92 554.06,-1013.92 560.06,-1013.92 566.06,-1019.92 566.06,-1025.92 566.06,-1025.92 566.06,-1037.92 566.06,-1037.92 566.06,-1043.92 560.06,-1049.92 554.06,-1049.92"/>
<text text-anchor="middle" x="538.06" y="-1028.22" font-family="Times,serif" font-size="14.00">Início</text>
</g>
<!-- Início&#45;&gt;O que são linguagens de programação?\n4 / 4 -->
<g id="edge6" class="edge">
<title>Início&#45;&gt;O que são linguagens de programação?\n4 / 4</title>
<path fill="none" stroke="black" d="M538.06,-1013.73C538.06,-1006.73 538.06,-998.42 538.06,-990.44"/>
<polygon fill="black" stroke="black" points="541.56,-990.72 538.06,-980.72 534.56,-990.72 541.56,-990.72"/>
</g>
<!-- Clean Code &#45; Estilo\n0 / 1 -->
<g id="node12" class="node">
<title>Clean Code &#45; Estilo\n0 / 1</title>
<path fill="pink" stroke="white" d="M1034.06,-716.57C1034.06,-716.57 906.06,-716.57 906.06,-716.57 900.06,-716.57 894.06,-710.57 894.06,-704.57 894.06,-704.57 894.06,-690.57 894.06,-690.57 894.06,-684.57 900.06,-678.57 906.06,-678.57 906.06,-678.57 1034.06,-678.57 1034.06,-678.57 1040.06,-678.57 1046.06,-684.57 1046.06,-690.57 1046.06,-690.57 1046.06,-704.57 1046.06,-704.57 1046.06,-710.57 1040.06,-716.57 1034.06,-716.57"/>
<text text-anchor="middle" x="970.06" y="-701.37" font-family="Times,serif" font-size="14.00">Clean Code &#45; Estilo</text>
<text text-anchor="middle" x="970.06" y="-686.37" font-family="Times,serif" font-size="14.00">0 / 1</text>
</g>
<!-- Primeiro código\n0 / 6&#45;&gt;Clean Code &#45; Estilo\n0 / 1 -->
<g id="edge9" class="edge">
<title>Primeiro código\n0 / 6&#45;&gt;Clean Code &#45; Estilo\n0 / 1</title>
<path fill="none" stroke="black" stroke-dasharray="1,5" d="M780.43,-856.67C787.95,-854.25 795.66,-851.99 803.06,-850.18 857.37,-836.89 1015.47,-856.45 1052.06,-814.18 1067.69,-796.12 1062.71,-781.82 1052.06,-760.44 1044.5,-745.27 1031.25,-732.83 1017.57,-723.19"/>
<polygon fill="black" stroke="black" points="1019.65,-720.37 1009.37,-717.8 1015.8,-726.22 1019.65,-720.37"/>
</g>
<!-- Clean Code &#45; Indentação\n0 / 1 -->
<g id="node13" class="node">
<title>Clean Code &#45; Indentação\n0 / 1</title>
<path fill="pink" stroke="white" d="M1242.06,-716.57C1242.06,-716.57 1076.06,-716.57 1076.06,-716.57 1070.06,-716.57 1064.06,-710.57 1064.06,-704.57 1064.06,-704.57 1064.06,-690.57 1064.06,-690.57 1064.06,-684.57 1070.06,-678.57 1076.06,-678.57 1076.06,-678.57 1242.06,-678.57 1242.06,-678.57 1248.06,-678.57 1254.06,-684.57 1254.06,-690.57 1254.06,-690.57 1254.06,-704.57 1254.06,-704.57 1254.06,-710.57 1248.06,-716.57 1242.06,-716.57"/>
<text text-anchor="middle" x="1159.06" y="-701.37" font-family="Times,serif" font-size="14.00">Clean Code &#45; Indentação</text>
<text text-anchor="middle" x="1159.06" y="-686.37" font-family="Times,serif" font-size="14.00">0 / 1</text>
</g>
<!-- Primeiro código\n0 / 6&#45;&gt;Clean Code &#45; Indentação\n0 / 1 -->
<g id="edge10" class="edge">
<title>Primeiro código\n0 / 6&#45;&gt;Clean Code &#45; Indentação\n0 / 1</title>
<path fill="none" stroke="black" stroke-dasharray="1,5" d="M780.42,-856.6C787.94,-854.19 795.65,-851.96 803.06,-850.18 919.51,-822.28 966.41,-874.13 1070.06,-814.18 1104.9,-794.03 1130.78,-754.35 1145.4,-727.15"/>
<polygon fill="black" stroke="black" points="1148.44,-728.89 1149.93,-718.4 1142.22,-725.67 1148.44,-728.89"/>
</g>
<!-- Manipulando tipos\n0 / 1 -->
<g id="node14" class="node">
<title>Manipulando tipos\n0 / 1</title>
<ellipse fill="pink" stroke="white" cx="688.06" cy="-787.31" rx="105.22" ry="26.74"/>
<text text-anchor="middle" x="688.06" y="-791.11" font-family="Times,serif" font-size="14.00">Manipulando tipos</text>
<text text-anchor="middle" x="688.06" y="-776.11" font-family="Times,serif" font-size="14.00">0 / 1</text>
</g>
<!-- Primeiro código\n0 / 6&#45;&gt;Manipulando tipos\n0 / 1 -->
<g id="edge11" class="edge">
<title>Primeiro código\n0 / 6&#45;&gt;Manipulando tipos\n0 / 1</title>
<path fill="none" stroke="black" stroke-dasharray="1,5" d="M719.96,-856.58C715.53,-847.09 710.05,-835.37 704.89,-824.33"/>
<polygon fill="black" stroke="black" points="708.14,-823.01 700.73,-815.43 701.8,-825.97 708.14,-823.01"/>
</g>
<!-- Casting e Conversão\n0 / 3 -->
<g id="node15" class="node">
<title>Casting e Conversão\n0 / 3</title>
<ellipse fill="pink" stroke="white" cx="927.06" cy="-787.31" rx="115.93" ry="26.74"/>
<text text-anchor="middle" x="927.06" y="-791.11" font-family="Times,serif" font-size="14.00">Casting e Conversão</text>
<text text-anchor="middle" x="927.06" y="-776.11" font-family="Times,serif" font-size="14.00">0 / 3</text>
</g>
<!-- Primeiro código\n0 / 6&#45;&gt;Casting e Conversão\n0 / 3 -->
<g id="edge12" class="edge">
<title>Primeiro código\n0 / 6&#45;&gt;Casting e Conversão\n0 / 3</title>
<path fill="none" stroke="black" stroke-dasharray="1,5" d="M773,-856.58C799.91,-844.66 834.77,-829.21 864.52,-816.02"/>
<polygon fill="black" stroke="black" points="865.7,-819.33 873.43,-812.08 862.87,-812.93 865.7,-819.33"/>
</g>
<!-- Primeiro código\n0 / 6&#45;&gt;Operações Básicas\n1 / 3 -->
<g id="edge13" class="edge">
<title>Primeiro código\n0 / 6&#45;&gt;Operações Básicas\n1 / 3</title>
<path fill="none" stroke="black" stroke-dasharray="1,5" d="M676.02,-856.58C638.94,-842.96 589.33,-824.76 550.69,-810.57"/>
<polygon fill="black" stroke="black" points="552.11,-807.36 541.52,-807.2 549.7,-813.93 552.11,-807.36"/>
</g>
<!-- Entrada e Saída &#45; puts, printf, scanf\n0 / 4 -->
<g id="node10" class="node">
<title>Entrada e Saída &#45; puts, printf, scanf\n0 / 4</title>
<path fill="lightgreen" stroke="white" d="M598.06,-716.57C598.06,-716.57 350.06,-716.57 350.06,-716.57 344.06,-716.57 338.06,-710.57 338.06,-704.57 338.06,-704.57 338.06,-690.57 338.06,-690.57 338.06,-684.57 344.06,-678.57 350.06,-678.57 350.06,-678.57 598.06,-678.57 598.06,-678.57 604.06,-678.57 610.06,-684.57 610.06,-690.57 610.06,-690.57 610.06,-704.57 610.06,-704.57 610.06,-710.57 604.06,-716.57 598.06,-716.57"/>
<text text-anchor="middle" x="474.06" y="-701.37" font-family="Times,serif" font-size="14.00">Entrada e Saída &#45; puts, printf, scanf</text>
<text text-anchor="middle" x="474.06" y="-686.37" font-family="Times,serif" font-size="14.00">0 / 4</text>
</g>
<!-- Strings em C: Array de `char`\n0 / 1 -->
<g id="node11" class="node">
<title>Strings em C: Array de `char`\n0 / 1</title>
<path fill="pink" stroke="white" d="M577.06,-634.7C577.06,-634.7 371.06,-634.7 371.06,-634.7 365.06,-634.7 359.06,-628.7 359.06,-622.7 359.06,-622.7 359.06,-608.7 359.06,-608.7 359.06,-602.7 365.06,-596.7 371.06,-596.7 371.06,-596.7 577.06,-596.7 577.06,-596.7 583.06,-596.7 589.06,-602.7 589.06,-608.7 589.06,-608.7 589.06,-622.7 589.06,-622.7 589.06,-628.7 583.06,-634.7 577.06,-634.7"/>
<text text-anchor="middle" x="474.06" y="-619.5" font-family="Times,serif" font-size="14.00">Strings em C: Array de `char`</text>
<text text-anchor="middle" x="474.06" y="-604.5" font-family="Times,serif" font-size="14.00">0 / 1</text>
</g>
<!-- Entrada e Saída &#45; puts, printf, scanf\n0 / 4&#45;&gt;Strings em C: Array de `char`\n0 / 1 -->
<g id="edge8" class="edge">
<title>Entrada e Saída &#45; puts, printf, scanf\n0 / 4&#45;&gt;Strings em C: Array de `char`\n0 / 1</title>
<path fill="none" stroke="black" stroke-dasharray="1,5" d="M474.06,-678.45C474.06,-669.02 474.06,-657.25 474.06,-646.52"/>
<polygon fill="black" stroke="black" points="477.56,-646.54 474.06,-636.54 470.56,-646.54 477.56,-646.54"/>
</g>
<!-- Seleção Básica\n0 / 10 -->
<g id="node22" class="node">
<title>Seleção Básica\n0 / 10</title>
<path fill="cyan" stroke="white" d="M1019.06,-634.7C1019.06,-634.7 921.06,-634.7 921.06,-634.7 915.06,-634.7 909.06,-628.7 909.06,-622.7 909.06,-622.7 909.06,-608.7 909.06,-608.7 909.06,-602.7 915.06,-596.7 921.06,-596.7 921.06,-596.7 1019.06,-596.7 1019.06,-596.7 1025.06,-596.7 1031.06,-602.7 1031.06,-608.7 1031.06,-608.7 1031.06,-622.7 1031.06,-622.7 1031.06,-628.7 1025.06,-634.7 1019.06,-634.7"/>
<text text-anchor="middle" x="970.06" y="-619.5" font-family="Times,serif" font-size="14.00">Seleção Básica</text>
<text text-anchor="middle" x="970.06" y="-604.5" font-family="Times,serif" font-size="14.00">0 / 10</text>
</g>
<!-- Entrada e Saída &#45; puts, printf, scanf\n0 / 4&#45;&gt;Seleção Básica\n0 / 10 -->
<g id="edge20" class="edge">
<title>Entrada e Saída &#45; puts, printf, scanf\n0 / 4&#45;&gt;Seleção Básica\n0 / 10</title>
<path fill="none" stroke="black" stroke-dasharray="1,5" d="M575.81,-678.1C590.32,-675.56 605.06,-673.03 619.06,-670.7 715.33,-654.71 826.74,-637.85 897.76,-627.31"/>
<polygon fill="black" stroke="black" points="897.93,-630.82 907.3,-625.89 896.9,-623.9 897.93,-630.82"/>
</g>
<!-- Clean Code &#45; Estilo\n0 / 1&#45;&gt;Seleção Básica\n0 / 10 -->
<g id="edge21" class="edge">
<title>Clean Code &#45; Estilo\n0 / 1&#45;&gt;Seleção Básica\n0 / 10</title>
<path fill="none" stroke="black" stroke-dasharray="1,5" d="M970.06,-678.45C970.06,-669.02 970.06,-657.25 970.06,-646.52"/>
<polygon fill="black" stroke="black" points="973.56,-646.54 970.06,-636.54 966.56,-646.54 973.56,-646.54"/>
</g>
<!-- Clean Code &#45; Indentação\n0 / 1&#45;&gt;Seleção Básica\n0 / 10 -->
<g id="edge22" class="edge">
<title>Clean Code &#45; Indentação\n0 / 1&#45;&gt;Seleção Básica\n0 / 10</title>
<path fill="none" stroke="black" stroke-dasharray="1,5" d="M1115.7,-678.25C1088.43,-666.72 1053.02,-651.76 1023.94,-639.47"/>
<polygon fill="black" stroke="black" points="1025.51,-636.34 1014.94,-635.67 1022.79,-642.78 1025.51,-636.34"/>
</g>
<!-- Operações Básicas\n1 / 3&#45;&gt;Entrada e Saída &#45; puts, printf, scanf\n0 / 4 -->
<g id="edge16" class="edge">
<title>Operações Básicas\n1 / 3&#45;&gt;Entrada e Saída &#45; puts, printf, scanf\n0 / 4</title>
<path fill="none" stroke="black" stroke-dasharray="1,5" d="M486.75,-768.13C484.64,-756.56 481.86,-741.31 479.44,-728.04"/>
<polygon fill="black" stroke="black" points="482.94,-727.73 477.7,-718.52 476.05,-728.98 482.94,-727.73"/>
</g>
<!-- Biblioteca matemática\n0 / 2 -->
<g id="node17" class="node">
<title>Biblioteca matemática\n0 / 2</title>
<ellipse fill="pink" stroke="white" cx="752.06" cy="-697.57" rx="124.4" ry="26.74"/>
<text text-anchor="middle" x="752.06" y="-701.37" font-family="Times,serif" font-size="14.00">Biblioteca matemática</text>
<text text-anchor="middle" x="752.06" y="-686.37" font-family="Times,serif" font-size="14.00">0 / 2</text>
</g>
<!-- Operações Básicas\n1 / 3&#45;&gt;Biblioteca matemática\n0 / 2 -->
<g id="edge15" class="edge">
<title>Operações Básicas\n1 / 3&#45;&gt;Biblioteca matemática\n0 / 2</title>
<path fill="none" stroke="black" stroke-dasharray="1,5" d="M544.98,-767.92C582.81,-755.25 633.58,-738.25 675.38,-724.25"/>
<polygon fill="black" stroke="black" points="676.27,-727.64 684.64,-721.15 674.05,-721.01 676.27,-727.64"/>
</g>
<!-- Strings I\n0 / 5 -->
<g id="node18" class="node">
<title>Strings I\n0 / 5</title>
<path fill="tomato" stroke="white" d="M695.56,-225.35C695.56,-225.35 640.56,-225.35 640.56,-225.35 634.56,-225.35 628.56,-219.35 628.56,-213.35 628.56,-213.35 628.56,-199.35 628.56,-199.35 628.56,-193.35 634.56,-187.35 640.56,-187.35 640.56,-187.35 695.56,-187.35 695.56,-187.35 701.56,-187.35 707.56,-193.35 707.56,-199.35 707.56,-199.35 707.56,-213.35 707.56,-213.35 707.56,-219.35 701.56,-225.35 695.56,-225.35"/>
<text text-anchor="middle" x="668.06" y="-210.15" font-family="Times,serif" font-size="14.00">Strings I</text>
<text text-anchor="middle" x="668.06" y="-195.15" font-family="Times,serif" font-size="14.00">0 / 5</text>
</g>
<!-- Manipulando strings com `sprintf` e `sscanf`\n0 / 3 -->
<g id="node19" class="node">
<title>Manipulando strings com `sprintf` e `sscanf`\n0 / 3</title>
<ellipse fill="lightgreen" stroke="white" cx="746.06" cy="-116.61" rx="240.33" ry="26.74"/>
<text text-anchor="middle" x="746.06" y="-120.41" font-family="Times,serif" font-size="14.00">Manipulando strings com `sprintf` e `sscanf`</text>
<text text-anchor="middle" x="746.06" y="-105.41" font-family="Times,serif" font-size="14.00">0 / 3</text>
</g>
<!-- Strings I\n0 / 5&#45;&gt;Manipulando strings com `sprintf` e `sscanf`\n0 / 3 -->
<g id="edge17" class="edge">
<title>Strings I\n0 / 5&#45;&gt;Manipulando strings com `sprintf` e `sscanf`\n0 / 3</title>
<path fill="none" stroke="black" stroke-dasharray="1,5" d="M684.22,-187.17C693.27,-176.99 704.85,-163.96 715.54,-151.94"/>
<polygon fill="black" stroke="black" points="718.08,-154.35 722.11,-144.55 712.85,-149.7 718.08,-154.35"/>
</g>
<!-- IO: argc e argv\n0 / 1 -->
<g id="node21" class="node">
<title>IO: argc e argv\n0 / 1</title>
<ellipse fill="lightgreen" stroke="white" cx="401.06" cy="-116.61" rx="86.95" ry="26.74"/>
<text text-anchor="middle" x="401.06" y="-120.41" font-family="Times,serif" font-size="14.00">IO: argc e argv</text>
<text text-anchor="middle" x="401.06" y="-105.41" font-family="Times,serif" font-size="14.00">0 / 1</text>
</g>
<!-- Strings I\n0 / 5&#45;&gt;IO: argc e argv\n0 / 1 -->
<g id="edge19" class="edge">
<title>Strings I\n0 / 5&#45;&gt;IO: argc e argv\n0 / 1</title>
<path fill="none" stroke="black" stroke-dasharray="1,5" d="M628.09,-192.21C586.34,-178.5 520.08,-156.72 469.9,-140.23"/>
<polygon fill="black" stroke="black" points="471.16,-136.96 460.56,-137.16 468.97,-143.61 471.16,-136.96"/>
</g>
<!-- Strings II\n0 / 3 -->
<g id="node33" class="node">
<title>Strings II\n0 / 3</title>
<ellipse fill="tomato" stroke="white" cx="1154.06" cy="-116.61" rx="59.29" ry="26.74"/>
<text text-anchor="middle" x="1154.06" y="-120.41" font-family="Times,serif" font-size="14.00">Strings II</text>
<text text-anchor="middle" x="1154.06" y="-105.41" font-family="Times,serif" font-size="14.00">0 / 3</text>
</g>
<!-- Strings I\n0 / 5&#45;&gt;Strings II\n0 / 3 -->
<g id="edge36" class="edge">
<title>Strings I\n0 / 5&#45;&gt;Strings II\n0 / 3</title>
<path fill="none" stroke="black" stroke-dasharray="1,5" d="M698.31,-186.91C704.04,-184.04 710.11,-181.39 716.06,-179.48 835.08,-141.18 871.34,-161.52 995.06,-143.48 1025.6,-139.03 1059.36,-133.61 1087.88,-128.88"/>
<polygon fill="black" stroke="black" points="1088.16,-132.38 1097.45,-127.29 1087.01,-125.48 1088.16,-132.38"/>
</g>
<!-- Seleção Básica\n0 / 10&#45;&gt;While\n0 / 4 -->
<g id="edge28" class="edge">
<title>Seleção Básica\n0 / 10&#45;&gt;While\n0 / 4</title>
<path fill="none" stroke="black" stroke-dasharray="1,5" d="M908.97,-603.45C827.96,-588.53 687.26,-562.63 618.79,-550.02"/>
<polygon fill="black" stroke="black" points="619.61,-546.61 609.14,-548.24 618.34,-553.49 619.61,-546.61"/>
</g>
<!-- Funções I\n0 / 5 -->
<g id="node24" class="node">
<title>Funções I\n0 / 5</title>
<path fill="gold" stroke="white" d="M1001.06,-560.7C1001.06,-560.7 939.06,-560.7 939.06,-560.7 933.06,-560.7 927.06,-554.7 927.06,-548.7 927.06,-548.7 927.06,-534.7 927.06,-534.7 927.06,-528.7 933.06,-522.7 939.06,-522.7 939.06,-522.7 1001.06,-522.7 1001.06,-522.7 1007.06,-522.7 1013.06,-528.7 1013.06,-534.7 1013.06,-534.7 1013.06,-548.7 1013.06,-548.7 1013.06,-554.7 1007.06,-560.7 1001.06,-560.7"/>
<text text-anchor="middle" x="970.06" y="-545.5" font-family="Times,serif" font-size="14.00">Funções I</text>
<text text-anchor="middle" x="970.06" y="-530.5" font-family="Times,serif" font-size="14.00">0 / 5</text>
</g>
<!-- Seleção Básica\n0 / 10&#45;&gt;Funções I\n0 / 5 -->
<g id="edge26" class="edge">
<title>Seleção Básica\n0 / 10&#45;&gt;Funções I\n0 / 5</title>
<path fill="none" stroke="black" stroke-dasharray="1,5" d="M970.06,-596.53C970.06,-589.25 970.06,-580.68 970.06,-572.53"/>
<polygon fill="black" stroke="black" points="973.56,-572.63 970.06,-562.63 966.56,-572.63 973.56,-572.63"/>
</g>
<!-- Números Aleatórios\n0 / 2 -->
<g id="node29" class="node">
<title>Números Aleatórios\n0 / 2</title>
<path fill="orange" stroke="white" d="M1177.06,-560.7C1177.06,-560.7 1043.06,-560.7 1043.06,-560.7 1037.06,-560.7 1031.06,-554.7 1031.06,-548.7 1031.06,-548.7 1031.06,-534.7 1031.06,-534.7 1031.06,-528.7 1037.06,-522.7 1043.06,-522.7 1043.06,-522.7 1177.06,-522.7 1177.06,-522.7 1183.06,-522.7 1189.06,-528.7 1189.06,-534.7 1189.06,-534.7 1189.06,-548.7 1189.06,-548.7 1189.06,-554.7 1183.06,-560.7 1177.06,-560.7"/>
<text text-anchor="middle" x="1110.06" y="-545.5" font-family="Times,serif" font-size="14.00">Números Aleatórios</text>
<text text-anchor="middle" x="1110.06" y="-530.5" font-family="Times,serif" font-size="14.00">0 / 2</text>
</g>
<!-- Seleção Básica\n0 / 10&#45;&gt;Números Aleatórios\n0 / 2 -->
<g id="edge30" class="edge">
<title>Seleção Básica\n0 / 10&#45;&gt;Números Aleatórios\n0 / 2</title>
<path fill="none" stroke="black" stroke-dasharray="1,5" d="M1005.75,-596.35C1023.52,-587.21 1045.22,-576.05 1064.21,-566.28"/>
<polygon fill="black" stroke="black" points="1065.8,-569.4 1073.09,-561.71 1062.6,-563.18 1065.8,-569.4"/>
</g>
<!-- Técnicas de seleção I\n0 / 8 -->
<g id="node25" class="node">
<title>Técnicas de seleção I\n0 / 8</title>
<ellipse fill="cyan" stroke="white" cx="1115.06" cy="-459.83" rx="117.26" ry="26.74"/>
<text text-anchor="middle" x="1115.06" y="-463.63" font-family="Times,serif" font-size="14.00">Técnicas de seleção I</text>
<text text-anchor="middle" x="1115.06" y="-448.63" font-family="Times,serif" font-size="14.00">0 / 8</text>
</g>
<!-- Funções I\n0 / 5&#45;&gt;Técnicas de seleção I\n0 / 8 -->
<g id="edge24" class="edge">
<title>Funções I\n0 / 5&#45;&gt;Técnicas de seleção I\n0 / 8</title>
<path fill="none" stroke="black" stroke-dasharray="1,5" d="M1003.33,-522.38C1020.49,-512.92 1041.84,-501.16 1061.27,-490.46"/>
<polygon fill="black" stroke="black" points="1062.83,-493.6 1069.9,-485.71 1059.45,-487.47 1062.83,-493.6"/>
</g>
<!-- Funções II\n0 / 4 -->
<g id="node27" class="node">
<title>Funções II\n0 / 4</title>
<path fill="gold" stroke="white" d="M1329.56,-478.83C1329.56,-478.83 1262.56,-478.83 1262.56,-478.83 1256.56,-478.83 1250.56,-472.83 1250.56,-466.83 1250.56,-466.83 1250.56,-452.83 1250.56,-452.83 1250.56,-446.83 1256.56,-440.83 1262.56,-440.83 1262.56,-440.83 1329.56,-440.83 1329.56,-440.83 1335.56,-440.83 1341.56,-446.83 1341.56,-452.83 1341.56,-452.83 1341.56,-466.83 1341.56,-466.83 1341.56,-472.83 1335.56,-478.83 1329.56,-478.83"/>
<text text-anchor="middle" x="1296.06" y="-463.63" font-family="Times,serif" font-size="14.00">Funções II</text>
<text text-anchor="middle" x="1296.06" y="-448.63" font-family="Times,serif" font-size="14.00">0 / 4</text>
</g>
<!-- Funções I\n0 / 5&#45;&gt;Funções II\n0 / 4 -->
<g id="edge27" class="edge">
<title>Funções I\n0 / 5&#45;&gt;Funções II\n0 / 4</title>
<path fill="none" stroke="black" stroke-dasharray="1,5" d="M1013.31,-525.11C1016.25,-524.24 1019.19,-523.43 1022.06,-522.7 1117.68,-498.48 1146.86,-515.97 1241.06,-486.7 1243.98,-485.79 1246.95,-484.76 1249.91,-483.64"/>
<polygon fill="black" stroke="black" points="1251.22,-486.89 1259.14,-479.85 1248.56,-480.41 1251.22,-486.89"/>
</g>
<!-- Array Iniciante\n0 / 4 -->
<g id="node30" class="node">
<title>Array Iniciante\n0 / 4</title>
<path fill="tomato" stroke="white" d="M877.56,-389.09C877.56,-389.09 778.56,-389.09 778.56,-389.09 772.56,-389.09 766.56,-383.09 766.56,-377.09 766.56,-377.09 766.56,-363.09 766.56,-363.09 766.56,-357.09 772.56,-351.09 778.56,-351.09 778.56,-351.09 877.56,-351.09 877.56,-351.09 883.56,-351.09 889.56,-357.09 889.56,-363.09 889.56,-363.09 889.56,-377.09 889.56,-377.09 889.56,-383.09 883.56,-389.09 877.56,-389.09"/>
<text text-anchor="middle" x="828.06" y="-373.89" font-family="Times,serif" font-size="14.00">Array Iniciante</text>
<text text-anchor="middle" x="828.06" y="-358.89" font-family="Times,serif" font-size="14.00">0 / 4</text>
</g>
<!-- Funções I\n0 / 5&#45;&gt;Array Iniciante\n0 / 4 -->
<g id="edge32" class="edge">
<title>Funções I\n0 / 5&#45;&gt;Array Iniciante\n0 / 4</title>
<path fill="none" stroke="black" stroke-dasharray="1,5" d="M963.38,-522.4C954.44,-499.65 936.9,-460.47 913.06,-432.96 900.8,-418.82 884.73,-406.08 869.86,-395.89"/>
<polygon fill="black" stroke="black" points="871.85,-393.01 861.58,-390.4 867.98,-398.84 871.85,-393.01"/>
</g>
<!-- Structs\n0 / 2 -->
<g id="node36" class="node">
<title>Structs\n0 / 2</title>
<path fill="tomato" stroke="white" d="M964.56,-389.09C964.56,-389.09 919.56,-389.09 919.56,-389.09 913.56,-389.09 907.56,-383.09 907.56,-377.09 907.56,-377.09 907.56,-363.09 907.56,-363.09 907.56,-357.09 913.56,-351.09 919.56,-351.09 919.56,-351.09 964.56,-351.09 964.56,-351.09 970.56,-351.09 976.56,-357.09 976.56,-363.09 976.56,-363.09 976.56,-377.09 976.56,-377.09 976.56,-383.09 970.56,-389.09 964.56,-389.09"/>
<text text-anchor="middle" x="942.06" y="-373.89" font-family="Times,serif" font-size="14.00">Structs</text>
<text text-anchor="middle" x="942.06" y="-358.89" font-family="Times,serif" font-size="14.00">0 / 2</text>
</g>
<!-- Funções I\n0 / 5&#45;&gt;Structs\n0 / 2 -->
<g id="edge40" class="edge">
<title>Funções I\n0 / 5&#45;&gt;Structs\n0 / 2</title>
<path fill="none" stroke="black" stroke-dasharray="1,5" d="M967.01,-522.23C962.17,-492.91 952.69,-435.49 946.91,-400.48"/>
<polygon fill="black" stroke="black" points="950.44,-400.33 945.35,-391.04 943.53,-401.47 950.44,-400.33"/>
</g>
<!-- Técnicas de seleção II\n0 / 10 -->
<g id="node26" class="node">
<title>Técnicas de seleção II\n0 / 10</title>
<ellipse fill="cyan" stroke="white" cx="1115.06" cy="-370.09" rx="120.83" ry="26.74"/>
<text text-anchor="middle" x="1115.06" y="-373.89" font-family="Times,serif" font-size="14.00">Técnicas de seleção II</text>
<text text-anchor="middle" x="1115.06" y="-358.89" font-family="Times,serif" font-size="14.00">0 / 10</text>
</g>
<!-- Técnicas de seleção I\n0 / 8&#45;&gt;Técnicas de seleção II\n0 / 10 -->
<g id="edge25" class="edge">
<title>Técnicas de seleção I\n0 / 8&#45;&gt;Técnicas de seleção II\n0 / 10</title>
<path fill="none" stroke="black" stroke-dasharray="1,5" d="M1115.06,-432.98C1115.06,-425.28 1115.06,-416.69 1115.06,-408.42"/>
<polygon fill="black" stroke="black" points="1118.56,-408.57 1115.06,-398.57 1111.56,-408.57 1118.56,-408.57"/>
</g>
<!-- Ponteiros\n0 / 1 -->
<g id="node34" class="node">
<title>Ponteiros\n0 / 1</title>
<path fill="tomato" stroke="white" d="M1326.06,-389.09C1326.06,-389.09 1266.06,-389.09 1266.06,-389.09 1260.06,-389.09 1254.06,-383.09 1254.06,-377.09 1254.06,-377.09 1254.06,-363.09 1254.06,-363.09 1254.06,-357.09 1260.06,-351.09 1266.06,-351.09 1266.06,-351.09 1326.06,-351.09 1326.06,-351.09 1332.06,-351.09 1338.06,-357.09 1338.06,-363.09 1338.06,-363.09 1338.06,-377.09 1338.06,-377.09 1338.06,-383.09 1332.06,-389.09 1326.06,-389.09"/>
<text text-anchor="middle" x="1296.06" y="-373.89" font-family="Times,serif" font-size="14.00">Ponteiros</text>
<text text-anchor="middle" x="1296.06" y="-358.89" font-family="Times,serif" font-size="14.00">0 / 1</text>
</g>
<!-- Funções II\n0 / 4&#45;&gt;Ponteiros\n0 / 1 -->
<g id="edge39" class="edge">
<title>Funções II\n0 / 4&#45;&gt;Ponteiros\n0 / 1</title>
<path fill="none" stroke="black" stroke-dasharray="1,5" d="M1296.06,-440.65C1296.06,-429.2 1296.06,-414.14 1296.06,-400.96"/>
<polygon fill="black" stroke="black" points="1299.56,-401.06 1296.06,-391.06 1292.56,-401.06 1299.56,-401.06"/>
</g>
<!-- for\n0 / 8&#45;&gt;Array Iniciante\n0 / 4 -->
<g id="edge31" class="edge">
<title>for\n0 / 8&#45;&gt;Array Iniciante\n0 / 4</title>
<path fill="none" stroke="black" stroke-dasharray="1,5" d="M477.39,-440.52C481.73,-437.63 486.39,-434.95 491.06,-432.96 577.13,-396.33 684.61,-381.36 754.73,-375.26"/>
<polygon fill="black" stroke="black" points="754.9,-378.75 764.57,-374.44 754.32,-371.78 754.9,-378.75"/>
</g>
<!-- Array avançado\n0 / 4 -->
<g id="node31" class="node">
<title>Array avançado\n0 / 4</title>
<path fill="tomato" stroke="white" d="M819.06,-307.22C819.06,-307.22 715.06,-307.22 715.06,-307.22 709.06,-307.22 703.06,-301.22 703.06,-295.22 703.06,-295.22 703.06,-281.22 703.06,-281.22 703.06,-275.22 709.06,-269.22 715.06,-269.22 715.06,-269.22 819.06,-269.22 819.06,-269.22 825.06,-269.22 831.06,-275.22 831.06,-281.22 831.06,-281.22 831.06,-295.22 831.06,-295.22 831.06,-301.22 825.06,-307.22 819.06,-307.22"/>
<text text-anchor="middle" x="767.06" y="-292.02" font-family="Times,serif" font-size="14.00">Array avançado</text>
<text text-anchor="middle" x="767.06" y="-277.02" font-family="Times,serif" font-size="14.00">0 / 4</text>
</g>
<!-- Array Iniciante\n0 / 4&#45;&gt;Array avançado\n0 / 4 -->
<g id="edge33" class="edge">
<title>Array Iniciante\n0 / 4&#45;&gt;Array avançado\n0 / 4</title>
<path fill="none" stroke="black" stroke-dasharray="1,5" d="M814.22,-350.97C806.47,-340.83 796.66,-327.98 788,-316.63"/>
<polygon fill="black" stroke="black" points="790.83,-314.57 781.98,-308.75 785.27,-318.82 790.83,-314.57"/>
</g>
<!-- Matrizes\n0 / 2 -->
<g id="node37" class="node">
<title>Matrizes\n0 / 2</title>
<path fill="tomato" stroke="white" d="M917.06,-307.22C917.06,-307.22 861.06,-307.22 861.06,-307.22 855.06,-307.22 849.06,-301.22 849.06,-295.22 849.06,-295.22 849.06,-281.22 849.06,-281.22 849.06,-275.22 855.06,-269.22 861.06,-269.22 861.06,-269.22 917.06,-269.22 917.06,-269.22 923.06,-269.22 929.06,-275.22 929.06,-281.22 929.06,-281.22 929.06,-295.22 929.06,-295.22 929.06,-301.22 923.06,-307.22 917.06,-307.22"/>
<text text-anchor="middle" x="889.06" y="-292.02" font-family="Times,serif" font-size="14.00">Matrizes</text>
<text text-anchor="middle" x="889.06" y="-277.02" font-family="Times,serif" font-size="14.00">0 / 2</text>
</g>
<!-- Array Iniciante\n0 / 4&#45;&gt;Matrizes\n0 / 2 -->
<g id="edge41" class="edge">
<title>Array Iniciante\n0 / 4&#45;&gt;Matrizes\n0 / 2</title>
<path fill="none" stroke="black" stroke-dasharray="1,5" d="M841.9,-350.97C849.65,-340.83 859.46,-327.98 868.12,-316.63"/>
<polygon fill="black" stroke="black" points="870.86,-318.82 874.14,-308.75 865.29,-314.57 870.86,-318.82"/>
</g>
<!-- Structs Advanced\n0 / 2 -->
<g id="node39" class="node">
<title>Structs Advanced\n0 / 2</title>
<path fill="tomato" stroke="white" d="M1078.56,-307.22C1078.56,-307.22 959.56,-307.22 959.56,-307.22 953.56,-307.22 947.56,-301.22 947.56,-295.22 947.56,-295.22 947.56,-281.22 947.56,-281.22 947.56,-275.22 953.56,-269.22 959.56,-269.22 959.56,-269.22 1078.56,-269.22 1078.56,-269.22 1084.56,-269.22 1090.56,-275.22 1090.56,-281.22 1090.56,-281.22 1090.56,-295.22 1090.56,-295.22 1090.56,-301.22 1084.56,-307.22 1078.56,-307.22"/>
<text text-anchor="middle" x="1019.06" y="-292.02" font-family="Times,serif" font-size="14.00">Structs Advanced</text>
<text text-anchor="middle" x="1019.06" y="-277.02" font-family="Times,serif" font-size="14.00">0 / 2</text>
</g>
<!-- Array Iniciante\n0 / 4&#45;&gt;Structs Advanced\n0 / 2 -->
<g id="edge45" class="edge">
<title>Array Iniciante\n0 / 4&#45;&gt;Structs Advanced\n0 / 2</title>
<path fill="none" stroke="black" stroke-dasharray="1,5" d="M871.88,-350.77C899.44,-339.24 935.23,-324.28 964.61,-311.99"/>
<polygon fill="black" stroke="black" points="965.84,-315.27 973.72,-308.18 963.14,-308.81 965.84,-315.27"/>
</g>
<!-- Array avançado\n0 / 4&#45;&gt;Strings I\n0 / 5 -->
<g id="edge35" class="edge">
<title>Array avançado\n0 / 4&#45;&gt;Strings I\n0 / 5</title>
<path fill="none" stroke="black" stroke-dasharray="1,5" d="M744.6,-269.1C731.27,-258.35 714.18,-244.56 699.53,-232.74"/>
<polygon fill="black" stroke="black" points="701.94,-230.18 691.96,-226.63 697.54,-235.63 701.94,-230.18"/>
</g>
<!-- Array Expert\n0 / 6 -->
<g id="node32" class="node">
<title>Array Expert\n0 / 6</title>
<ellipse fill="tomato" stroke="white" cx="803.06" cy="-206.35" rx="77.56" ry="26.74"/>
<text text-anchor="middle" x="803.06" y="-210.15" font-family="Times,serif" font-size="14.00">Array Expert</text>
<text text-anchor="middle" x="803.06" y="-195.15" font-family="Times,serif" font-size="14.00">0 / 6</text>
</g>
<!-- Array avançado\n0 / 4&#45;&gt;Array Expert\n0 / 6 -->
<g id="edge34" class="edge">
<title>Array avançado\n0 / 4&#45;&gt;Array Expert\n0 / 6</title>
<path fill="none" stroke="black" stroke-dasharray="1,5" d="M775.23,-269.1C778.62,-261.57 782.69,-252.55 786.65,-243.77"/>
<polygon fill="black" stroke="black" points="789.83,-245.21 790.75,-234.66 783.45,-242.33 789.83,-245.21"/>
</g>
<!-- Strings Expert\n0 / 4 -->
<g id="node35" class="node">
<title>Strings Expert\n0 / 4</title>
<ellipse fill="tomato" stroke="white" cx="1154.06" cy="-26.87" rx="86.03" ry="26.74"/>
<text text-anchor="middle" x="1154.06" y="-30.67" font-family="Times,serif" font-size="14.00">Strings Expert</text>
<text text-anchor="middle" x="1154.06" y="-15.67" font-family="Times,serif" font-size="14.00">0 / 4</text>
</g>
<!-- Strings II\n0 / 3&#45;&gt;Strings Expert\n0 / 4 -->
<g id="edge38" class="edge">
<title>Strings II\n0 / 3&#45;&gt;Strings Expert\n0 / 4</title>
<path fill="none" stroke="black" stroke-dasharray="1,5" d="M1154.06,-89.76C1154.06,-82.06 1154.06,-73.47 1154.06,-65.2"/>
<polygon fill="black" stroke="black" points="1157.56,-65.35 1154.06,-55.35 1150.56,-65.35 1157.56,-65.35"/>
</g>
<!-- Ponteiros\n0 / 1&#45;&gt;Strings II\n0 / 3 -->
<g id="edge37" class="edge">
<title>Ponteiros\n0 / 1&#45;&gt;Strings II\n0 / 3</title>
<path fill="none" stroke="black" stroke-dasharray="1,5" d="M1285.62,-350.6C1262.03,-308.83 1204.31,-206.61 1173.77,-152.51"/>
<polygon fill="black" stroke="black" points="1176.92,-150.98 1168.96,-144 1170.83,-154.43 1176.92,-150.98"/>
</g>
<!-- Ponteiros\n0 / 1&#45;&gt;Structs Advanced\n0 / 2 -->
<g id="edge44" class="edge">
<title>Ponteiros\n0 / 1&#45;&gt;Structs Advanced\n0 / 2</title>
<path fill="none" stroke="black" stroke-dasharray="1,5" d="M1262.54,-350.69C1256.81,-347.95 1250.84,-345.34 1245.06,-343.22 1198.82,-326.24 1145.27,-313.17 1101.9,-304.14"/>
<polygon fill="black" stroke="black" points="1102.8,-300.76 1092.3,-302.18 1101.4,-307.61 1102.8,-300.76"/>
</g>
<!-- Structs\n0 / 2&#45;&gt;Structs Advanced\n0 / 2 -->
<g id="edge46" class="edge">
<title>Structs\n0 / 2&#45;&gt;Structs Advanced\n0 / 2</title>
<path fill="none" stroke="black" stroke-dasharray="1,5" d="M959.53,-350.97C969.6,-340.52 982.44,-327.21 993.61,-315.62"/>
<polygon fill="black" stroke="black" points="995.92,-318.27 1000.34,-308.64 990.88,-313.41 995.92,-318.27"/>
</g>
<!-- Técnicas em matrizes\n0 / 1 -->
<g id="node38" class="node">
<title>Técnicas em matrizes\n0 / 1</title>
<ellipse fill="tomato" stroke="white" cx="1019.06" cy="-206.35" rx="120.42" ry="26.74"/>
<text text-anchor="middle" x="1019.06" y="-210.15" font-family="Times,serif" font-size="14.00">Técnicas em matrizes</text>
<text text-anchor="middle" x="1019.06" y="-195.15" font-family="Times,serif" font-size="14.00">0 / 1</text>
</g>
<!-- Matrizes\n0 / 2&#45;&gt;Técnicas em matrizes\n0 / 1 -->
<g id="edge42" class="edge">
<title>Matrizes\n0 / 2&#45;&gt;Técnicas em matrizes\n0 / 1</title>
<path fill="none" stroke="black" stroke-dasharray="1,5" d="M918.89,-268.9C933.8,-259.73 952.25,-248.4 969.23,-237.96"/>
<polygon fill="black" stroke="black" points="971.05,-240.96 977.74,-232.74 967.39,-234.99 971.05,-240.96"/>
</g>
<!-- Structs Advanced\n0 / 2&#45;&gt;Técnicas em matrizes\n0 / 1 -->
<g id="edge43" class="edge">
<title>Structs Advanced\n0 / 2&#45;&gt;Técnicas em matrizes\n0 / 1</title>
<path fill="none" stroke="black" stroke-dasharray="1,5" d="M1019.06,-269.1C1019.06,-261.88 1019.06,-253.3 1019.06,-244.86"/>
<polygon fill="black" stroke="black" points="1022.56,-245.1 1019.06,-235.1 1015.56,-245.1 1022.56,-245.1"/>
</g>
</g>
</svg>
