<?xml version="1.0" encoding="UTF-8" standalone="no"?>
<!DOCTYPE svg PUBLIC "-//W3C//DTD SVG 1.1//EN"
 "http://www.w3.org/Graphics/SVG/1.1/DTD/svg11.dtd">
<!-- Generated by graphviz version 7.0.0 (0)
 -->
<!-- Title: diag Pages: 1 -->
<svg width="1955pt" height="930pt"
 viewBox="0.00 0.00 1955.00 930.00" xmlns="http://www.w3.org/2000/svg" xmlns:xlink="http://www.w3.org/1999/xlink">
<g id="graph0" class="graph" transform="scale(1 1) rotate(0) translate(4 926)">
<title>diag</title>
<polygon fill="white" stroke="none" points="-4,4 -4,-926 1951,-926 1951,4 -4,4"/>
<g id="clust1" class="cluster">
<title>cluster_Introdução</title>
<polygon fill="lightgrey" stroke="lightgrey" points="895,-659 895,-878 1300,-878 1300,-659 895,-659"/>
<text text-anchor="middle" x="1097.5" y="-862.8" font-family="Times,serif" font-size="14.00">Introdução</text>
</g>
<g id="clust2" class="cluster">
<title>cluster_Strings</title>
<polygon fill="lightgrey" stroke="lightgrey" points="1102,-8 1102,-227 1602,-227 1602,-8 1102,-8"/>
<text text-anchor="middle" x="1352" y="-211.8" font-family="Times,serif" font-size="14.00">Strings</text>
</g>
<g id="clust3" class="cluster">
<title>cluster_Matrizes</title>
<polygon fill="lightgrey" stroke="lightgrey" points="894,-80 894,-227 1094,-227 1094,-80 894,-80"/>
<text text-anchor="middle" x="994" y="-211.8" font-family="Times,serif" font-size="14.00">Matrizes</text>
</g>
<!-- Início -->
<g id="node1" class="node">
<title>Início</title>
<path fill="lightgrey" stroke="black" d="M1152,-922C1152,-922 1120,-922 1120,-922 1114,-922 1108,-916 1108,-910 1108,-910 1108,-898 1108,-898 1108,-892 1114,-886 1120,-886 1120,-886 1152,-886 1152,-886 1158,-886 1164,-892 1164,-898 1164,-898 1164,-910 1164,-910 1164,-916 1158,-922 1152,-922"/>
<text text-anchor="middle" x="1136" y="-900.3" font-family="Times,serif" font-size="14.00">Início</text>
</g>
<!-- O que são linguagens de programação?:4 -->
<g id="node2" class="node">
<title>O que são linguagens de programação?:4</title>
<path fill="lime" stroke="black" d="M1279.5,-847C1279.5,-847 992.5,-847 992.5,-847 986.5,-847 980.5,-841 980.5,-835 980.5,-835 980.5,-823 980.5,-823 980.5,-817 986.5,-811 992.5,-811 992.5,-811 1279.5,-811 1279.5,-811 1285.5,-811 1291.5,-817 1291.5,-823 1291.5,-823 1291.5,-835 1291.5,-835 1291.5,-841 1285.5,-847 1279.5,-847"/>
<text text-anchor="middle" x="1136" y="-825.3" font-family="Times,serif" font-size="14.00">O que são linguagens de programação?:4</text>
</g>
<!-- Início&#45;&gt;O que são linguagens de programação?:4 -->
<g id="edge1" class="edge">
<title>Início&#45;&gt;O que são linguagens de programação?:4</title>
<path fill="none" stroke="black" d="M1136,-885.7C1136,-877.67 1136,-867.9 1136,-858.8"/>
<polygon fill="black" stroke="black" points="1139.5,-858.94 1136,-848.94 1132.5,-858.94 1139.5,-858.94"/>
</g>
<!-- Uso do bash:1 -->
<g id="node3" class="node">
<title>Uso do bash:1</title>
<path fill="lightgrey" stroke="black" d="M1280,-775C1280,-775 1186,-775 1186,-775 1180,-775 1174,-769 1174,-763 1174,-763 1174,-751 1174,-751 1174,-745 1180,-739 1186,-739 1186,-739 1280,-739 1280,-739 1286,-739 1292,-745 1292,-751 1292,-751 1292,-763 1292,-763 1292,-769 1286,-775 1280,-775"/>
<text text-anchor="middle" x="1233" y="-753.3" font-family="Times,serif" font-size="14.00">Uso do bash:1</text>
</g>
<!-- O que são linguagens de programação?:4&#45;&gt;Uso do bash:1 -->
<g id="edge2" class="edge">
<title>O que são linguagens de programação?:4&#45;&gt;Uso do bash:1</title>
<path fill="none" stroke="black" d="M1159.98,-810.7C1171.99,-802.03 1186.72,-791.4 1199.79,-781.96"/>
<polygon fill="black" stroke="black" points="1201.67,-784.92 1207.73,-776.23 1197.58,-779.25 1201.67,-784.92"/>
</g>
<!-- Makefile:4 -->
<g id="node5" class="node">
<title>Makefile:4</title>
<path fill="lightgrey" stroke="black" d="M1143.5,-775C1143.5,-775 1076.5,-775 1076.5,-775 1070.5,-775 1064.5,-769 1064.5,-763 1064.5,-763 1064.5,-751 1064.5,-751 1064.5,-745 1070.5,-739 1076.5,-739 1076.5,-739 1143.5,-739 1143.5,-739 1149.5,-739 1155.5,-745 1155.5,-751 1155.5,-751 1155.5,-763 1155.5,-763 1155.5,-769 1149.5,-775 1143.5,-775"/>
<text text-anchor="middle" x="1110" y="-753.3" font-family="Times,serif" font-size="14.00">Makefile:4</text>
</g>
<!-- O que são linguagens de programação?:4&#45;&gt;Makefile:4 -->
<g id="edge4" class="edge">
<title>O que são linguagens de programação?:4&#45;&gt;Makefile:4</title>
<path fill="none" stroke="black" d="M1129.57,-810.7C1126.77,-803.15 1123.42,-794.12 1120.28,-785.68"/>
<polygon fill="black" stroke="black" points="1123.64,-784.68 1116.88,-776.52 1117.08,-787.12 1123.64,-784.68"/>
</g>
<!-- Primeiro código:6 -->
<g id="node6" class="node">
<title>Primeiro código:6</title>
<path fill="lime" stroke="black" d="M1034.5,-775C1034.5,-775 915.5,-775 915.5,-775 909.5,-775 903.5,-769 903.5,-763 903.5,-763 903.5,-751 903.5,-751 903.5,-745 909.5,-739 915.5,-739 915.5,-739 1034.5,-739 1034.5,-739 1040.5,-739 1046.5,-745 1046.5,-751 1046.5,-751 1046.5,-763 1046.5,-763 1046.5,-769 1040.5,-775 1034.5,-775"/>
<text text-anchor="middle" x="975" y="-753.3" font-family="Times,serif" font-size="14.00">Primeiro código:6</text>
</g>
<!-- O que são linguagens de programação?:4&#45;&gt;Primeiro código:6 -->
<g id="edge5" class="edge">
<title>O que são linguagens de programação?:4&#45;&gt;Primeiro código:6</title>
<path fill="none" stroke="black" d="M1095.79,-810.52C1074.48,-801.25 1048.1,-789.78 1025.43,-779.93"/>
<polygon fill="black" stroke="black" points="1026.93,-776.76 1016.37,-775.99 1024.14,-783.18 1026.93,-776.76"/>
</g>
<!-- TKO &#45; Ferramenta de Testes:1 -->
<g id="node15" class="node">
<title>TKO &#45; Ferramenta de Testes:1</title>
<path fill="lime" stroke="black" d="M1528,-775C1528,-775 1322,-775 1322,-775 1316,-775 1310,-769 1310,-763 1310,-763 1310,-751 1310,-751 1310,-745 1316,-739 1322,-739 1322,-739 1528,-739 1528,-739 1534,-739 1540,-745 1540,-751 1540,-751 1540,-763 1540,-763 1540,-769 1534,-775 1528,-775"/>
<text text-anchor="middle" x="1425" y="-753.3" font-family="Times,serif" font-size="14.00">TKO &#45; Ferramenta de Testes:1</text>
</g>
<!-- O que são linguagens de programação?:4&#45;&gt;TKO &#45; Ferramenta de Testes:1 -->
<g id="edge19" class="edge">
<title>O que são linguagens de programação?:4&#45;&gt;TKO &#45; Ferramenta de Testes:1</title>
<path fill="none" stroke="black" d="M1208.18,-810.52C1248.77,-800.68 1299.63,-788.37 1341.88,-778.13"/>
<polygon fill="black" stroke="black" points="1342.62,-781.55 1351.52,-775.8 1340.97,-774.75 1342.62,-781.55"/>
</g>
<!-- Debugando:1 -->
<g id="node22" class="node">
<title>Debugando:1</title>
<path fill="lightgrey" stroke="black" d="M1657.5,-775C1657.5,-775 1570.5,-775 1570.5,-775 1564.5,-775 1558.5,-769 1558.5,-763 1558.5,-763 1558.5,-751 1558.5,-751 1558.5,-745 1564.5,-739 1570.5,-739 1570.5,-739 1657.5,-739 1657.5,-739 1663.5,-739 1669.5,-745 1669.5,-751 1669.5,-751 1669.5,-763 1669.5,-763 1669.5,-769 1663.5,-775 1657.5,-775"/>
<text text-anchor="middle" x="1614" y="-753.3" font-family="Times,serif" font-size="14.00">Debugando:1</text>
</g>
<!-- O que são linguagens de programação?:4&#45;&gt;Debugando:1 -->
<g id="edge20" class="edge">
<title>O que são linguagens de programação?:4&#45;&gt;Debugando:1</title>
<path fill="none" stroke="black" d="M1291.69,-812.79C1366.26,-804.35 1456.96,-792.4 1546.84,-775.28"/>
<polygon fill="black" stroke="black" points="1547.44,-778.73 1556.6,-773.4 1546.12,-771.85 1547.44,-778.73"/>
</g>
<!-- Configuração do Ambiente:2 -->
<g id="node4" class="node">
<title>Configuração do Ambiente:2</title>
<path fill="lightgrey" stroke="black" d="M1280,-703C1280,-703 1086,-703 1086,-703 1080,-703 1074,-697 1074,-691 1074,-691 1074,-679 1074,-679 1074,-673 1080,-667 1086,-667 1086,-667 1280,-667 1280,-667 1286,-667 1292,-673 1292,-679 1292,-679 1292,-691 1292,-691 1292,-697 1286,-703 1280,-703"/>
<text text-anchor="middle" x="1183" y="-681.3" font-family="Times,serif" font-size="14.00">Configuração do Ambiente:2</text>
</g>
<!-- Uso do bash:1&#45;&gt;Configuração do Ambiente:2 -->
<g id="edge3" class="edge">
<title>Uso do bash:1&#45;&gt;Configuração do Ambiente:2</title>
<path fill="none" stroke="black" d="M1220.64,-738.7C1214.95,-730.73 1208.07,-721.1 1201.76,-712.26"/>
<polygon fill="black" stroke="black" points="1204.76,-710.44 1196.1,-704.34 1199.06,-714.51 1204.76,-710.44"/>
</g>
<!-- Clean Code &#45; Estilo:1 -->
<g id="node9" class="node">
<title>Clean Code &#45; Estilo:1</title>
<path fill="lime" stroke="black" d="M154,-703C154,-703 12,-703 12,-703 6,-703 0,-697 0,-691 0,-691 0,-679 0,-679 0,-673 6,-667 12,-667 12,-667 154,-667 154,-667 160,-667 166,-673 166,-679 166,-679 166,-691 166,-691 166,-697 160,-703 154,-703"/>
<text text-anchor="middle" x="83" y="-681.3" font-family="Times,serif" font-size="14.00">Clean Code &#45; Estilo:1</text>
</g>
<!-- Primeiro código:6&#45;&gt;Clean Code &#45; Estilo:1 -->
<g id="edge7" class="edge">
<title>Primeiro código:6&#45;&gt;Clean Code &#45; Estilo:1</title>
<path fill="none" stroke="black" d="M903.02,-754.04C764.48,-749.66 450.98,-736.79 177.52,-703.23"/>
<polygon fill="black" stroke="black" points="178.03,-699.76 167.68,-702.01 177.17,-706.71 178.03,-699.76"/>
</g>
<!-- Clean Code &#45; Indentação:1 -->
<g id="node10" class="node">
<title>Clean Code &#45; Indentação:1</title>
<path fill="lime" stroke="black" d="M375.5,-703C375.5,-703 196.5,-703 196.5,-703 190.5,-703 184.5,-697 184.5,-691 184.5,-691 184.5,-679 184.5,-679 184.5,-673 190.5,-667 196.5,-667 196.5,-667 375.5,-667 375.5,-667 381.5,-667 387.5,-673 387.5,-679 387.5,-679 387.5,-691 387.5,-691 387.5,-697 381.5,-703 375.5,-703"/>
<text text-anchor="middle" x="286" y="-681.3" font-family="Times,serif" font-size="14.00">Clean Code &#45; Indentação:1</text>
</g>
<!-- Primeiro código:6&#45;&gt;Clean Code &#45; Indentação:1 -->
<g id="edge8" class="edge">
<title>Primeiro código:6&#45;&gt;Clean Code &#45; Indentação:1</title>
<path fill="none" stroke="black" d="M903.09,-750.86C795.61,-742.86 586.46,-726.06 399.03,-703.33"/>
<polygon fill="black" stroke="black" points="399.7,-699.89 389.35,-702.15 398.85,-706.84 399.7,-699.89"/>
</g>
<!-- Manipulando tipos:1 -->
<g id="node11" class="node">
<title>Manipulando tipos:1</title>
<path fill="lightgrey" stroke="black" d="M556.5,-703C556.5,-703 417.5,-703 417.5,-703 411.5,-703 405.5,-697 405.5,-691 405.5,-691 405.5,-679 405.5,-679 405.5,-673 411.5,-667 417.5,-667 417.5,-667 556.5,-667 556.5,-667 562.5,-667 568.5,-673 568.5,-679 568.5,-679 568.5,-691 568.5,-691 568.5,-697 562.5,-703 556.5,-703"/>
<text text-anchor="middle" x="487" y="-681.3" font-family="Times,serif" font-size="14.00">Manipulando tipos:1</text>
</g>
<!-- Primeiro código:6&#45;&gt;Manipulando tipos:1 -->
<g id="edge9" class="edge">
<title>Primeiro código:6&#45;&gt;Manipulando tipos:1</title>
<path fill="none" stroke="black" d="M903.29,-747.64C825.89,-738.35 698.72,-722.31 579.98,-703.44"/>
<polygon fill="black" stroke="black" points="580.81,-700.03 570.38,-701.9 579.7,-706.94 580.81,-700.03"/>
</g>
<!-- Casting e Conversão:2 -->
<g id="node12" class="node">
<title>Casting e Conversão:2</title>
<path fill="lightgrey" stroke="black" d="M751.5,-703C751.5,-703 598.5,-703 598.5,-703 592.5,-703 586.5,-697 586.5,-691 586.5,-691 586.5,-679 586.5,-679 586.5,-673 592.5,-667 598.5,-667 598.5,-667 751.5,-667 751.5,-667 757.5,-667 763.5,-673 763.5,-679 763.5,-679 763.5,-691 763.5,-691 763.5,-697 757.5,-703 751.5,-703"/>
<text text-anchor="middle" x="675" y="-681.3" font-family="Times,serif" font-size="14.00">Casting e Conversão:2</text>
</g>
<!-- Primeiro código:6&#45;&gt;Casting e Conversão:2 -->
<g id="edge10" class="edge">
<title>Primeiro código:6&#45;&gt;Casting e Conversão:2</title>
<path fill="none" stroke="black" d="M903.14,-739.23C860.39,-729.26 805.87,-716.54 760.86,-706.03"/>
<polygon fill="black" stroke="black" points="761.94,-702.69 751.4,-703.83 760.35,-709.51 761.94,-702.69"/>
</g>
<!-- Conversão:1 -->
<g id="node13" class="node">
<title>Conversão:1</title>
<path fill="lightgrey" stroke="black" d="M874.5,-703C874.5,-703 793.5,-703 793.5,-703 787.5,-703 781.5,-697 781.5,-691 781.5,-691 781.5,-679 781.5,-679 781.5,-673 787.5,-667 793.5,-667 793.5,-667 874.5,-667 874.5,-667 880.5,-667 886.5,-673 886.5,-679 886.5,-679 886.5,-691 886.5,-691 886.5,-697 880.5,-703 874.5,-703"/>
<text text-anchor="middle" x="834" y="-681.3" font-family="Times,serif" font-size="14.00">Conversão:1</text>
</g>
<!-- Primeiro código:6&#45;&gt;Conversão:1 -->
<g id="edge11" class="edge">
<title>Primeiro código:6&#45;&gt;Conversão:1</title>
<path fill="none" stroke="black" d="M939.78,-738.52C921.39,-729.39 898.68,-718.11 879.03,-708.35"/>
<polygon fill="black" stroke="black" points="880.64,-705.25 870.12,-703.93 877.52,-711.52 880.64,-705.25"/>
</g>
<!-- Operações Básicas:3 -->
<g id="node14" class="node">
<title>Operações Básicas:3</title>
<path fill="lime" stroke="black" d="M1462,-703C1462,-703 1322,-703 1322,-703 1316,-703 1310,-697 1310,-691 1310,-691 1310,-679 1310,-679 1310,-673 1316,-667 1322,-667 1322,-667 1462,-667 1462,-667 1468,-667 1474,-673 1474,-679 1474,-679 1474,-691 1474,-691 1474,-697 1468,-703 1462,-703"/>
<text text-anchor="middle" x="1392" y="-681.3" font-family="Times,serif" font-size="14.00">Operações Básicas:3</text>
</g>
<!-- Primeiro código:6&#45;&gt;Operações Básicas:3 -->
<g id="edge12" class="edge">
<title>Primeiro código:6&#45;&gt;Operações Básicas:3</title>
<path fill="none" stroke="black" d="M1046.94,-740.66C1050,-740.08 1053.03,-739.53 1056,-739 1162.03,-720.2 1192.2,-721.46 1298.37,-703.92"/>
<polygon fill="black" stroke="black" points="1298.8,-707.39 1308.09,-702.29 1297.65,-700.49 1298.8,-707.39"/>
</g>
<!-- Entrada e Saída &#45; puts, printf, scanf:6 -->
<g id="node7" class="node">
<title>Entrada e Saída &#45; puts, printf, scanf:6</title>
<path fill="lime" stroke="black" d="M1522.5,-631C1522.5,-631 1261.5,-631 1261.5,-631 1255.5,-631 1249.5,-625 1249.5,-619 1249.5,-619 1249.5,-607 1249.5,-607 1249.5,-601 1255.5,-595 1261.5,-595 1261.5,-595 1522.5,-595 1522.5,-595 1528.5,-595 1534.5,-601 1534.5,-607 1534.5,-607 1534.5,-619 1534.5,-619 1534.5,-625 1528.5,-631 1522.5,-631"/>
<text text-anchor="middle" x="1392" y="-609.3" font-family="Times,serif" font-size="14.00">Entrada e Saída &#45; puts, printf, scanf:6</text>
</g>
<!-- String não é um tipo primitivo:1 -->
<g id="node8" class="node">
<title>String não é um tipo primitivo:1</title>
<path fill="lime" stroke="black" d="M1503.5,-196C1503.5,-196 1280.5,-196 1280.5,-196 1274.5,-196 1268.5,-190 1268.5,-184 1268.5,-184 1268.5,-172 1268.5,-172 1268.5,-166 1274.5,-160 1280.5,-160 1280.5,-160 1503.5,-160 1503.5,-160 1509.5,-160 1515.5,-166 1515.5,-172 1515.5,-172 1515.5,-184 1515.5,-184 1515.5,-190 1509.5,-196 1503.5,-196"/>
<text text-anchor="middle" x="1392" y="-174.3" font-family="Times,serif" font-size="14.00">String não é um tipo primitivo:1</text>
</g>
<!-- Entrada e Saída &#45; puts, printf, scanf:6&#45;&gt;String não é um tipo primitivo:1 -->
<g id="edge6" class="edge">
<title>Entrada e Saída &#45; puts, printf, scanf:6&#45;&gt;String não é um tipo primitivo:1</title>
<path fill="none" stroke="black" d="M1392,-594.51C1392,-567.71 1392,-514.87 1392,-470 1392,-470 1392,-470 1392,-324 1392,-283.69 1392,-237.08 1392,-207.82"/>
<polygon fill="black" stroke="black" points="1395.5,-207.92 1392,-197.92 1388.5,-207.92 1395.5,-207.92"/>
</g>
<!-- Técnicas de seleção 0:1 -->
<g id="node23" class="node">
<title>Técnicas de seleção 0:1</title>
<path fill="lightgrey" stroke="black" d="M978.5,-559C978.5,-559 819.5,-559 819.5,-559 813.5,-559 807.5,-553 807.5,-547 807.5,-547 807.5,-535 807.5,-535 807.5,-529 813.5,-523 819.5,-523 819.5,-523 978.5,-523 978.5,-523 984.5,-523 990.5,-529 990.5,-535 990.5,-535 990.5,-547 990.5,-547 990.5,-553 984.5,-559 978.5,-559"/>
<text text-anchor="middle" x="899" y="-537.3" font-family="Times,serif" font-size="14.00">Técnicas de seleção 0:1</text>
</g>
<!-- Entrada e Saída &#45; puts, printf, scanf:6&#45;&gt;Técnicas de seleção 0:1 -->
<g id="edge21" class="edge">
<title>Entrada e Saída &#45; puts, printf, scanf:6&#45;&gt;Técnicas de seleção 0:1</title>
<path fill="none" stroke="black" d="M1268.87,-594.52C1186.64,-582.84 1079.73,-567.66 1002.01,-556.63"/>
<polygon fill="black" stroke="black" points="1002.66,-553.18 992.27,-555.24 1001.67,-560.11 1002.66,-553.18"/>
</g>
<!-- IO: argc e argv:1 -->
<g id="node31" class="node">
<title>IO: argc e argv:1</title>
<path fill="lime" stroke="black" d="M890.5,-631C890.5,-631 777.5,-631 777.5,-631 771.5,-631 765.5,-625 765.5,-619 765.5,-619 765.5,-607 765.5,-607 765.5,-601 771.5,-595 777.5,-595 777.5,-595 890.5,-595 890.5,-595 896.5,-595 902.5,-601 902.5,-607 902.5,-607 902.5,-619 902.5,-619 902.5,-625 896.5,-631 890.5,-631"/>
<text text-anchor="middle" x="834" y="-609.3" font-family="Times,serif" font-size="14.00">IO: argc e argv:1</text>
</g>
<!-- Conversão:1&#45;&gt;IO: argc e argv:1 -->
<g id="edge31" class="edge">
<title>Conversão:1&#45;&gt;IO: argc e argv:1</title>
<path fill="none" stroke="black" d="M834,-666.7C834,-659.41 834,-650.73 834,-642.54"/>
<polygon fill="black" stroke="black" points="837.5,-642.62 834,-632.62 830.5,-642.62 837.5,-642.62"/>
</g>
<!-- Operações Básicas:3&#45;&gt;Entrada e Saída &#45; puts, printf, scanf:6 -->
<g id="edge15" class="edge">
<title>Operações Básicas:3&#45;&gt;Entrada e Saída &#45; puts, printf, scanf:6</title>
<path fill="none" stroke="black" d="M1392,-666.7C1392,-659.41 1392,-650.73 1392,-642.54"/>
<polygon fill="black" stroke="black" points="1395.5,-642.62 1392,-632.62 1388.5,-642.62 1395.5,-642.62"/>
</g>
<!-- Biblioteca matemática:1 -->
<g id="node16" class="node">
<title>Biblioteca matemática:1</title>
<path fill="lightgrey" stroke="black" d="M1219,-631C1219,-631 1053,-631 1053,-631 1047,-631 1041,-625 1041,-619 1041,-619 1041,-607 1041,-607 1041,-601 1047,-595 1053,-595 1053,-595 1219,-595 1219,-595 1225,-595 1231,-601 1231,-607 1231,-607 1231,-619 1231,-619 1231,-625 1225,-631 1219,-631"/>
<text text-anchor="middle" x="1136" y="-609.3" font-family="Times,serif" font-size="14.00">Biblioteca matemática:1</text>
</g>
<!-- Operações Básicas:3&#45;&gt;Biblioteca matemática:1 -->
<g id="edge14" class="edge">
<title>Operações Básicas:3&#45;&gt;Biblioteca matemática:1</title>
<path fill="none" stroke="black" d="M1330.97,-666.53C1321.93,-663.98 1312.73,-661.41 1304,-659 1274.19,-650.77 1241.34,-641.93 1212.66,-634.27"/>
<polygon fill="black" stroke="black" points="1213.91,-630.99 1203.35,-631.79 1212.11,-637.75 1213.91,-630.99"/>
</g>
<!-- TKO &#45; Ferramenta de Testes:1&#45;&gt;Operações Básicas:3 -->
<g id="edge13" class="edge">
<title>TKO &#45; Ferramenta de Testes:1&#45;&gt;Operações Básicas:3</title>
<path fill="none" stroke="black" d="M1416.84,-738.7C1413.25,-731.07 1408.93,-721.92 1404.92,-713.4"/>
<polygon fill="black" stroke="black" points="1408.14,-712.03 1400.71,-704.47 1401.81,-715.01 1408.14,-712.03"/>
</g>
<!-- Strings:7 -->
<g id="node17" class="node">
<title>Strings:7</title>
<path fill="lime" stroke="black" d="M1238.5,-196C1238.5,-196 1179.5,-196 1179.5,-196 1173.5,-196 1167.5,-190 1167.5,-184 1167.5,-184 1167.5,-172 1167.5,-172 1167.5,-166 1173.5,-160 1179.5,-160 1179.5,-160 1238.5,-160 1238.5,-160 1244.5,-160 1250.5,-166 1250.5,-172 1250.5,-172 1250.5,-184 1250.5,-184 1250.5,-190 1244.5,-196 1238.5,-196"/>
<text text-anchor="middle" x="1209" y="-174.3" font-family="Times,serif" font-size="14.00">Strings:7</text>
</g>
<!-- Lendo e escrevendo em strings sprintf e sscanf:1 -->
<g id="node18" class="node">
<title>Lendo e escrevendo em strings sprintf e sscanf:1</title>
<path fill="lightgrey" stroke="black" d="M1466,-124C1466,-124 1122,-124 1122,-124 1116,-124 1110,-118 1110,-112 1110,-112 1110,-100 1110,-100 1110,-94 1116,-88 1122,-88 1122,-88 1466,-88 1466,-88 1472,-88 1478,-94 1478,-100 1478,-100 1478,-112 1478,-112 1478,-118 1472,-124 1466,-124"/>
<text text-anchor="middle" x="1294" y="-102.3" font-family="Times,serif" font-size="14.00">Lendo e escrevendo em strings sprintf e sscanf:1</text>
</g>
<!-- Strings:7&#45;&gt;Lendo e escrevendo em strings sprintf e sscanf:1 -->
<g id="edge16" class="edge">
<title>Strings:7&#45;&gt;Lendo e escrevendo em strings sprintf e sscanf:1</title>
<path fill="none" stroke="black" d="M1230.01,-159.7C1240.33,-151.2 1252.94,-140.81 1264.23,-131.51"/>
<polygon fill="black" stroke="black" points="1266.27,-134.37 1271.77,-125.31 1261.82,-128.96 1266.27,-134.37"/>
</g>
<!-- Strings II:3 -->
<g id="node36" class="node">
<title>Strings II:3</title>
<path fill="lime" stroke="black" d="M1582,-124C1582,-124 1508,-124 1508,-124 1502,-124 1496,-118 1496,-112 1496,-112 1496,-100 1496,-100 1496,-94 1502,-88 1508,-88 1508,-88 1582,-88 1582,-88 1588,-88 1594,-94 1594,-100 1594,-100 1594,-112 1594,-112 1594,-118 1588,-124 1582,-124"/>
<text text-anchor="middle" x="1545" y="-102.3" font-family="Times,serif" font-size="14.00">Strings II:3</text>
</g>
<!-- Strings:7&#45;&gt;Strings II:3 -->
<g id="edge39" class="edge">
<title>Strings:7&#45;&gt;Strings II:3</title>
<path fill="none" stroke="black" d="M1250.87,-162.44C1253.94,-161.56 1257.01,-160.73 1260,-160 1355.74,-136.62 1385.28,-145.71 1484.61,-124.36"/>
<polygon fill="black" stroke="black" points="1485.26,-127.8 1494.27,-122.23 1483.75,-120.96 1485.26,-127.8"/>
</g>
<!-- While:4 -->
<g id="node19" class="node">
<title>While:4</title>
<path fill="lime" stroke="black" d="M678.5,-487C678.5,-487 631.5,-487 631.5,-487 625.5,-487 619.5,-481 619.5,-475 619.5,-475 619.5,-463 619.5,-463 619.5,-457 625.5,-451 631.5,-451 631.5,-451 678.5,-451 678.5,-451 684.5,-451 690.5,-457 690.5,-463 690.5,-463 690.5,-475 690.5,-475 690.5,-481 684.5,-487 678.5,-487"/>
<text text-anchor="middle" x="655" y="-465.3" font-family="Times,serif" font-size="14.00">While:4</text>
</g>
<!-- Tratamento de erros de entrada fflush:1 -->
<g id="node20" class="node">
<title>Tratamento de erros de entrada fflush:1</title>
<path fill="lightgrey" stroke="black" d="M1015.5,-415C1015.5,-415 736.5,-415 736.5,-415 730.5,-415 724.5,-409 724.5,-403 724.5,-403 724.5,-391 724.5,-391 724.5,-385 730.5,-379 736.5,-379 736.5,-379 1015.5,-379 1015.5,-379 1021.5,-379 1027.5,-385 1027.5,-391 1027.5,-391 1027.5,-403 1027.5,-403 1027.5,-409 1021.5,-415 1015.5,-415"/>
<text text-anchor="middle" x="876" y="-393.3" font-family="Times,serif" font-size="14.00">Tratamento de erros de entrada fflush:1</text>
</g>
<!-- While:4&#45;&gt;Tratamento de erros de entrada fflush:1 -->
<g id="edge17" class="edge">
<title>While:4&#45;&gt;Tratamento de erros de entrada fflush:1</title>
<path fill="none" stroke="black" d="M691,-456.6C723.2,-446.4 771.19,-431.2 810.23,-418.83"/>
<polygon fill="black" stroke="black" points="811.06,-422.24 819.54,-415.88 808.95,-415.57 811.06,-422.24"/>
</g>
<!-- Macros: include, define, if, ifdef, endif:1 -->
<g id="node21" class="node">
<title>Macros: include, define, if, ifdef, endif:1</title>
<path fill="lightgrey" stroke="black" d="M694.5,-415C694.5,-415 419.5,-415 419.5,-415 413.5,-415 407.5,-409 407.5,-403 407.5,-403 407.5,-391 407.5,-391 407.5,-385 413.5,-379 419.5,-379 419.5,-379 694.5,-379 694.5,-379 700.5,-379 706.5,-385 706.5,-391 706.5,-391 706.5,-403 706.5,-403 706.5,-409 700.5,-415 694.5,-415"/>
<text text-anchor="middle" x="557" y="-393.3" font-family="Times,serif" font-size="14.00">Macros: include, define, if, ifdef, endif:1</text>
</g>
<!-- While:4&#45;&gt;Macros: include, define, if, ifdef, endif:1 -->
<g id="edge18" class="edge">
<title>While:4&#45;&gt;Macros: include, define, if, ifdef, endif:1</title>
<path fill="none" stroke="black" d="M630.52,-450.52C618.39,-441.85 603.55,-431.25 590.39,-421.85"/>
<polygon fill="black" stroke="black" points="592.57,-419.1 582.4,-416.14 588.5,-424.8 592.57,-419.1"/>
</g>
<!-- for:8 -->
<g id="node28" class="node">
<title>for:8</title>
<path fill="lime" stroke="black" d="M377,-415C377,-415 347,-415 347,-415 341,-415 335,-409 335,-403 335,-403 335,-391 335,-391 335,-385 341,-379 347,-379 347,-379 377,-379 377,-379 383,-379 389,-385 389,-391 389,-391 389,-403 389,-403 389,-409 383,-415 377,-415"/>
<text text-anchor="middle" x="362" y="-393.3" font-family="Times,serif" font-size="14.00">for:8</text>
</g>
<!-- While:4&#45;&gt;for:8 -->
<g id="edge27" class="edge">
<title>While:4&#45;&gt;for:8</title>
<path fill="none" stroke="black" d="M619.38,-463.39C571.23,-456.57 482.75,-441.98 400.07,-415.27"/>
<polygon fill="black" stroke="black" points="401.27,-411.98 390.68,-412.16 399.07,-418.62 401.27,-411.98"/>
</g>
<!-- Técnicas de seleção 0:1&#45;&gt;While:4 -->
<g id="edge26" class="edge">
<title>Técnicas de seleção 0:1&#45;&gt;While:4</title>
<path fill="none" stroke="black" d="M838.06,-522.52C795.92,-510.43 740.69,-494.58 701.95,-483.47"/>
<polygon fill="black" stroke="black" points="703.03,-480.14 692.45,-480.74 701.1,-486.87 703.03,-480.14"/>
</g>
<!-- Técnicas de seleção II:6 -->
<g id="node26" class="node">
<title>Técnicas de seleção II:6</title>
<path fill="lightgrey" stroke="black" d="M979.5,-487C979.5,-487 818.5,-487 818.5,-487 812.5,-487 806.5,-481 806.5,-475 806.5,-475 806.5,-463 806.5,-463 806.5,-457 812.5,-451 818.5,-451 818.5,-451 979.5,-451 979.5,-451 985.5,-451 991.5,-457 991.5,-463 991.5,-463 991.5,-475 991.5,-475 991.5,-481 985.5,-487 979.5,-487"/>
<text text-anchor="middle" x="899" y="-465.3" font-family="Times,serif" font-size="14.00">Técnicas de seleção II:6</text>
</g>
<!-- Técnicas de seleção 0:1&#45;&gt;Técnicas de seleção II:6 -->
<g id="edge23" class="edge">
<title>Técnicas de seleção 0:1&#45;&gt;Técnicas de seleção II:6</title>
<path fill="none" stroke="black" d="M899,-522.7C899,-515.41 899,-506.73 899,-498.54"/>
<polygon fill="black" stroke="black" points="902.5,-498.62 899,-488.62 895.5,-498.62 902.5,-498.62"/>
</g>
<!-- Números Aleatórios:3 -->
<g id="node29" class="node">
<title>Números Aleatórios:3</title>
<path fill="lime" stroke="black" d="M381,-271C381,-271 233,-271 233,-271 227,-271 221,-265 221,-259 221,-259 221,-247 221,-247 221,-241 227,-235 233,-235 233,-235 381,-235 381,-235 387,-235 393,-241 393,-247 393,-247 393,-259 393,-259 393,-265 387,-271 381,-271"/>
<text text-anchor="middle" x="307" y="-249.3" font-family="Times,serif" font-size="14.00">Números Aleatórios:3</text>
</g>
<!-- Técnicas de seleção 0:1&#45;&gt;Números Aleatórios:3 -->
<g id="edge28" class="edge">
<title>Técnicas de seleção 0:1&#45;&gt;Números Aleatórios:3</title>
<path fill="none" stroke="black" d="M807.03,-532.96C661.52,-519.78 388.31,-486.05 326,-415 293.82,-378.31 296.52,-317.46 301.61,-282.01"/>
<polygon fill="black" stroke="black" points="305,-282.96 303.14,-272.53 298.09,-281.84 305,-282.96"/>
</g>
<!-- Enum:2 -->
<g id="node45" class="node">
<title>Enum:2</title>
<path fill="lime" stroke="black" d="M1070,-487C1070,-487 1022,-487 1022,-487 1016,-487 1010,-481 1010,-475 1010,-475 1010,-463 1010,-463 1010,-457 1016,-451 1022,-451 1022,-451 1070,-451 1070,-451 1076,-451 1082,-457 1082,-463 1082,-463 1082,-475 1082,-475 1082,-481 1076,-487 1070,-487"/>
<text text-anchor="middle" x="1046" y="-465.3" font-family="Times,serif" font-size="14.00">Enum:2</text>
</g>
<!-- Técnicas de seleção 0:1&#45;&gt;Enum:2 -->
<g id="edge51" class="edge">
<title>Técnicas de seleção 0:1&#45;&gt;Enum:2</title>
<path fill="none" stroke="black" d="M935.72,-522.52C955.07,-513.3 979,-501.9 999.62,-492.08"/>
<polygon fill="black" stroke="black" points="1000.86,-495.37 1008.39,-487.91 997.85,-489.05 1000.86,-495.37"/>
</g>
<!-- Funções I:5 -->
<g id="node24" class="node">
<title>Funções I:5</title>
<path fill="lime" stroke="black" d="M1132.5,-415C1132.5,-415 1057.5,-415 1057.5,-415 1051.5,-415 1045.5,-409 1045.5,-403 1045.5,-403 1045.5,-391 1045.5,-391 1045.5,-385 1051.5,-379 1057.5,-379 1057.5,-379 1132.5,-379 1132.5,-379 1138.5,-379 1144.5,-385 1144.5,-391 1144.5,-391 1144.5,-403 1144.5,-403 1144.5,-409 1138.5,-415 1132.5,-415"/>
<text text-anchor="middle" x="1095" y="-393.3" font-family="Times,serif" font-size="14.00">Funções I:5</text>
</g>
<!-- Técnicas de seleção I:8 -->
<g id="node25" class="node">
<title>Técnicas de seleção I:8</title>
<path fill="lightgrey" stroke="black" d="M1054.5,-343C1054.5,-343 899.5,-343 899.5,-343 893.5,-343 887.5,-337 887.5,-331 887.5,-331 887.5,-319 887.5,-319 887.5,-313 893.5,-307 899.5,-307 899.5,-307 1054.5,-307 1054.5,-307 1060.5,-307 1066.5,-313 1066.5,-319 1066.5,-319 1066.5,-331 1066.5,-331 1066.5,-337 1060.5,-343 1054.5,-343"/>
<text text-anchor="middle" x="977" y="-321.3" font-family="Times,serif" font-size="14.00">Técnicas de seleção I:8</text>
</g>
<!-- Funções I:5&#45;&gt;Técnicas de seleção I:8 -->
<g id="edge22" class="edge">
<title>Funções I:5&#45;&gt;Técnicas de seleção I:8</title>
<path fill="none" stroke="black" d="M1065.53,-378.52C1050.49,-369.6 1032.01,-358.63 1015.82,-349.03"/>
<polygon fill="black" stroke="black" points="1017.78,-346.12 1007.4,-344.03 1014.21,-352.15 1017.78,-346.12"/>
</g>
<!-- Funções II:4 -->
<g id="node27" class="node">
<title>Funções II:4</title>
<path fill="lime" stroke="black" d="M1302,-343C1302,-343 1222,-343 1222,-343 1216,-343 1210,-337 1210,-331 1210,-331 1210,-319 1210,-319 1210,-313 1216,-307 1222,-307 1222,-307 1302,-307 1302,-307 1308,-307 1314,-313 1314,-319 1314,-319 1314,-331 1314,-331 1314,-337 1308,-343 1302,-343"/>
<text text-anchor="middle" x="1262" y="-321.3" font-family="Times,serif" font-size="14.00">Funções II:4</text>
</g>
<!-- Funções I:5&#45;&gt;Funções II:4 -->
<g id="edge25" class="edge">
<title>Funções I:5&#45;&gt;Funções II:4</title>
<path fill="none" stroke="black" d="M1136.71,-378.52C1158.91,-369.21 1186.42,-357.68 1210.01,-347.79"/>
<polygon fill="black" stroke="black" points="1211.27,-351.06 1219.14,-343.97 1208.56,-344.6 1211.27,-351.06"/>
</g>
<!-- Game Zero a Cem:1 -->
<g id="node30" class="node">
<title>Game Zero a Cem:1</title>
<path fill="lime" stroke="black" d="M700,-196C700,-196 566,-196 566,-196 560,-196 554,-190 554,-184 554,-184 554,-172 554,-172 554,-166 560,-160 566,-160 566,-160 700,-160 700,-160 706,-160 712,-166 712,-172 712,-172 712,-184 712,-184 712,-190 706,-196 700,-196"/>
<text text-anchor="middle" x="633" y="-174.3" font-family="Times,serif" font-size="14.00">Game Zero a Cem:1</text>
</g>
<!-- Funções I:5&#45;&gt;Game Zero a Cem:1 -->
<g id="edge30" class="edge">
<title>Funções I:5&#45;&gt;Game Zero a Cem:1</title>
<path fill="none" stroke="black" d="M1096.41,-378.73C1097.04,-358.69 1094.77,-325.99 1076,-307 962.29,-191.99 872.34,-284.05 721,-227 703.5,-220.4 685.19,-210.89 669.83,-202.06"/>
<polygon fill="black" stroke="black" points="671.9,-199.22 661.5,-197.17 668.35,-205.26 671.9,-199.22"/>
</g>
<!-- Array Iniciante:4 -->
<g id="node32" class="node">
<title>Array Iniciante:4</title>
<path fill="lime" stroke="black" d="M756.5,-343C756.5,-343 643.5,-343 643.5,-343 637.5,-343 631.5,-337 631.5,-331 631.5,-331 631.5,-319 631.5,-319 631.5,-313 637.5,-307 643.5,-307 643.5,-307 756.5,-307 756.5,-307 762.5,-307 768.5,-313 768.5,-319 768.5,-319 768.5,-331 768.5,-331 768.5,-337 762.5,-343 756.5,-343"/>
<text text-anchor="middle" x="700" y="-321.3" font-family="Times,serif" font-size="14.00">Array Iniciante:4</text>
</g>
<!-- Funções I:5&#45;&gt;Array Iniciante:4 -->
<g id="edge33" class="edge">
<title>Funções I:5&#45;&gt;Array Iniciante:4</title>
<path fill="none" stroke="black" d="M1045.13,-380.88C1042.39,-380.2 1039.67,-379.57 1037,-379 926.5,-355.29 893.85,-363.06 780.06,-343.46"/>
<polygon fill="black" stroke="black" points="780.74,-340.02 770.28,-341.74 779.52,-346.92 780.74,-340.02"/>
</g>
<!-- Structs:2 -->
<g id="node39" class="node">
<title>Structs:2</title>
<path fill="lime" stroke="black" d="M857.5,-343C857.5,-343 798.5,-343 798.5,-343 792.5,-343 786.5,-337 786.5,-331 786.5,-331 786.5,-319 786.5,-319 786.5,-313 792.5,-307 798.5,-307 798.5,-307 857.5,-307 857.5,-307 863.5,-307 869.5,-313 869.5,-319 869.5,-319 869.5,-331 869.5,-331 869.5,-337 863.5,-343 857.5,-343"/>
<text text-anchor="middle" x="828" y="-321.3" font-family="Times,serif" font-size="14.00">Structs:2</text>
</g>
<!-- Funções I:5&#45;&gt;Structs:2 -->
<g id="edge43" class="edge">
<title>Funções I:5&#45;&gt;Structs:2</title>
<path fill="none" stroke="black" d="M1045.07,-381.15C1042.34,-380.41 1039.64,-379.69 1037,-379 970.29,-361.69 949.72,-362.55 880.9,-343.68"/>
<polygon fill="black" stroke="black" points="881.94,-340.33 871.37,-341.01 880.06,-347.07 881.94,-340.33"/>
</g>
<!-- Técnicas de seleção II:6&#45;&gt;Funções I:5 -->
<g id="edge24" class="edge">
<title>Técnicas de seleção II:6&#45;&gt;Funções I:5</title>
<path fill="none" stroke="black" d="M947.95,-450.52C974.6,-441 1007.76,-429.16 1035.84,-419.13"/>
<polygon fill="black" stroke="black" points="1036.67,-422.55 1044.91,-415.89 1034.31,-415.96 1036.67,-422.55"/>
</g>
<!-- Ponteiros:1 -->
<g id="node37" class="node">
<title>Ponteiros:1</title>
<path fill="lime" stroke="black" d="M1582,-271C1582,-271 1508,-271 1508,-271 1502,-271 1496,-265 1496,-259 1496,-259 1496,-247 1496,-247 1496,-241 1502,-235 1508,-235 1508,-235 1582,-235 1582,-235 1588,-235 1594,-241 1594,-247 1594,-247 1594,-259 1594,-259 1594,-265 1588,-271 1582,-271"/>
<text text-anchor="middle" x="1545" y="-249.3" font-family="Times,serif" font-size="14.00">Ponteiros:1</text>
</g>
<!-- Funções II:4&#45;&gt;Ponteiros:1 -->
<g id="edge42" class="edge">
<title>Funções II:4&#45;&gt;Ponteiros:1</title>
<path fill="none" stroke="black" d="M1314.24,-311.08C1362.49,-299.14 1434.16,-281.42 1484.8,-268.89"/>
<polygon fill="black" stroke="black" points="1485.57,-272.3 1494.44,-266.51 1483.89,-265.51 1485.57,-272.3"/>
</g>
<!-- for:8&#45;&gt;Array Iniciante:4 -->
<g id="edge32" class="edge">
<title>for:8&#45;&gt;Array Iniciante:4</title>
<path fill="none" stroke="black" d="M389.21,-382.23C392.14,-381.03 395.1,-379.92 398,-379 471.44,-355.68 558.37,-341.79 620.07,-334.12"/>
<polygon fill="black" stroke="black" points="620.28,-337.62 629.78,-332.94 619.43,-330.67 620.28,-337.62"/>
</g>
<!-- Números Aleatórios:3&#45;&gt;Game Zero a Cem:1 -->
<g id="edge29" class="edge">
<title>Números Aleatórios:3&#45;&gt;Game Zero a Cem:1</title>
<path fill="none" stroke="black" d="M393.31,-244.53C455.03,-238.91 529.62,-231.45 544,-227 562.57,-221.26 581.73,-211.5 597.49,-202.28"/>
<polygon fill="black" stroke="black" points="599.28,-205.29 606.03,-197.12 595.66,-199.3 599.28,-205.29"/>
</g>
<!-- Blackjack:1 -->
<g id="node34" class="node">
<title>Blackjack:1</title>
<path fill="lime" stroke="black" d="M382,-196C382,-196 308,-196 308,-196 302,-196 296,-190 296,-184 296,-184 296,-172 296,-172 296,-166 302,-160 308,-160 308,-160 382,-160 382,-160 388,-160 394,-166 394,-172 394,-172 394,-184 394,-184 394,-190 388,-196 382,-196"/>
<text text-anchor="middle" x="345" y="-174.3" font-family="Times,serif" font-size="14.00">Blackjack:1</text>
</g>
<!-- Números Aleatórios:3&#45;&gt;Blackjack:1 -->
<g id="edge35" class="edge">
<title>Números Aleatórios:3&#45;&gt;Blackjack:1</title>
<path fill="none" stroke="black" d="M316.01,-234.7C320.37,-226.31 325.73,-216.02 330.64,-206.58"/>
<polygon fill="black" stroke="black" points="333.72,-208.26 335.23,-197.77 327.51,-205.03 333.72,-208.26"/>
</g>
<!-- Jogo da Vida:1 -->
<g id="node43" class="node">
<title>Jogo da Vida:1</title>
<path fill="lime" stroke="black" d="M659.5,-52C659.5,-52 564.5,-52 564.5,-52 558.5,-52 552.5,-46 552.5,-40 552.5,-40 552.5,-28 552.5,-28 552.5,-22 558.5,-16 564.5,-16 564.5,-16 659.5,-16 659.5,-16 665.5,-16 671.5,-22 671.5,-28 671.5,-28 671.5,-40 671.5,-40 671.5,-46 665.5,-52 659.5,-52"/>
<text text-anchor="middle" x="612" y="-30.3" font-family="Times,serif" font-size="14.00">Jogo da Vida:1</text>
</g>
<!-- Números Aleatórios:3&#45;&gt;Jogo da Vida:1 -->
<g id="edge47" class="edge">
<title>Números Aleatórios:3&#45;&gt;Jogo da Vida:1</title>
<path fill="none" stroke="black" d="M277.53,-234.64C275.34,-232.34 273.44,-229.79 272,-227 258.37,-200.52 254.96,-184.42 272,-160 332.58,-73.18 460.5,-46.49 541,-38.39"/>
<polygon fill="black" stroke="black" points="540.9,-41.92 550.53,-37.51 540.25,-34.95 540.9,-41.92"/>
</g>
<!-- Cobrinha:1 -->
<g id="node44" class="node">
<title>Cobrinha:1</title>
<path fill="lime" stroke="black" d="M592.5,-124C592.5,-124 521.5,-124 521.5,-124 515.5,-124 509.5,-118 509.5,-112 509.5,-112 509.5,-100 509.5,-100 509.5,-94 515.5,-88 521.5,-88 521.5,-88 592.5,-88 592.5,-88 598.5,-88 604.5,-94 604.5,-100 604.5,-100 604.5,-112 604.5,-112 604.5,-118 598.5,-124 592.5,-124"/>
<text text-anchor="middle" x="557" y="-102.3" font-family="Times,serif" font-size="14.00">Cobrinha:1</text>
</g>
<!-- Números Aleatórios:3&#45;&gt;Cobrinha:1 -->
<g id="edge49" class="edge">
<title>Números Aleatórios:3&#45;&gt;Cobrinha:1</title>
<path fill="none" stroke="black" d="M290.78,-234.58C289.24,-232.17 287.92,-229.62 287,-227 277.14,-198.9 268.08,-182.99 287,-160 313.16,-128.2 426.54,-115.2 497.8,-110.09"/>
<polygon fill="black" stroke="black" points="498.04,-113.58 507.77,-109.41 497.56,-106.6 498.04,-113.58"/>
</g>
<!-- Array avançado:4 -->
<g id="node33" class="node">
<title>Array avançado:4</title>
<path fill="lime" stroke="black" d="M634.5,-271C634.5,-271 517.5,-271 517.5,-271 511.5,-271 505.5,-265 505.5,-259 505.5,-259 505.5,-247 505.5,-247 505.5,-241 511.5,-235 517.5,-235 517.5,-235 634.5,-235 634.5,-235 640.5,-235 646.5,-241 646.5,-247 646.5,-247 646.5,-259 646.5,-259 646.5,-265 640.5,-271 634.5,-271"/>
<text text-anchor="middle" x="576" y="-249.3" font-family="Times,serif" font-size="14.00">Array avançado:4</text>
</g>
<!-- Array Iniciante:4&#45;&gt;Array avançado:4 -->
<g id="edge34" class="edge">
<title>Array Iniciante:4&#45;&gt;Array avançado:4</title>
<path fill="none" stroke="black" d="M669.03,-306.52C653.08,-297.51 633.44,-286.42 616.32,-276.76"/>
<polygon fill="black" stroke="black" points="618.32,-273.87 607.89,-272 614.88,-279.97 618.32,-273.87"/>
</g>
<!-- Matrizes:2 -->
<g id="node40" class="node">
<title>Matrizes:2</title>
<path fill="lime" stroke="black" d="M1028.5,-196C1028.5,-196 959.5,-196 959.5,-196 953.5,-196 947.5,-190 947.5,-184 947.5,-184 947.5,-172 947.5,-172 947.5,-166 953.5,-160 959.5,-160 959.5,-160 1028.5,-160 1028.5,-160 1034.5,-160 1040.5,-166 1040.5,-172 1040.5,-172 1040.5,-184 1040.5,-184 1040.5,-190 1034.5,-196 1028.5,-196"/>
<text text-anchor="middle" x="994" y="-174.3" font-family="Times,serif" font-size="14.00">Matrizes:2</text>
</g>
<!-- Array Iniciante:4&#45;&gt;Matrizes:2 -->
<g id="edge44" class="edge">
<title>Array Iniciante:4&#45;&gt;Matrizes:2</title>
<path fill="none" stroke="black" d="M735.46,-306.51C788.91,-280.15 890.1,-230.25 948.78,-201.3"/>
<polygon fill="black" stroke="black" points="950.09,-204.56 957.51,-197 946.99,-198.28 950.09,-204.56"/>
</g>
<!-- Structs Advanced:2 -->
<g id="node42" class="node">
<title>Structs Advanced:2</title>
<path fill="lime" stroke="black" d="M874,-196C874,-196 742,-196 742,-196 736,-196 730,-190 730,-184 730,-184 730,-172 730,-172 730,-166 736,-160 742,-160 742,-160 874,-160 874,-160 880,-160 886,-166 886,-172 886,-172 886,-184 886,-184 886,-190 880,-196 874,-196"/>
<text text-anchor="middle" x="808" y="-174.3" font-family="Times,serif" font-size="14.00">Structs Advanced:2</text>
</g>
<!-- Array Iniciante:4&#45;&gt;Structs Advanced:2 -->
<g id="edge58" class="edge">
<title>Array Iniciante:4&#45;&gt;Structs Advanced:2</title>
<path fill="none" stroke="black" d="M713.03,-306.51C731.86,-281.23 766.82,-234.29 788.67,-204.96"/>
<polygon fill="black" stroke="black" points="791.19,-207.43 794.36,-197.32 785.58,-203.25 791.19,-207.43"/>
</g>
<!-- Array avançado:4&#45;&gt;Strings:7 -->
<g id="edge38" class="edge">
<title>Array avançado:4&#45;&gt;Strings:7</title>
<path fill="none" stroke="black" d="M646.9,-251.75C769.11,-250.78 1014.37,-246.41 1098,-227 1121.69,-221.5 1146.66,-211.16 1166.91,-201.47"/>
<polygon fill="black" stroke="black" points="1168.24,-204.72 1175.67,-197.17 1165.15,-198.43 1168.24,-204.72"/>
</g>
<!-- Array avançado:4&#45;&gt;Blackjack:1 -->
<g id="edge36" class="edge">
<title>Array avançado:4&#45;&gt;Blackjack:1</title>
<path fill="none" stroke="black" d="M505.4,-250.48C473.05,-247.63 434.9,-241.15 403,-227 390.74,-221.56 378.99,-212.78 369.32,-204.2"/>
<polygon fill="black" stroke="black" points="371.86,-201.78 362.16,-197.51 367.08,-206.89 371.86,-201.78"/>
</g>
<!-- Array Expert:6 -->
<g id="node35" class="node">
<title>Array Expert:6</title>
<path fill="lime" stroke="black" d="M523.5,-196C523.5,-196 424.5,-196 424.5,-196 418.5,-196 412.5,-190 412.5,-184 412.5,-184 412.5,-172 412.5,-172 412.5,-166 418.5,-160 424.5,-160 424.5,-160 523.5,-160 523.5,-160 529.5,-160 535.5,-166 535.5,-172 535.5,-172 535.5,-184 535.5,-184 535.5,-190 529.5,-196 523.5,-196"/>
<text text-anchor="middle" x="474" y="-174.3" font-family="Times,serif" font-size="14.00">Array Expert:6</text>
</g>
<!-- Array avançado:4&#45;&gt;Array Expert:6 -->
<g id="edge37" class="edge">
<title>Array avançado:4&#45;&gt;Array Expert:6</title>
<path fill="none" stroke="black" d="M551.57,-234.51C538.32,-225.03 521.76,-213.18 507.34,-202.86"/>
<polygon fill="black" stroke="black" points="509.63,-200.2 499.46,-197.22 505.56,-205.89 509.63,-200.2"/>
</g>
<!-- Strings Expert:4 -->
<g id="node38" class="node">
<title>Strings Expert:4</title>
<path fill="lime" stroke="black" d="M1582,-52C1582,-52 1470,-52 1470,-52 1464,-52 1458,-46 1458,-40 1458,-40 1458,-28 1458,-28 1458,-22 1464,-16 1470,-16 1470,-16 1582,-16 1582,-16 1588,-16 1594,-22 1594,-28 1594,-28 1594,-40 1594,-40 1594,-46 1588,-52 1582,-52"/>
<text text-anchor="middle" x="1526" y="-30.3" font-family="Times,serif" font-size="14.00">Strings Expert:4</text>
</g>
<!-- Strings II:3&#45;&gt;Strings Expert:4 -->
<g id="edge41" class="edge">
<title>Strings II:3&#45;&gt;Strings Expert:4</title>
<path fill="none" stroke="black" d="M1540.3,-87.7C1538.28,-80.24 1535.86,-71.32 1533.59,-62.97"/>
<polygon fill="black" stroke="black" points="1537.04,-62.3 1531.04,-53.57 1530.28,-64.13 1537.04,-62.3"/>
</g>
<!-- Ponteiros:1&#45;&gt;Strings II:3 -->
<g id="edge40" class="edge">
<title>Ponteiros:1&#45;&gt;Strings II:3</title>
<path fill="none" stroke="black" d="M1545,-234.51C1545,-209.88 1545,-164.71 1545,-135.28"/>
<polygon fill="black" stroke="black" points="1548.5,-135.62 1545,-125.62 1541.5,-135.62 1548.5,-135.62"/>
</g>
<!-- Ponteiros:1&#45;&gt;Structs Advanced:2 -->
<g id="edge57" class="edge">
<title>Ponteiros:1&#45;&gt;Structs Advanced:2</title>
<path fill="none" stroke="black" d="M1495.65,-250.77C1348.13,-247.02 918.92,-235.44 890,-227 872.37,-221.86 854.57,-212.11 840.08,-202.74"/>
<polygon fill="black" stroke="black" points="842.13,-199.9 831.88,-197.22 838.22,-205.7 842.13,-199.9"/>
</g>
<!-- Ponteiros ii:2 -->
<g id="node46" class="node">
<title>Ponteiros ii:2</title>
<path fill="lime" stroke="black" d="M1909.5,-196C1909.5,-196 1822.5,-196 1822.5,-196 1816.5,-196 1810.5,-190 1810.5,-184 1810.5,-184 1810.5,-172 1810.5,-172 1810.5,-166 1816.5,-160 1822.5,-160 1822.5,-160 1909.5,-160 1909.5,-160 1915.5,-160 1921.5,-166 1921.5,-172 1921.5,-172 1921.5,-184 1921.5,-184 1921.5,-190 1915.5,-196 1909.5,-196"/>
<text text-anchor="middle" x="1866" y="-174.3" font-family="Times,serif" font-size="14.00">Ponteiros ii:2</text>
</g>
<!-- Ponteiros:1&#45;&gt;Ponteiros ii:2 -->
<g id="edge52" class="edge">
<title>Ponteiros:1&#45;&gt;Ponteiros ii:2</title>
<path fill="none" stroke="black" d="M1594.27,-249.93C1656.35,-246.84 1759.26,-239.93 1795,-227 1810.05,-221.56 1824.99,-212.21 1837.25,-203.2"/>
<polygon fill="black" stroke="black" points="1839.06,-206.23 1844.87,-197.37 1834.8,-200.68 1839.06,-206.23"/>
</g>
<!-- Alocação Dinâmica i:2 -->
<g id="node47" class="node">
<title>Alocação Dinâmica i:2</title>
<path fill="lime" stroke="black" d="M1773.5,-196C1773.5,-196 1624.5,-196 1624.5,-196 1618.5,-196 1612.5,-190 1612.5,-184 1612.5,-184 1612.5,-172 1612.5,-172 1612.5,-166 1618.5,-160 1624.5,-160 1624.5,-160 1773.5,-160 1773.5,-160 1779.5,-160 1785.5,-166 1785.5,-172 1785.5,-172 1785.5,-184 1785.5,-184 1785.5,-190 1779.5,-196 1773.5,-196"/>
<text text-anchor="middle" x="1699" y="-174.3" font-family="Times,serif" font-size="14.00">Alocação Dinâmica i:2</text>
</g>
<!-- Ponteiros:1&#45;&gt;Alocação Dinâmica i:2 -->
<g id="edge53" class="edge">
<title>Ponteiros:1&#45;&gt;Alocação Dinâmica i:2</title>
<path fill="none" stroke="black" d="M1588.85,-234.57C1594.65,-232.11 1600.49,-229.54 1606,-227 1622.91,-219.19 1641.2,-209.93 1657.04,-201.64"/>
<polygon fill="black" stroke="black" points="1658.51,-204.83 1665.72,-197.07 1655.25,-198.63 1658.51,-204.83"/>
</g>
<!-- Structs:2&#45;&gt;Structs Advanced:2 -->
<g id="edge59" class="edge">
<title>Structs:2&#45;&gt;Structs Advanced:2</title>
<path fill="none" stroke="black" d="M825.59,-306.51C822.19,-281.88 815.96,-236.71 811.9,-207.28"/>
<polygon fill="black" stroke="black" points="815.4,-207.03 810.57,-197.6 808.47,-207.99 815.4,-207.03"/>
</g>
<!-- Técnicas em matrizes:2 -->
<g id="node41" class="node">
<title>Técnicas em matrizes:2</title>
<path fill="lime" stroke="black" d="M1074,-124C1074,-124 914,-124 914,-124 908,-124 902,-118 902,-112 902,-112 902,-100 902,-100 902,-94 908,-88 914,-88 914,-88 1074,-88 1074,-88 1080,-88 1086,-94 1086,-100 1086,-100 1086,-112 1086,-112 1086,-118 1080,-124 1074,-124"/>
<text text-anchor="middle" x="994" y="-102.3" font-family="Times,serif" font-size="14.00">Técnicas em matrizes:2</text>
</g>
<!-- Matrizes:2&#45;&gt;Técnicas em matrizes:2 -->
<g id="edge45" class="edge">
<title>Matrizes:2&#45;&gt;Técnicas em matrizes:2</title>
<path fill="none" stroke="black" d="M994,-159.7C994,-152.41 994,-143.73 994,-135.54"/>
<polygon fill="black" stroke="black" points="997.5,-135.62 994,-125.62 990.5,-135.62 997.5,-135.62"/>
</g>
<!-- Técnicas em matrizes:2&#45;&gt;Jogo da Vida:1 -->
<g id="edge48" class="edge">
<title>Técnicas em matrizes:2&#45;&gt;Jogo da Vida:1</title>
<path fill="none" stroke="black" d="M901.53,-88.05C834.28,-75.73 744.6,-59.3 682.96,-48"/>
<polygon fill="black" stroke="black" points="683.75,-44.59 673.28,-46.23 682.48,-51.47 683.75,-44.59"/>
</g>
<!-- Structs Advanced:2&#45;&gt;Técnicas em matrizes:2 -->
<g id="edge46" class="edge">
<title>Structs Advanced:2&#45;&gt;Técnicas em matrizes:2</title>
<path fill="none" stroke="black" d="M854.46,-159.52C879.52,-150.08 910.65,-138.37 937.15,-128.39"/>
<polygon fill="black" stroke="black" points="938.27,-131.71 946.4,-124.91 935.81,-125.16 938.27,-131.71"/>
</g>
<!-- Structs Advanced:2&#45;&gt;Cobrinha:1 -->
<g id="edge50" class="edge">
<title>Structs Advanced:2&#45;&gt;Cobrinha:1</title>
<path fill="none" stroke="black" d="M745.31,-159.52C705.58,-148.44 654.53,-134.2 615.61,-123.34"/>
<polygon fill="black" stroke="black" points="616.74,-120.03 606.17,-120.71 614.86,-126.77 616.74,-120.03"/>
</g>
<!-- arquivos texto:1 -->
<g id="node49" class="node">
<title>arquivos texto:1</title>
<path fill="lime" stroke="black" d="M1928.5,-124C1928.5,-124 1819.5,-124 1819.5,-124 1813.5,-124 1807.5,-118 1807.5,-112 1807.5,-112 1807.5,-100 1807.5,-100 1807.5,-94 1813.5,-88 1819.5,-88 1819.5,-88 1928.5,-88 1928.5,-88 1934.5,-88 1940.5,-94 1940.5,-100 1940.5,-100 1940.5,-112 1940.5,-112 1940.5,-118 1934.5,-124 1928.5,-124"/>
<text text-anchor="middle" x="1874" y="-102.3" font-family="Times,serif" font-size="14.00">arquivos texto:1</text>
</g>
<!-- Ponteiros ii:2&#45;&gt;arquivos texto:1 -->
<g id="edge55" class="edge">
<title>Ponteiros ii:2&#45;&gt;arquivos texto:1</title>
<path fill="none" stroke="black" d="M1867.98,-159.7C1868.81,-152.41 1869.8,-143.73 1870.74,-135.54"/>
<polygon fill="black" stroke="black" points="1874.22,-135.94 1871.87,-125.61 1867.26,-135.15 1874.22,-135.94"/>
</g>
<!-- Alocação Dinâmica ii:2 -->
<g id="node48" class="node">
<title>Alocação Dinâmica ii:2</title>
<path fill="lime" stroke="black" d="M1777.5,-124C1777.5,-124 1624.5,-124 1624.5,-124 1618.5,-124 1612.5,-118 1612.5,-112 1612.5,-112 1612.5,-100 1612.5,-100 1612.5,-94 1618.5,-88 1624.5,-88 1624.5,-88 1777.5,-88 1777.5,-88 1783.5,-88 1789.5,-94 1789.5,-100 1789.5,-100 1789.5,-112 1789.5,-112 1789.5,-118 1783.5,-124 1777.5,-124"/>
<text text-anchor="middle" x="1701" y="-102.3" font-family="Times,serif" font-size="14.00">Alocação Dinâmica ii:2</text>
</g>
<!-- Alocação Dinâmica i:2&#45;&gt;Alocação Dinâmica ii:2 -->
<g id="edge54" class="edge">
<title>Alocação Dinâmica i:2&#45;&gt;Alocação Dinâmica ii:2</title>
<path fill="none" stroke="black" d="M1699.49,-159.7C1699.7,-152.41 1699.95,-143.73 1700.18,-135.54"/>
<polygon fill="black" stroke="black" points="1703.68,-135.71 1700.47,-125.62 1696.68,-135.51 1703.68,-135.71"/>
</g>
<!-- arquivos binario:1 -->
<g id="node50" class="node">
<title>arquivos binario:1</title>
<path fill="lime" stroke="black" d="M1935,-52C1935,-52 1813,-52 1813,-52 1807,-52 1801,-46 1801,-40 1801,-40 1801,-28 1801,-28 1801,-22 1807,-16 1813,-16 1813,-16 1935,-16 1935,-16 1941,-16 1947,-22 1947,-28 1947,-28 1947,-40 1947,-40 1947,-46 1941,-52 1935,-52"/>
<text text-anchor="middle" x="1874" y="-30.3" font-family="Times,serif" font-size="14.00">arquivos binario:1</text>
</g>
<!-- arquivos texto:1&#45;&gt;arquivos binario:1 -->
<g id="edge56" class="edge">
<title>arquivos texto:1&#45;&gt;arquivos binario:1</title>
<path fill="none" stroke="black" d="M1874,-87.7C1874,-80.41 1874,-71.73 1874,-63.54"/>
<polygon fill="black" stroke="black" points="1877.5,-63.62 1874,-53.62 1870.5,-63.62 1877.5,-63.62"/>
</g>
</g>
</svg>
