<?xml version="1.0" encoding="UTF-8" standalone="no"?>
<!DOCTYPE svg PUBLIC "-//W3C//DTD SVG 1.1//EN"
 "http://www.w3.org/Graphics/SVG/1.1/DTD/svg11.dtd">
<!-- Generated by graphviz version 7.0.0 (0)
 -->
<!-- Title: diag Pages: 1 -->
<svg width="2563pt" height="770pt"
 viewBox="0.00 0.00 2563.00 770.00" xmlns="http://www.w3.org/2000/svg" xmlns:xlink="http://www.w3.org/1999/xlink">
<g id="graph0" class="graph" transform="scale(1 1) rotate(0) translate(4 766)">
<title>diag</title>
<polygon fill="white" stroke="none" points="-4,4 -4,-766 2559,-766 2559,4 -4,4"/>
<g id="clust1" class="cluster">
<title>cluster_Introdução</title>
<polygon fill="lightgray" stroke="lightgray" points="8,-496 8,-718 336,-718 336,-496 8,-496"/>
<text text-anchor="middle" x="172" y="-702.8" font-family="Times,serif" font-size="14.00">Introdução</text>
</g>
<g id="clust2" class="cluster">
<title>cluster_Básico</title>
<polygon fill="lightgray" stroke="lightgray" points="1117,-424 1117,-571 2053,-571 2053,-424 1117,-424"/>
<text text-anchor="middle" x="1585" y="-555.8" font-family="Times,serif" font-size="14.00">Básico</text>
</g>
<!-- Início -->
<g id="node1" class="node">
<title>Início</title>
<path fill="lightgrey" stroke="black" d="M188,-762C188,-762 156,-762 156,-762 150,-762 144,-756 144,-750 144,-750 144,-738 144,-738 144,-732 150,-726 156,-726 156,-726 188,-726 188,-726 194,-726 200,-732 200,-738 200,-738 200,-750 200,-750 200,-756 194,-762 188,-762"/>
<text text-anchor="middle" x="172" y="-740.3" font-family="Times,serif" font-size="14.00">Início</text>
</g>
<!-- O que são linguagens de programação?:4 -->
<g id="node2" class="node">
<title>O que são linguagens de programação?:4</title>
<path fill="lime" stroke="black" d="M315.5,-687C315.5,-687 28.5,-687 28.5,-687 22.5,-687 16.5,-681 16.5,-675 16.5,-675 16.5,-663 16.5,-663 16.5,-657 22.5,-651 28.5,-651 28.5,-651 315.5,-651 315.5,-651 321.5,-651 327.5,-657 327.5,-663 327.5,-663 327.5,-675 327.5,-675 327.5,-681 321.5,-687 315.5,-687"/>
<text text-anchor="middle" x="172" y="-665.3" font-family="Times,serif" font-size="14.00">O que são linguagens de programação?:4</text>
</g>
<!-- Início&#45;&gt;O que são linguagens de programação?:4 -->
<g id="edge1" class="edge">
<title>Início&#45;&gt;O que são linguagens de programação?:4</title>
<path fill="none" stroke="black" d="M172,-725.7C172,-717.67 172,-707.9 172,-698.8"/>
<polygon fill="black" stroke="black" points="175.5,-698.94 172,-688.94 168.5,-698.94 175.5,-698.94"/>
</g>
<!-- Uso do bash:1 -->
<g id="node3" class="node">
<title>Uso do bash:1</title>
<path fill="pink" stroke="black" d="M219,-615C219,-615 125,-615 125,-615 119,-615 113,-609 113,-603 113,-603 113,-591 113,-591 113,-585 119,-579 125,-579 125,-579 219,-579 219,-579 225,-579 231,-585 231,-591 231,-591 231,-603 231,-603 231,-609 225,-615 219,-615"/>
<text text-anchor="middle" x="172" y="-593.3" font-family="Times,serif" font-size="14.00">Uso do bash:1</text>
</g>
<!-- O que são linguagens de programação?:4&#45;&gt;Uso do bash:1 -->
<g id="edge2" class="edge">
<title>O que são linguagens de programação?:4&#45;&gt;Uso do bash:1</title>
<path fill="none" stroke="black" d="M172,-650.7C172,-643.41 172,-634.73 172,-626.54"/>
<polygon fill="black" stroke="black" points="175.5,-626.62 172,-616.62 168.5,-626.62 175.5,-626.62"/>
</g>
<!-- Makefile:4 -->
<g id="node5" class="node">
<title>Makefile:4</title>
<path fill="pink" stroke="black" d="M423.5,-615C423.5,-615 356.5,-615 356.5,-615 350.5,-615 344.5,-609 344.5,-603 344.5,-603 344.5,-591 344.5,-591 344.5,-585 350.5,-579 356.5,-579 356.5,-579 423.5,-579 423.5,-579 429.5,-579 435.5,-585 435.5,-591 435.5,-591 435.5,-603 435.5,-603 435.5,-609 429.5,-615 423.5,-615"/>
<text text-anchor="middle" x="390" y="-593.3" font-family="Times,serif" font-size="14.00">Makefile:4</text>
</g>
<!-- O que são linguagens de programação?:4&#45;&gt;Makefile:4 -->
<g id="edge4" class="edge">
<title>O que são linguagens de programação?:4&#45;&gt;Makefile:4</title>
<path fill="none" stroke="black" d="M228.48,-650.52C258.32,-641.21 295.83,-629.39 333.59,-617.09"/>
<polygon fill="black" stroke="black" points="334.38,-620.51 342.8,-614.07 332.21,-613.85 334.38,-620.51"/>
</g>
<!-- Primeiro código:6 -->
<g id="node6" class="node">
<title>Primeiro código:6</title>
<path fill="lime" stroke="black" d="M689.5,-615C689.5,-615 570.5,-615 570.5,-615 564.5,-615 558.5,-609 558.5,-603 558.5,-603 558.5,-591 558.5,-591 558.5,-585 564.5,-579 570.5,-579 570.5,-579 689.5,-579 689.5,-579 695.5,-579 701.5,-585 701.5,-591 701.5,-591 701.5,-603 701.5,-603 701.5,-609 695.5,-615 689.5,-615"/>
<text text-anchor="middle" x="630" y="-593.3" font-family="Times,serif" font-size="14.00">Primeiro código:6</text>
</g>
<!-- O que são linguagens de programação?:4&#45;&gt;Primeiro código:6 -->
<g id="edge5" class="edge">
<title>O que são linguagens de programação?:4&#45;&gt;Primeiro código:6</title>
<path fill="none" stroke="black" d="M286.39,-650.52C367.41,-638.13 474.23,-621.81 547.12,-610.67"/>
<polygon fill="black" stroke="black" points="547.22,-614.19 556.57,-609.22 546.16,-607.27 547.22,-614.19"/>
</g>
<!-- TKO &#45; Ferramenta de Testes:1 -->
<g id="node14" class="node">
<title>TKO &#45; Ferramenta de Testes:1</title>
<path fill="lime" stroke="black" d="M1647,-540C1647,-540 1441,-540 1441,-540 1435,-540 1429,-534 1429,-528 1429,-528 1429,-516 1429,-516 1429,-510 1435,-504 1441,-504 1441,-504 1647,-504 1647,-504 1653,-504 1659,-510 1659,-516 1659,-516 1659,-528 1659,-528 1659,-534 1653,-540 1647,-540"/>
<text text-anchor="middle" x="1544" y="-518.3" font-family="Times,serif" font-size="14.00">TKO &#45; Ferramenta de Testes:1</text>
</g>
<!-- O que são linguagens de programação?:4&#45;&gt;TKO &#45; Ferramenta de Testes:1 -->
<g id="edge16" class="edge">
<title>O que são linguagens de programação?:4&#45;&gt;TKO &#45; Ferramenta de Testes:1</title>
<path fill="none" stroke="black" d="M327.79,-663.6C461.89,-657.82 643.91,-644.66 710,-615 731.52,-605.34 727.08,-587.72 749,-579 783.59,-565.24 1382.44,-578 1419,-571 1446.22,-565.78 1475.21,-555.01 1498.4,-544.99"/>
<polygon fill="black" stroke="black" points="1499.51,-548.33 1507.24,-541.08 1496.68,-541.93 1499.51,-548.33"/>
</g>
<!-- Debugando:1 -->
<g id="node19" class="node">
<title>Debugando:1</title>
<path fill="pink" stroke="black" d="M857.5,-615C857.5,-615 770.5,-615 770.5,-615 764.5,-615 758.5,-609 758.5,-603 758.5,-603 758.5,-591 758.5,-591 758.5,-585 764.5,-579 770.5,-579 770.5,-579 857.5,-579 857.5,-579 863.5,-579 869.5,-585 869.5,-591 869.5,-591 869.5,-603 869.5,-603 869.5,-609 863.5,-615 857.5,-615"/>
<text text-anchor="middle" x="814" y="-593.3" font-family="Times,serif" font-size="14.00">Debugando:1</text>
</g>
<!-- O que são linguagens de programação?:4&#45;&gt;Debugando:1 -->
<g id="edge20" class="edge">
<title>O que são linguagens de programação?:4&#45;&gt;Debugando:1</title>
<path fill="none" stroke="black" d="M327.86,-659.72C443.32,-652.09 604.19,-638.33 744,-615 745.03,-614.83 746.06,-614.65 747.1,-614.47"/>
<polygon fill="black" stroke="black" points="747.73,-617.91 756.88,-612.57 746.4,-611.04 747.73,-617.91"/>
</g>
<!-- Configuração do Ambiente:2 -->
<g id="node4" class="node">
<title>Configuração do Ambiente:2</title>
<path fill="pink" stroke="black" d="M269,-540C269,-540 75,-540 75,-540 69,-540 63,-534 63,-528 63,-528 63,-516 63,-516 63,-510 69,-504 75,-504 75,-504 269,-504 269,-504 275,-504 281,-510 281,-516 281,-516 281,-528 281,-528 281,-534 275,-540 269,-540"/>
<text text-anchor="middle" x="172" y="-518.3" font-family="Times,serif" font-size="14.00">Configuração do Ambiente:2</text>
</g>
<!-- Uso do bash:1&#45;&gt;Configuração do Ambiente:2 -->
<g id="edge3" class="edge">
<title>Uso do bash:1&#45;&gt;Configuração do Ambiente:2</title>
<path fill="none" stroke="black" d="M172,-578.7C172,-570.67 172,-560.9 172,-551.8"/>
<polygon fill="black" stroke="black" points="175.5,-551.94 172,-541.94 168.5,-551.94 175.5,-551.94"/>
</g>
<!-- Clean Code &#45; Estilo:1 -->
<g id="node9" class="node">
<title>Clean Code &#45; Estilo:1</title>
<path fill="lime" stroke="black" d="M498,-540C498,-540 356,-540 356,-540 350,-540 344,-534 344,-528 344,-528 344,-516 344,-516 344,-510 350,-504 356,-504 356,-504 498,-504 498,-504 504,-504 510,-510 510,-516 510,-516 510,-528 510,-528 510,-534 504,-540 498,-540"/>
<text text-anchor="middle" x="427" y="-518.3" font-family="Times,serif" font-size="14.00">Clean Code &#45; Estilo:1</text>
</g>
<!-- Primeiro código:6&#45;&gt;Clean Code &#45; Estilo:1 -->
<g id="edge7" class="edge">
<title>Primeiro código:6&#45;&gt;Clean Code &#45; Estilo:1</title>
<path fill="none" stroke="black" d="M558.15,-582.69C544.95,-579.44 531.43,-575.55 519,-571 500.65,-564.28 481.33,-554.63 465.16,-545.75"/>
<polygon fill="black" stroke="black" points="467.29,-542.93 456.85,-541.09 463.86,-549.03 467.29,-542.93"/>
</g>
<!-- Clean Code &#45; Indentação:1 -->
<g id="node10" class="node">
<title>Clean Code &#45; Indentação:1</title>
<path fill="lime" stroke="black" d="M719.5,-540C719.5,-540 540.5,-540 540.5,-540 534.5,-540 528.5,-534 528.5,-528 528.5,-528 528.5,-516 528.5,-516 528.5,-510 534.5,-504 540.5,-504 540.5,-504 719.5,-504 719.5,-504 725.5,-504 731.5,-510 731.5,-516 731.5,-516 731.5,-528 731.5,-528 731.5,-534 725.5,-540 719.5,-540"/>
<text text-anchor="middle" x="630" y="-518.3" font-family="Times,serif" font-size="14.00">Clean Code &#45; Indentação:1</text>
</g>
<!-- Primeiro código:6&#45;&gt;Clean Code &#45; Indentação:1 -->
<g id="edge8" class="edge">
<title>Primeiro código:6&#45;&gt;Clean Code &#45; Indentação:1</title>
<path fill="none" stroke="black" d="M630,-578.7C630,-570.67 630,-560.9 630,-551.8"/>
<polygon fill="black" stroke="black" points="633.5,-551.94 630,-541.94 626.5,-551.94 633.5,-551.94"/>
</g>
<!-- Manipulando tipos:1 -->
<g id="node11" class="node">
<title>Manipulando tipos:1</title>
<path fill="pink" stroke="black" d="M900.5,-540C900.5,-540 761.5,-540 761.5,-540 755.5,-540 749.5,-534 749.5,-528 749.5,-528 749.5,-516 749.5,-516 749.5,-510 755.5,-504 761.5,-504 761.5,-504 900.5,-504 900.5,-504 906.5,-504 912.5,-510 912.5,-516 912.5,-516 912.5,-528 912.5,-528 912.5,-534 906.5,-540 900.5,-540"/>
<text text-anchor="middle" x="831" y="-518.3" font-family="Times,serif" font-size="14.00">Manipulando tipos:1</text>
</g>
<!-- Primeiro código:6&#45;&gt;Manipulando tipos:1 -->
<g id="edge9" class="edge">
<title>Primeiro código:6&#45;&gt;Manipulando tipos:1</title>
<path fill="none" stroke="black" d="M701.8,-582.54C714.69,-579.32 727.88,-575.49 740,-571 758,-564.34 776.92,-554.81 792.82,-546"/>
<polygon fill="black" stroke="black" points="794.5,-549.07 801.48,-541.09 791.05,-542.98 794.5,-549.07"/>
</g>
<!-- Casting e Conversão:3 -->
<g id="node12" class="node">
<title>Casting e Conversão:3</title>
<path fill="pink" stroke="black" d="M1095.5,-540C1095.5,-540 942.5,-540 942.5,-540 936.5,-540 930.5,-534 930.5,-528 930.5,-528 930.5,-516 930.5,-516 930.5,-510 936.5,-504 942.5,-504 942.5,-504 1095.5,-504 1095.5,-504 1101.5,-504 1107.5,-510 1107.5,-516 1107.5,-516 1107.5,-528 1107.5,-528 1107.5,-534 1101.5,-540 1095.5,-540"/>
<text text-anchor="middle" x="1019" y="-518.3" font-family="Times,serif" font-size="14.00">Casting e Conversão:3</text>
</g>
<!-- Primeiro código:6&#45;&gt;Casting e Conversão:3 -->
<g id="edge10" class="edge">
<title>Primeiro código:6&#45;&gt;Casting e Conversão:3</title>
<path fill="none" stroke="black" d="M701.66,-580.96C706.5,-580.22 711.31,-579.55 716,-579 761.28,-573.67 876.8,-582.16 921,-571 942.04,-565.69 963.86,-555.53 981.56,-545.91"/>
<polygon fill="black" stroke="black" points="983.14,-549.04 990.15,-541.1 979.72,-542.93 983.14,-549.04"/>
</g>
<!-- Operações Básicas:3 -->
<g id="node13" class="node">
<title>Operações Básicas:3</title>
<path fill="lime" stroke="black" d="M2215,-540C2215,-540 2075,-540 2075,-540 2069,-540 2063,-534 2063,-528 2063,-528 2063,-516 2063,-516 2063,-510 2069,-504 2075,-504 2075,-504 2215,-504 2215,-504 2221,-504 2227,-510 2227,-516 2227,-516 2227,-528 2227,-528 2227,-534 2221,-540 2215,-540"/>
<text text-anchor="middle" x="2145" y="-518.3" font-family="Times,serif" font-size="14.00">Operações Básicas:3</text>
</g>
<!-- Primeiro código:6&#45;&gt;Operações Básicas:3 -->
<g id="edge11" class="edge">
<title>Primeiro código:6&#45;&gt;Operações Básicas:3</title>
<path fill="none" stroke="black" d="M701.88,-584.13C717.38,-582.02 733.7,-580.13 749,-579 785.23,-576.31 2021.82,-580.09 2057,-571 2076.26,-566.03 2095.86,-555.93 2111.66,-546.27"/>
<polygon fill="black" stroke="black" points="2113.12,-549.49 2119.69,-541.18 2109.37,-543.58 2113.12,-549.49"/>
</g>
<!-- Entrada e Saída &#45; puts, printf, scanf:5 -->
<g id="node7" class="node">
<title>Entrada e Saída &#45; puts, printf, scanf:5</title>
<path fill="lime" stroke="black" d="M1398.5,-540C1398.5,-540 1137.5,-540 1137.5,-540 1131.5,-540 1125.5,-534 1125.5,-528 1125.5,-528 1125.5,-516 1125.5,-516 1125.5,-510 1131.5,-504 1137.5,-504 1137.5,-504 1398.5,-504 1398.5,-504 1404.5,-504 1410.5,-510 1410.5,-516 1410.5,-516 1410.5,-528 1410.5,-528 1410.5,-534 1404.5,-540 1398.5,-540"/>
<text text-anchor="middle" x="1268" y="-518.3" font-family="Times,serif" font-size="14.00">Entrada e Saída &#45; puts, printf, scanf:5</text>
</g>
<!-- String não é um tipo primitivo:1 -->
<g id="node8" class="node">
<title>String não é um tipo primitivo:1</title>
<path fill="lime" stroke="black" d="M2296.5,-468C2296.5,-468 2073.5,-468 2073.5,-468 2067.5,-468 2061.5,-462 2061.5,-456 2061.5,-456 2061.5,-444 2061.5,-444 2061.5,-438 2067.5,-432 2073.5,-432 2073.5,-432 2296.5,-432 2296.5,-432 2302.5,-432 2308.5,-438 2308.5,-444 2308.5,-444 2308.5,-456 2308.5,-456 2308.5,-462 2302.5,-468 2296.5,-468"/>
<text text-anchor="middle" x="2185" y="-446.3" font-family="Times,serif" font-size="14.00">String não é um tipo primitivo:1</text>
</g>
<!-- Entrada e Saída &#45; puts, printf, scanf:5&#45;&gt;String não é um tipo primitivo:1 -->
<g id="edge6" class="edge">
<title>Entrada e Saída &#45; puts, printf, scanf:5&#45;&gt;String não é um tipo primitivo:1</title>
<path fill="none" stroke="black" d="M1363.44,-503.52C1382.14,-500.6 1401.65,-497.91 1420,-496 1698.15,-467.12 1772.75,-492.22 2049.83,-468.61"/>
<polygon fill="black" stroke="black" points="2049.87,-472.12 2059.53,-467.77 2049.27,-465.14 2049.87,-472.12"/>
</g>
<!-- Seleção Básica:10 -->
<g id="node18" class="node">
<title>Seleção Básica:10</title>
<path fill="lime" stroke="black" d="M1293.5,-468C1293.5,-468 1172.5,-468 1172.5,-468 1166.5,-468 1160.5,-462 1160.5,-456 1160.5,-456 1160.5,-444 1160.5,-444 1160.5,-438 1166.5,-432 1172.5,-432 1172.5,-432 1293.5,-432 1293.5,-432 1299.5,-432 1305.5,-438 1305.5,-444 1305.5,-444 1305.5,-456 1305.5,-456 1305.5,-462 1299.5,-468 1293.5,-468"/>
<text text-anchor="middle" x="1233" y="-446.3" font-family="Times,serif" font-size="14.00">Seleção Básica:10</text>
</g>
<!-- Entrada e Saída &#45; puts, printf, scanf:5&#45;&gt;Seleção Básica:10 -->
<g id="edge17" class="edge">
<title>Entrada e Saída &#45; puts, printf, scanf:5&#45;&gt;Seleção Básica:10</title>
<path fill="none" stroke="black" d="M1259.35,-503.7C1255.53,-496.07 1250.96,-486.92 1246.7,-478.4"/>
<polygon fill="black" stroke="black" points="1249.83,-476.84 1242.23,-469.46 1243.57,-479.97 1249.83,-476.84"/>
</g>
<!-- Clean Code &#45; Estilo:1&#45;&gt;Seleção Básica:10 -->
<g id="edge18" class="edge">
<title>Clean Code &#45; Estilo:1&#45;&gt;Seleção Básica:10</title>
<path fill="none" stroke="black" d="M484.02,-503.58C495.51,-500.62 507.57,-497.89 519,-496 744.48,-458.65 1014.71,-451.75 1148.86,-450.81"/>
<polygon fill="black" stroke="black" points="1148.75,-454.32 1158.73,-450.76 1148.71,-447.32 1148.75,-454.32"/>
</g>
<!-- Clean Code &#45; Indentação:1&#45;&gt;Seleção Básica:10 -->
<g id="edge19" class="edge">
<title>Clean Code &#45; Indentação:1&#45;&gt;Seleção Básica:10</title>
<path fill="none" stroke="black" d="M700.44,-503.54C713.53,-500.71 727.14,-498.04 740,-496 882.69,-473.38 1050.55,-461.06 1149.01,-455.27"/>
<polygon fill="black" stroke="black" points="1149.08,-458.77 1158.86,-454.7 1148.67,-451.78 1149.08,-458.77"/>
</g>
<!-- Operações Básicas:3&#45;&gt;Entrada e Saída &#45; puts, printf, scanf:5 -->
<g id="edge14" class="edge">
<title>Operações Básicas:3&#45;&gt;Entrada e Saída &#45; puts, printf, scanf:5</title>
<path fill="none" stroke="black" d="M2121.07,-540.26C2102.34,-553.21 2075.03,-569.26 2048,-575 2031.18,-578.57 1445.98,-577.72 1429,-575 1392.35,-569.12 1352.73,-556.17 1321.97,-544.54"/>
<polygon fill="black" stroke="black" points="1323.48,-541.37 1312.89,-541.04 1320.96,-547.91 1323.48,-541.37"/>
</g>
<!-- Biblioteca matemática:2 -->
<g id="node15" class="node">
<title>Biblioteca matemática:2</title>
<path fill="pink" stroke="black" d="M2543,-468C2543,-468 2377,-468 2377,-468 2371,-468 2365,-462 2365,-456 2365,-456 2365,-444 2365,-444 2365,-438 2371,-432 2377,-432 2377,-432 2543,-432 2543,-432 2549,-432 2555,-438 2555,-444 2555,-444 2555,-456 2555,-456 2555,-462 2549,-468 2543,-468"/>
<text text-anchor="middle" x="2460" y="-446.3" font-family="Times,serif" font-size="14.00">Biblioteca matemática:2</text>
</g>
<!-- Operações Básicas:3&#45;&gt;Biblioteca matemática:2 -->
<g id="edge13" class="edge">
<title>Operações Básicas:3&#45;&gt;Biblioteca matemática:2</title>
<path fill="none" stroke="black" d="M2223.68,-503.52C2268.2,-493.62 2324.06,-481.21 2370.28,-470.94"/>
<polygon fill="black" stroke="black" points="2371.03,-474.36 2380.03,-468.77 2369.51,-467.52 2371.03,-474.36"/>
</g>
<!-- TKO &#45; Ferramenta de Testes:1&#45;&gt;Operações Básicas:3 -->
<g id="edge12" class="edge">
<title>TKO &#45; Ferramenta de Testes:1&#45;&gt;Operações Básicas:3</title>
<path fill="none" stroke="black" d="M1579.57,-540.48C1605.73,-552.99 1642.58,-568.39 1677,-575 1697.24,-578.88 2027.84,-579.28 2048,-575 2070.81,-570.16 2093.82,-557.98 2111.7,-546.51"/>
<polygon fill="black" stroke="black" points="2113.43,-549.56 2119.81,-541.1 2109.55,-543.74 2113.43,-549.56"/>
</g>
<!-- Strings:6 -->
<g id="node16" class="node">
<title>Strings:6</title>
<path fill="lime" stroke="black" d="M1641.5,-108C1641.5,-108 1582.5,-108 1582.5,-108 1576.5,-108 1570.5,-102 1570.5,-96 1570.5,-96 1570.5,-84 1570.5,-84 1570.5,-78 1576.5,-72 1582.5,-72 1582.5,-72 1641.5,-72 1641.5,-72 1647.5,-72 1653.5,-78 1653.5,-84 1653.5,-84 1653.5,-96 1653.5,-96 1653.5,-102 1647.5,-108 1641.5,-108"/>
<text text-anchor="middle" x="1612" y="-86.3" font-family="Times,serif" font-size="14.00">Strings:6</text>
</g>
<!-- Lendo e escrevendo em strings sprintf e sscanf:3 -->
<g id="node17" class="node">
<title>Lendo e escrevendo em strings sprintf e sscanf:3</title>
<path fill="pink" stroke="black" d="M2033,-540C2033,-540 1689,-540 1689,-540 1683,-540 1677,-534 1677,-528 1677,-528 1677,-516 1677,-516 1677,-510 1683,-504 1689,-504 1689,-504 2033,-504 2033,-504 2039,-504 2045,-510 2045,-516 2045,-516 2045,-528 2045,-528 2045,-534 2039,-540 2033,-540"/>
<text text-anchor="middle" x="1861" y="-518.3" font-family="Times,serif" font-size="14.00">Lendo e escrevendo em strings sprintf e sscanf:3</text>
</g>
<!-- Strings:6&#45;&gt;Lendo e escrevendo em strings sprintf e sscanf:3 -->
<g id="edge15" class="edge">
<title>Strings:6&#45;&gt;Lendo e escrevendo em strings sprintf e sscanf:3</title>
<path fill="none" stroke="black" d="M1653.85,-94.71C1808.24,-108.97 2337,-162.9 2337,-233 2337,-379 2337,-379 2337,-379 2337,-419.45 2348.06,-440.93 2318,-468 2274.16,-507.48 2112.59,-489.1 2054,-496 2037.76,-497.91 2020.76,-500 2003.87,-502.12"/>
<polygon fill="black" stroke="black" points="2003.78,-498.6 1994.3,-503.32 2004.66,-505.54 2003.78,-498.6"/>
</g>
<!-- IO: argc e argv:2 -->
<g id="node27" class="node">
<title>IO: argc e argv:2</title>
<path fill="pink" stroke="black" d="M1668.5,-36C1668.5,-36 1555.5,-36 1555.5,-36 1549.5,-36 1543.5,-30 1543.5,-24 1543.5,-24 1543.5,-12 1543.5,-12 1543.5,-6 1549.5,0 1555.5,0 1555.5,0 1668.5,0 1668.5,0 1674.5,0 1680.5,-6 1680.5,-12 1680.5,-12 1680.5,-24 1680.5,-24 1680.5,-30 1674.5,-36 1668.5,-36"/>
<text text-anchor="middle" x="1612" y="-14.3" font-family="Times,serif" font-size="14.00">IO: argc e argv:2</text>
</g>
<!-- Strings:6&#45;&gt;IO: argc e argv:2 -->
<g id="edge28" class="edge">
<title>Strings:6&#45;&gt;IO: argc e argv:2</title>
<path fill="none" stroke="black" d="M1612,-71.7C1612,-64.41 1612,-55.73 1612,-47.54"/>
<polygon fill="black" stroke="black" points="1615.5,-47.62 1612,-37.62 1608.5,-47.62 1615.5,-47.62"/>
</g>
<!-- Strings II:3 -->
<g id="node31" class="node">
<title>Strings II:3</title>
<path fill="pink" stroke="black" d="M1340,-36C1340,-36 1266,-36 1266,-36 1260,-36 1254,-30 1254,-24 1254,-24 1254,-12 1254,-12 1254,-6 1260,0 1266,0 1266,0 1340,0 1340,0 1346,0 1352,-6 1352,-12 1352,-12 1352,-24 1352,-24 1352,-30 1346,-36 1340,-36"/>
<text text-anchor="middle" x="1303" y="-14.3" font-family="Times,serif" font-size="14.00">Strings II:3</text>
</g>
<!-- Strings:6&#45;&gt;Strings II:3 -->
<g id="edge34" class="edge">
<title>Strings:6&#45;&gt;Strings II:3</title>
<path fill="none" stroke="black" d="M1570.1,-74.59C1567.03,-73.67 1563.97,-72.8 1561,-72 1494.14,-54.06 1416.13,-38.8 1363.54,-29.33"/>
<polygon fill="black" stroke="black" points="1364.34,-25.92 1353.88,-27.6 1363.11,-32.81 1364.34,-25.92"/>
</g>
<!-- Funções I:5 -->
<g id="node20" class="node">
<title>Funções I:5</title>
<path fill="lime" stroke="black" d="M1218.5,-396C1218.5,-396 1143.5,-396 1143.5,-396 1137.5,-396 1131.5,-390 1131.5,-384 1131.5,-384 1131.5,-372 1131.5,-372 1131.5,-366 1137.5,-360 1143.5,-360 1143.5,-360 1218.5,-360 1218.5,-360 1224.5,-360 1230.5,-366 1230.5,-372 1230.5,-372 1230.5,-384 1230.5,-384 1230.5,-390 1224.5,-396 1218.5,-396"/>
<text text-anchor="middle" x="1181" y="-374.3" font-family="Times,serif" font-size="14.00">Funções I:5</text>
</g>
<!-- Seleção Básica:10&#45;&gt;Funções I:5 -->
<g id="edge23" class="edge">
<title>Seleção Básica:10&#45;&gt;Funções I:5</title>
<path fill="none" stroke="black" d="M1220.15,-431.7C1214.23,-423.73 1207.07,-414.1 1200.51,-405.26"/>
<polygon fill="black" stroke="black" points="1203.38,-403.26 1194.61,-397.32 1197.76,-407.43 1203.38,-403.26"/>
</g>
<!-- While:4 -->
<g id="node24" class="node">
<title>While:4</title>
<path fill="lime" stroke="black" d="M1307.5,-396C1307.5,-396 1260.5,-396 1260.5,-396 1254.5,-396 1248.5,-390 1248.5,-384 1248.5,-384 1248.5,-372 1248.5,-372 1248.5,-366 1254.5,-360 1260.5,-360 1260.5,-360 1307.5,-360 1307.5,-360 1313.5,-360 1319.5,-366 1319.5,-372 1319.5,-372 1319.5,-384 1319.5,-384 1319.5,-390 1313.5,-396 1307.5,-396"/>
<text text-anchor="middle" x="1284" y="-374.3" font-family="Times,serif" font-size="14.00">While:4</text>
</g>
<!-- Seleção Básica:10&#45;&gt;While:4 -->
<g id="edge25" class="edge">
<title>Seleção Básica:10&#45;&gt;While:4</title>
<path fill="none" stroke="black" d="M1245.61,-431.7C1251.41,-423.73 1258.43,-414.1 1264.86,-405.26"/>
<polygon fill="black" stroke="black" points="1267.59,-407.47 1270.65,-397.33 1261.93,-403.35 1267.59,-407.47"/>
</g>
<!-- Números Aleatórios:3 -->
<g id="node26" class="node">
<title>Números Aleatórios:3</title>
<path fill="lime" stroke="black" d="M1498,-396C1498,-396 1350,-396 1350,-396 1344,-396 1338,-390 1338,-384 1338,-384 1338,-372 1338,-372 1338,-366 1344,-360 1350,-360 1350,-360 1498,-360 1498,-360 1504,-360 1510,-366 1510,-372 1510,-372 1510,-384 1510,-384 1510,-390 1504,-396 1498,-396"/>
<text text-anchor="middle" x="1424" y="-374.3" font-family="Times,serif" font-size="14.00">Números Aleatórios:3</text>
</g>
<!-- Seleção Básica:10&#45;&gt;Números Aleatórios:3 -->
<g id="edge27" class="edge">
<title>Seleção Básica:10&#45;&gt;Números Aleatórios:3</title>
<path fill="none" stroke="black" d="M1280.7,-431.52C1306.55,-422.04 1338.7,-410.26 1365.99,-400.26"/>
<polygon fill="black" stroke="black" points="1366.97,-403.63 1375.15,-396.9 1364.56,-397.06 1366.97,-403.63"/>
</g>
<!-- Técnicas de seleção I:8 -->
<g id="node21" class="node">
<title>Técnicas de seleção I:8</title>
<path fill="pink" stroke="black" d="M1042.5,-324C1042.5,-324 887.5,-324 887.5,-324 881.5,-324 875.5,-318 875.5,-312 875.5,-312 875.5,-300 875.5,-300 875.5,-294 881.5,-288 887.5,-288 887.5,-288 1042.5,-288 1042.5,-288 1048.5,-288 1054.5,-294 1054.5,-300 1054.5,-300 1054.5,-312 1054.5,-312 1054.5,-318 1048.5,-324 1042.5,-324"/>
<text text-anchor="middle" x="965" y="-302.3" font-family="Times,serif" font-size="14.00">Técnicas de seleção I:8</text>
</g>
<!-- Funções I:5&#45;&gt;Técnicas de seleção I:8 -->
<g id="edge21" class="edge">
<title>Funções I:5&#45;&gt;Técnicas de seleção I:8</title>
<path fill="none" stroke="black" d="M1131.17,-360.85C1100.95,-351.06 1062.07,-338.46 1029.51,-327.91"/>
<polygon fill="black" stroke="black" points="1030.76,-324.63 1020.17,-324.88 1028.61,-331.29 1030.76,-324.63"/>
</g>
<!-- Funções II:4 -->
<g id="node23" class="node">
<title>Funções II:4</title>
<path fill="lime" stroke="black" d="M1165,-324C1165,-324 1085,-324 1085,-324 1079,-324 1073,-318 1073,-312 1073,-312 1073,-300 1073,-300 1073,-294 1079,-288 1085,-288 1085,-288 1165,-288 1165,-288 1171,-288 1177,-294 1177,-300 1177,-300 1177,-312 1177,-312 1177,-318 1171,-324 1165,-324"/>
<text text-anchor="middle" x="1125" y="-302.3" font-family="Times,serif" font-size="14.00">Funções II:4</text>
</g>
<!-- Funções I:5&#45;&gt;Funções II:4 -->
<g id="edge24" class="edge">
<title>Funções I:5&#45;&gt;Funções II:4</title>
<path fill="none" stroke="black" d="M1167.16,-359.7C1160.71,-351.64 1152.92,-341.89 1145.79,-332.98"/>
<polygon fill="black" stroke="black" points="1148.61,-330.91 1139.63,-325.29 1143.14,-335.28 1148.61,-330.91"/>
</g>
<!-- Array Iniciante:4 -->
<g id="node28" class="node">
<title>Array Iniciante:4</title>
<path fill="lime" stroke="black" d="M1418.5,-252C1418.5,-252 1305.5,-252 1305.5,-252 1299.5,-252 1293.5,-246 1293.5,-240 1293.5,-240 1293.5,-228 1293.5,-228 1293.5,-222 1299.5,-216 1305.5,-216 1305.5,-216 1418.5,-216 1418.5,-216 1424.5,-216 1430.5,-222 1430.5,-228 1430.5,-228 1430.5,-240 1430.5,-240 1430.5,-246 1424.5,-252 1418.5,-252"/>
<text text-anchor="middle" x="1362" y="-230.3" font-family="Times,serif" font-size="14.00">Array Iniciante:4</text>
</g>
<!-- Funções I:5&#45;&gt;Array Iniciante:4 -->
<g id="edge30" class="edge">
<title>Funções I:5&#45;&gt;Array Iniciante:4</title>
<path fill="none" stroke="black" d="M1225.65,-359.56C1245.54,-350.61 1268.57,-338.51 1287,-324 1309.57,-306.22 1330.21,-280.73 1344.1,-261.58"/>
<polygon fill="black" stroke="black" points="1346.93,-263.64 1349.85,-253.46 1341.21,-259.6 1346.93,-263.64"/>
</g>
<!-- Structs:1 -->
<g id="node33" class="node">
<title>Structs:1</title>
<path fill="lime" stroke="black" d="M1266.5,-324C1266.5,-324 1207.5,-324 1207.5,-324 1201.5,-324 1195.5,-318 1195.5,-312 1195.5,-312 1195.5,-300 1195.5,-300 1195.5,-294 1201.5,-288 1207.5,-288 1207.5,-288 1266.5,-288 1266.5,-288 1272.5,-288 1278.5,-294 1278.5,-300 1278.5,-300 1278.5,-312 1278.5,-312 1278.5,-318 1272.5,-324 1266.5,-324"/>
<text text-anchor="middle" x="1237" y="-302.3" font-family="Times,serif" font-size="14.00">Structs:1</text>
</g>
<!-- Funções I:5&#45;&gt;Structs:1 -->
<g id="edge37" class="edge">
<title>Funções I:5&#45;&gt;Structs:1</title>
<path fill="none" stroke="black" d="M1194.84,-359.7C1201.29,-351.64 1209.08,-341.89 1216.21,-332.98"/>
<polygon fill="black" stroke="black" points="1218.86,-335.28 1222.37,-325.29 1213.39,-330.91 1218.86,-335.28"/>
</g>
<!-- Técnicas de seleção II:10 -->
<g id="node22" class="node">
<title>Técnicas de seleção II:10</title>
<path fill="pink" stroke="black" d="M1050,-252C1050,-252 880,-252 880,-252 874,-252 868,-246 868,-240 868,-240 868,-228 868,-228 868,-222 874,-216 880,-216 880,-216 1050,-216 1050,-216 1056,-216 1062,-222 1062,-228 1062,-228 1062,-240 1062,-240 1062,-246 1056,-252 1050,-252"/>
<text text-anchor="middle" x="965" y="-230.3" font-family="Times,serif" font-size="14.00">Técnicas de seleção II:10</text>
</g>
<!-- Técnicas de seleção I:8&#45;&gt;Técnicas de seleção II:10 -->
<g id="edge22" class="edge">
<title>Técnicas de seleção I:8&#45;&gt;Técnicas de seleção II:10</title>
<path fill="none" stroke="black" d="M965,-287.7C965,-280.41 965,-271.73 965,-263.54"/>
<polygon fill="black" stroke="black" points="968.5,-263.62 965,-253.62 961.5,-263.62 968.5,-263.62"/>
</g>
<!-- Ponteiros:1 -->
<g id="node32" class="node">
<title>Ponteiros:1</title>
<path fill="lime" stroke="black" d="M1167,-252C1167,-252 1093,-252 1093,-252 1087,-252 1081,-246 1081,-240 1081,-240 1081,-228 1081,-228 1081,-222 1087,-216 1093,-216 1093,-216 1167,-216 1167,-216 1173,-216 1179,-222 1179,-228 1179,-228 1179,-240 1179,-240 1179,-246 1173,-252 1167,-252"/>
<text text-anchor="middle" x="1130" y="-230.3" font-family="Times,serif" font-size="14.00">Ponteiros:1</text>
</g>
<!-- Funções II:4&#45;&gt;Ponteiros:1 -->
<g id="edge36" class="edge">
<title>Funções II:4&#45;&gt;Ponteiros:1</title>
<path fill="none" stroke="black" d="M1126.24,-287.7C1126.76,-280.41 1127.38,-271.73 1127.96,-263.54"/>
<polygon fill="black" stroke="black" points="1131.45,-263.84 1128.67,-253.61 1124.47,-263.34 1131.45,-263.84"/>
</g>
<!-- for:8 -->
<g id="node25" class="node">
<title>for:8</title>
<path fill="lime" stroke="black" d="M1377,-324C1377,-324 1347,-324 1347,-324 1341,-324 1335,-318 1335,-312 1335,-312 1335,-300 1335,-300 1335,-294 1341,-288 1347,-288 1347,-288 1377,-288 1377,-288 1383,-288 1389,-294 1389,-300 1389,-300 1389,-312 1389,-312 1389,-318 1383,-324 1377,-324"/>
<text text-anchor="middle" x="1362" y="-302.3" font-family="Times,serif" font-size="14.00">for:8</text>
</g>
<!-- While:4&#45;&gt;for:8 -->
<g id="edge26" class="edge">
<title>While:4&#45;&gt;for:8</title>
<path fill="none" stroke="black" d="M1303.28,-359.7C1312.66,-351.28 1324.09,-341.02 1334.38,-331.79"/>
<polygon fill="black" stroke="black" points="1336.44,-334.64 1341.54,-325.36 1331.76,-329.43 1336.44,-334.64"/>
</g>
<!-- for:8&#45;&gt;Array Iniciante:4 -->
<g id="edge29" class="edge">
<title>for:8&#45;&gt;Array Iniciante:4</title>
<path fill="none" stroke="black" d="M1362,-287.7C1362,-280.41 1362,-271.73 1362,-263.54"/>
<polygon fill="black" stroke="black" points="1365.5,-263.62 1362,-253.62 1358.5,-263.62 1365.5,-263.62"/>
</g>
<!-- Array avançado:4 -->
<g id="node29" class="node">
<title>Array avançado:4</title>
<path fill="lime" stroke="black" d="M1572.5,-180C1572.5,-180 1455.5,-180 1455.5,-180 1449.5,-180 1443.5,-174 1443.5,-168 1443.5,-168 1443.5,-156 1443.5,-156 1443.5,-150 1449.5,-144 1455.5,-144 1455.5,-144 1572.5,-144 1572.5,-144 1578.5,-144 1584.5,-150 1584.5,-156 1584.5,-156 1584.5,-168 1584.5,-168 1584.5,-174 1578.5,-180 1572.5,-180"/>
<text text-anchor="middle" x="1514" y="-158.3" font-family="Times,serif" font-size="14.00">Array avançado:4</text>
</g>
<!-- Array Iniciante:4&#45;&gt;Array avançado:4 -->
<g id="edge31" class="edge">
<title>Array Iniciante:4&#45;&gt;Array avançado:4</title>
<path fill="none" stroke="black" d="M1399.96,-215.52C1419.9,-206.34 1444.54,-194.99 1465.8,-185.2"/>
<polygon fill="black" stroke="black" points="1467.26,-188.38 1474.88,-181.01 1464.33,-182.02 1467.26,-188.38"/>
</g>
<!-- Matrizes:2 -->
<g id="node34" class="node">
<title>Matrizes:2</title>
<path fill="lime" stroke="black" d="M1413.5,-180C1413.5,-180 1344.5,-180 1344.5,-180 1338.5,-180 1332.5,-174 1332.5,-168 1332.5,-168 1332.5,-156 1332.5,-156 1332.5,-150 1338.5,-144 1344.5,-144 1344.5,-144 1413.5,-144 1413.5,-144 1419.5,-144 1425.5,-150 1425.5,-156 1425.5,-156 1425.5,-168 1425.5,-168 1425.5,-174 1419.5,-180 1413.5,-180"/>
<text text-anchor="middle" x="1379" y="-158.3" font-family="Times,serif" font-size="14.00">Matrizes:2</text>
</g>
<!-- Array Iniciante:4&#45;&gt;Matrizes:2 -->
<g id="edge38" class="edge">
<title>Array Iniciante:4&#45;&gt;Matrizes:2</title>
<path fill="none" stroke="black" d="M1366.2,-215.7C1367.99,-208.32 1370.13,-199.52 1372.14,-191.25"/>
<polygon fill="black" stroke="black" points="1375.53,-192.12 1374.49,-181.58 1368.73,-190.47 1375.53,-192.12"/>
</g>
<!-- Structs Advanced:2 -->
<g id="node36" class="node">
<title>Structs Advanced:2</title>
<path fill="lime" stroke="black" d="M1302,-180C1302,-180 1170,-180 1170,-180 1164,-180 1158,-174 1158,-168 1158,-168 1158,-156 1158,-156 1158,-150 1164,-144 1170,-144 1170,-144 1302,-144 1302,-144 1308,-144 1314,-150 1314,-156 1314,-156 1314,-168 1314,-168 1314,-174 1308,-180 1302,-180"/>
<text text-anchor="middle" x="1236" y="-158.3" font-family="Times,serif" font-size="14.00">Structs Advanced:2</text>
</g>
<!-- Array Iniciante:4&#45;&gt;Structs Advanced:2 -->
<g id="edge42" class="edge">
<title>Array Iniciante:4&#45;&gt;Structs Advanced:2</title>
<path fill="none" stroke="black" d="M1330.53,-215.52C1314.32,-206.51 1294.36,-195.42 1276.97,-185.76"/>
<polygon fill="black" stroke="black" points="1278.83,-182.79 1268.39,-181 1275.43,-188.91 1278.83,-182.79"/>
</g>
<!-- Array avançado:4&#45;&gt;Strings:6 -->
<g id="edge33" class="edge">
<title>Array avançado:4&#45;&gt;Strings:6</title>
<path fill="none" stroke="black" d="M1538.48,-143.52C1550.61,-134.85 1565.45,-124.25 1578.61,-114.85"/>
<polygon fill="black" stroke="black" points="1580.5,-117.8 1586.6,-109.14 1576.43,-112.1 1580.5,-117.8"/>
</g>
<!-- Array Expert:6 -->
<g id="node30" class="node">
<title>Array Expert:6</title>
<path fill="pink" stroke="black" d="M1540.5,-108C1540.5,-108 1441.5,-108 1441.5,-108 1435.5,-108 1429.5,-102 1429.5,-96 1429.5,-96 1429.5,-84 1429.5,-84 1429.5,-78 1435.5,-72 1441.5,-72 1441.5,-72 1540.5,-72 1540.5,-72 1546.5,-72 1552.5,-78 1552.5,-84 1552.5,-84 1552.5,-96 1552.5,-96 1552.5,-102 1546.5,-108 1540.5,-108"/>
<text text-anchor="middle" x="1491" y="-86.3" font-family="Times,serif" font-size="14.00">Array Expert:6</text>
</g>
<!-- Array avançado:4&#45;&gt;Array Expert:6 -->
<g id="edge32" class="edge">
<title>Array avançado:4&#45;&gt;Array Expert:6</title>
<path fill="none" stroke="black" d="M1508.31,-143.7C1505.86,-136.24 1502.93,-127.32 1500.19,-118.97"/>
<polygon fill="black" stroke="black" points="1503.54,-117.95 1497.09,-109.54 1496.89,-120.14 1503.54,-117.95"/>
</g>
<!-- Ponteiros:1&#45;&gt;Strings II:3 -->
<g id="edge35" class="edge">
<title>Ponteiros:1&#45;&gt;Strings II:3</title>
<path fill="none" stroke="black" d="M1131.83,-215.73C1134.19,-197.39 1139.22,-167.83 1149,-144 1163.42,-108.87 1166.68,-97.3 1195,-72 1208.99,-59.5 1226.47,-49.24 1243.26,-41.19"/>
<polygon fill="black" stroke="black" points="1244.57,-44.44 1252.21,-37.1 1241.66,-38.08 1244.57,-44.44"/>
</g>
<!-- Ponteiros:1&#45;&gt;Structs Advanced:2 -->
<g id="edge41" class="edge">
<title>Ponteiros:1&#45;&gt;Structs Advanced:2</title>
<path fill="none" stroke="black" d="M1156.47,-215.52C1169.73,-206.76 1185.96,-196.04 1200.3,-186.58"/>
<polygon fill="black" stroke="black" points="1202.18,-189.53 1208.6,-181.09 1198.33,-183.68 1202.18,-189.53"/>
</g>
<!-- Structs:1&#45;&gt;Structs Advanced:2 -->
<g id="edge43" class="edge">
<title>Structs:1&#45;&gt;Structs Advanced:2</title>
<path fill="none" stroke="black" d="M1236.88,-287.59C1236.71,-263.61 1236.4,-220.14 1236.2,-191.42"/>
<polygon fill="black" stroke="black" points="1239.7,-191.6 1236.13,-181.62 1232.7,-191.65 1239.7,-191.6"/>
</g>
<!-- Técnicas em matrizes:1 -->
<g id="node35" class="node">
<title>Técnicas em matrizes:1</title>
<path fill="pink" stroke="black" d="M1376,-108C1376,-108 1216,-108 1216,-108 1210,-108 1204,-102 1204,-96 1204,-96 1204,-84 1204,-84 1204,-78 1210,-72 1216,-72 1216,-72 1376,-72 1376,-72 1382,-72 1388,-78 1388,-84 1388,-84 1388,-96 1388,-96 1388,-102 1382,-108 1376,-108"/>
<text text-anchor="middle" x="1296" y="-86.3" font-family="Times,serif" font-size="14.00">Técnicas em matrizes:1</text>
</g>
<!-- Matrizes:2&#45;&gt;Técnicas em matrizes:1 -->
<g id="edge39" class="edge">
<title>Matrizes:2&#45;&gt;Técnicas em matrizes:1</title>
<path fill="none" stroke="black" d="M1358.48,-143.7C1348.41,-135.2 1336.09,-124.81 1325.07,-115.51"/>
<polygon fill="black" stroke="black" points="1327.63,-113.09 1317.73,-109.32 1323.11,-118.45 1327.63,-113.09"/>
</g>
<!-- Structs Advanced:2&#45;&gt;Técnicas em matrizes:1 -->
<g id="edge40" class="edge">
<title>Structs Advanced:2&#45;&gt;Técnicas em matrizes:1</title>
<path fill="none" stroke="black" d="M1250.83,-143.7C1257.81,-135.56 1266.27,-125.69 1273.97,-116.7"/>
<polygon fill="black" stroke="black" points="1276.5,-119.12 1280.35,-109.25 1271.19,-114.57 1276.5,-119.12"/>
</g>
</g>
</svg>
