<?xml version="1.0" encoding="us-ascii" standalone="no"?><svg xmlns="http://www.w3.org/2000/svg" xmlns:xlink="http://www.w3.org/1999/xlink" contentStyleType="text/css" height="874px" preserveAspectRatio="none" style="width:1211px;height:874px;background:#FFFFFF;" version="1.1" viewBox="0 0 1211 874" width="1211px" zoomAndPan="magnify"><defs/><g><rect fill="#00FF00" height="35.0841" rx="12.5" ry="12.5" style="stroke:#181818;stroke-width:0.5;" width="97" x="513" y="7"/><text fill="#000000" font-family="Hasklig" font-size="12" lengthAdjust="spacing" textLength="77" x="523" y="28.8081">tools_basic</text><rect fill="#FFFF00" height="35.0841" rx="12.5" ry="12.5" style="stroke:#181818;stroke-width:0.5;" width="90" x="178.5" y="82.09"/><text fill="#000000" font-family="Hasklig" font-size="12" lengthAdjust="spacing" textLength="70" x="188.5" y="103.8981">tools_bash</text><rect fill="#FFFF00" height="35.0841" rx="12.5" ry="12.5" style="stroke:#181818;stroke-width:0.5;" width="125" x="7" y="157.17"/><text fill="#000000" font-family="Hasklig" font-size="12" lengthAdjust="spacing" textLength="105" x="17" y="178.9781">tools_local_ide</text><rect fill="#FFFF00" height="35.0841" rx="12.5" ry="12.5" style="stroke:#181818;stroke-width:0.5;" width="118" x="375.5" y="82.09"/><text fill="#000000" font-family="Hasklig" font-size="12" lengthAdjust="spacing" textLength="98" x="385.5" y="103.8981">tools_makefile</text><rect fill="#00FF00" height="35.0841" rx="12.5" ry="12.5" style="stroke:#181818;stroke-width:0.5;" width="97" x="513" y="82.09"/><text fill="#000000" font-family="Hasklig" font-size="12" lengthAdjust="spacing" textLength="77" x="523" y="103.8981">types_basic</text><rect fill="#00FF00" height="35.0841" rx="12.5" ry="12.5" style="stroke:#181818;stroke-width:0.5;" width="76" x="939.5" y="232.25"/><text fill="#000000" font-family="Hasklig" font-size="12" lengthAdjust="spacing" textLength="56" x="949.5" y="254.0581">io_basic</text><rect fill="#00FF00" height="35.0841" rx="12.5" ry="12.5" style="stroke:#181818;stroke-width:0.5;" width="104" x="861.5" y="307.34"/><text fill="#000000" font-family="Hasklig" font-size="12" lengthAdjust="spacing" textLength="84" x="871.5" y="329.1481">string_basic</text><rect fill="#00FF00" height="35.0841" rx="12.5" ry="12.5" style="stroke:#181818;stroke-width:0.5;" width="97" x="580" y="157.17"/><text fill="#000000" font-family="Hasklig" font-size="12" lengthAdjust="spacing" textLength="77" x="590" y="178.9781">style_guide</text><rect fill="#00FF00" height="35.0841" rx="12.5" ry="12.5" style="stroke:#181818;stroke-width:0.5;" width="139" x="697" y="157.17"/><text fill="#000000" font-family="Hasklig" font-size="12" lengthAdjust="spacing" textLength="119" x="707" y="178.9781">style_indentation</text><rect fill="#FFFF00" height="35.0841" rx="12.5" ry="12.5" style="stroke:#181818;stroke-width:0.5;" width="125" x="152" y="157.17"/><text fill="#000000" font-family="Hasklig" font-size="12" lengthAdjust="spacing" textLength="105" x="162" y="178.9781">types_modifiers</text><rect fill="#FFFF00" height="35.0841" rx="12.5" ry="12.5" style="stroke:#181818;stroke-width:0.5;" width="111" x="297" y="157.17"/><text fill="#000000" font-family="Hasklig" font-size="12" lengthAdjust="spacing" textLength="91" x="307" y="178.9781">types_casting</text><rect fill="#FFFF00" height="35.0841" rx="12.5" ry="12.5" style="stroke:#181818;stroke-width:0.5;" width="132" x="428.5" y="157.17"/><text fill="#000000" font-family="Hasklig" font-size="12" lengthAdjust="spacing" textLength="112" x="438.5" y="178.9781">types_conversion</text><rect fill="#00FF00" height="35.0841" rx="12.5" ry="12.5" style="stroke:#181818;stroke-width:0.5;" width="132" x="856.5" y="157.17"/><text fill="#000000" font-family="Hasklig" font-size="12" lengthAdjust="spacing" textLength="112" x="866.5" y="178.9781">types_operations</text><rect fill="#00FF00" height="35.0841" rx="12.5" ry="12.5" style="stroke:#181818;stroke-width:0.5;" width="83" x="630" y="82.09"/><text fill="#000000" font-family="Hasklig" font-size="12" lengthAdjust="spacing" textLength="63" x="640" y="103.8981">tools_tko</text><rect fill="#FFFF00" height="35.0841" rx="12.5" ry="12.5" style="stroke:#181818;stroke-width:0.5;" width="104" x="815.5" y="232.25"/><text fill="#000000" font-family="Hasklig" font-size="12" lengthAdjust="spacing" textLength="84" x="825.5" y="254.0581">tools_math.h</text><rect fill="#00FF00" height="35.0841" rx="12.5" ry="12.5" style="stroke:#181818;stroke-width:0.5;" width="111" x="428" y="682.76"/><text fill="#000000" font-family="Hasklig" font-size="12" lengthAdjust="spacing" textLength="91" x="438" y="704.5681">string_novice</text><rect fill="#FFFF00" height="35.0841" rx="12.5" ry="12.5" style="stroke:#181818;stroke-width:0.5;" width="83" x="513" y="757.84"/><text fill="#000000" font-family="Hasklig" font-size="12" lengthAdjust="spacing" textLength="63" x="523" y="779.6481">io_string</text><rect fill="#00FF00" height="35.0841" rx="12.5" ry="12.5" style="stroke:#181818;stroke-width:0.5;" width="111" x="872" y="382.42"/><text fill="#000000" font-family="Hasklig" font-size="12" lengthAdjust="spacing" textLength="91" x="882" y="404.2281">repeat_novice</text><rect fill="#FFFF00" height="35.0841" rx="12.5" ry="12.5" style="stroke:#181818;stroke-width:0.5;" width="76" x="722.5" y="457.51"/><text fill="#000000" font-family="Hasklig" font-size="12" lengthAdjust="spacing" textLength="56" x="732.5" y="479.3181">io_error</text><rect fill="#FFFF00" height="35.0841" rx="12.5" ry="12.5" style="stroke:#181818;stroke-width:0.5;" width="104" x="818.5" y="457.51"/><text fill="#000000" font-family="Hasklig" font-size="12" lengthAdjust="spacing" textLength="84" x="828.5" y="479.3181">tools_macros</text><rect fill="#FFFF00" height="35.0841" rx="12.5" ry="12.5" style="stroke:#181818;stroke-width:0.5;" width="97" x="733" y="82.09"/><text fill="#000000" font-family="Hasklig" font-size="12" lengthAdjust="spacing" textLength="77" x="743" y="103.8981">tools_debug</text><rect fill="#FFFF00" height="35.0841" rx="12.5" ry="12.5" style="stroke:#181818;stroke-width:0.5;" width="111" x="985" y="307.34"/><text fill="#000000" font-family="Hasklig" font-size="12" lengthAdjust="spacing" textLength="91" x="995" y="329.1481">select_novice</text><rect fill="#00FF00" height="35.0841" rx="12.5" ry="12.5" style="stroke:#181818;stroke-width:0.5;" width="132" x="570.5" y="457.51"/><text fill="#000000" font-family="Hasklig" font-size="12" lengthAdjust="spacing" textLength="112" x="580.5" y="479.3181">functions_novice</text><rect fill="#FFFF00" height="35.0841" rx="12.5" ry="12.5" style="stroke:#181818;stroke-width:0.5;" width="125" x="703" y="532.59"/><text fill="#000000" font-family="Hasklig" font-size="12" lengthAdjust="spacing" textLength="105" x="713" y="554.3981">select_advanced</text><rect fill="#FFFF00" height="35.0841" rx="12.5" ry="12.5" style="stroke:#181818;stroke-width:0.5;" width="111" x="690" y="382.42"/><text fill="#000000" font-family="Hasklig" font-size="12" lengthAdjust="spacing" textLength="91" x="700" y="404.2281">select_expert</text><rect fill="#00FF00" height="35.0841" rx="12.5" ry="12.5" style="stroke:#181818;stroke-width:0.5;" width="139" x="369" y="532.59"/><text fill="#000000" font-family="Hasklig" font-size="12" lengthAdjust="spacing" textLength="119" x="379" y="554.3981">function_advanced</text><rect fill="#00FF00" height="35.0841" rx="12.5" ry="12.5" style="stroke:#181818;stroke-width:0.5;" width="125" x="942" y="457.51"/><text fill="#000000" font-family="Hasklig" font-size="12" lengthAdjust="spacing" textLength="105" x="952" y="479.3181">repeat_advanced</text><rect fill="#00FF00" height="35.0841" rx="12.5" ry="12.5" style="stroke:#181818;stroke-width:0.5;" width="90" x="1052.5" y="607.67"/><text fill="#000000" font-family="Hasklig" font-size="12" lengthAdjust="spacing" textLength="70" x="1062.5" y="629.4781">tools_rand</text><rect fill="#00FF00" height="35.0841" rx="12.5" ry="12.5" style="stroke:#181818;stroke-width:0.5;" width="111" x="1016" y="682.76"/><text fill="#000000" font-family="Hasklig" font-size="12" lengthAdjust="spacing" textLength="91" x="1026" y="704.5681">game_zero_cem</text><rect fill="#00FF00" height="35.0841" rx="12.5" ry="12.5" style="stroke:#181818;stroke-width:0.5;" width="104" x="442.5" y="232.25"/><text fill="#000000" font-family="Hasklig" font-size="12" lengthAdjust="spacing" textLength="84" x="452.5" y="254.0581">io_argc_argv</text><rect fill="#00FF00" height="35.0841" rx="12.5" ry="12.5" style="stroke:#181818;stroke-width:0.5;" width="104" x="889.5" y="532.59"/><text fill="#000000" font-family="Hasklig" font-size="12" lengthAdjust="spacing" textLength="84" x="899.5" y="554.3981">array_novice</text><rect fill="#00FF00" height="35.0841" rx="12.5" ry="12.5" style="stroke:#181818;stroke-width:0.5;" width="118" x="706.5" y="607.67"/><text fill="#000000" font-family="Hasklig" font-size="12" lengthAdjust="spacing" textLength="98" x="716.5" y="629.4781">array_advanced</text><rect fill="#00FF00" height="35.0841" rx="12.5" ry="12.5" style="stroke:#181818;stroke-width:0.5;" width="118" x="835.5" y="682.76"/><text fill="#000000" font-family="Hasklig" font-size="12" lengthAdjust="spacing" textLength="98" x="845.5" y="704.5681">game_blackjack</text><rect fill="#00FF00" height="35.0841" rx="12.5" ry="12.5" style="stroke:#181818;stroke-width:0.5;" width="104" x="711.5" y="682.76"/><text fill="#000000" font-family="Hasklig" font-size="12" lengthAdjust="spacing" textLength="84" x="721.5" y="704.5681">array_expert</text><rect fill="#00FF00" height="35.0841" rx="12.5" ry="12.5" style="stroke:#181818;stroke-width:0.5;" width="125" x="368" y="757.84"/><text fill="#000000" font-family="Hasklig" font-size="12" lengthAdjust="spacing" textLength="105" x="378" y="779.6481">string_advanced</text><rect fill="#00FF00" height="35.0841" rx="12.5" ry="12.5" style="stroke:#181818;stroke-width:0.5;" width="125" x="334" y="607.67"/><text fill="#000000" font-family="Hasklig" font-size="12" lengthAdjust="spacing" textLength="105" x="344" y="629.4781">pointers_novice</text><rect fill="#00FF00" height="35.0841" rx="12.5" ry="12.5" style="stroke:#181818;stroke-width:0.5;" width="111" x="375" y="832.93"/><text fill="#000000" font-family="Hasklig" font-size="12" lengthAdjust="spacing" textLength="91" x="385" y="854.7381">string_expert</text><rect fill="#00FF00" height="35.0841" rx="12.5" ry="12.5" style="stroke:#181818;stroke-width:0.5;" width="118" x="564.5" y="532.59"/><text fill="#000000" font-family="Hasklig" font-size="12" lengthAdjust="spacing" textLength="98" x="574.5" y="554.3981">structs_novice</text><rect fill="#00FF00" height="35.0841" rx="12.5" ry="12.5" style="stroke:#181818;stroke-width:0.5;" width="111" x="906" y="607.67"/><text fill="#000000" font-family="Hasklig" font-size="12" lengthAdjust="spacing" textLength="91" x="916" y="629.4781">matrix_novice</text><rect fill="#00FF00" height="35.0841" rx="12.5" ry="12.5" style="stroke:#181818;stroke-width:0.5;" width="125" x="913" y="757.84"/><text fill="#000000" font-family="Hasklig" font-size="12" lengthAdjust="spacing" textLength="105" x="923" y="779.6481">matrix_advanced</text><rect fill="#00FF00" height="35.0841" rx="12.5" ry="12.5" style="stroke:#181818;stroke-width:0.5;" width="132" x="559.5" y="682.76"/><text fill="#000000" font-family="Hasklig" font-size="12" lengthAdjust="spacing" textLength="112" x="569.5" y="704.5681">structs_advanced</text><rect fill="#00FF00" height="35.0841" rx="12.5" ry="12.5" style="stroke:#181818;stroke-width:0.5;" width="125" x="1025" y="832.93"/><text fill="#000000" font-family="Hasklig" font-size="12" lengthAdjust="spacing" textLength="105" x="1035" y="854.7381">game_jogodavida</text><rect fill="#00FF00" height="35.0841" rx="12.5" ry="12.5" style="stroke:#181818;stroke-width:0.5;" width="111" x="1058" y="757.84"/><text fill="#000000" font-family="Hasklig" font-size="12" lengthAdjust="spacing" textLength="91" x="1068" y="779.6481">game_cobrinha</text><rect fill="#00FF00" height="35.0841" rx="12.5" ry="12.5" style="stroke:#181818;stroke-width:0.5;" width="48" x="1128.5" y="382.42"/><text fill="#000000" font-family="Hasklig" font-size="12" lengthAdjust="spacing" textLength="28" x="1138.5" y="404.2281">enum</text><rect fill="#00FF00" height="35.0841" rx="12.5" ry="12.5" style="stroke:#181818;stroke-width:0.5;" width="139" x="89" y="682.76"/><text fill="#000000" font-family="Hasklig" font-size="12" lengthAdjust="spacing" textLength="119" x="99" y="704.5681">pointers_advanced</text><rect fill="#00FF00" height="35.0841" rx="12.5" ry="12.5" style="stroke:#181818;stroke-width:0.5;" width="111" x="252" y="682.76"/><text fill="#000000" font-family="Hasklig" font-size="12" lengthAdjust="spacing" textLength="91" x="262" y="704.5681">memory_novice</text><rect fill="#00FF00" height="35.0841" rx="12.5" ry="12.5" style="stroke:#181818;stroke-width:0.5;" width="125" x="223" y="757.84"/><text fill="#000000" font-family="Hasklig" font-size="12" lengthAdjust="spacing" textLength="105" x="233" y="779.6481">memory_advanced</text><rect fill="#00FF00" height="35.0841" rx="12.5" ry="12.5" style="stroke:#181818;stroke-width:0.5;" width="104" x="99.5" y="757.84"/><text fill="#000000" font-family="Hasklig" font-size="12" lengthAdjust="spacing" textLength="84" x="109.5" y="779.6481">files_novice</text><rect fill="#00FF00" height="35.0841" rx="12.5" ry="12.5" style="stroke:#181818;stroke-width:0.5;" width="118" x="92.5" y="832.93"/><text fill="#000000" font-family="Hasklig" font-size="12" lengthAdjust="spacing" textLength="98" x="102.5" y="854.7381">files_advanced</text><ellipse cx="627.5" cy="775.38" fill="none" rx="11" ry="11" style="stroke:#222222;stroke-width:1.0;"/><ellipse cx="627.5" cy="775.38" fill="#222222" rx="6" ry="6" style="stroke:#222222;stroke-width:1.0;"/><!--link tools_basic to tools_bash--><g id="link_tools_basic_tools_bash"><path d="M512.71,36.09 C447.36,50.22 338.1345,73.8422 274.6245,87.5722 " fill="none" id="tools_basic-to-tools_bash" style="stroke:#181818;stroke-width:1.0;"/><polygon fill="#181818" points="268.76,88.84,278.402,90.8479,273.6471,87.7835,276.7116,83.0286,268.76,88.84" style="stroke:#181818;stroke-width:1.0;"/></g><!--link tools_bash to tools_local_ide--><g id="link_tools_bash_tools_local_ide"><path d="M187.78,117.58 C162.99,129.34 135.5201,142.3765 110.7101,154.1565 " fill="none" id="tools_bash-to-tools_local_ide" style="stroke:#181818;stroke-width:1.0;"/><polygon fill="#181818" points="105.29,156.73,115.1358,156.4831,109.8067,154.5854,111.7044,149.2564,105.29,156.73" style="stroke:#181818;stroke-width:1.0;"/></g><!--link tools_basic to tools_makefile--><g id="link_tools_basic_tools_makefile"><path d="M532.04,42.49 C511.53,54.3 489.4799,66.9865 468.9999,78.7765 " fill="none" id="tools_basic-to-tools_makefile" style="stroke:#181818;stroke-width:1.0;"/><polygon fill="#181818" points="463.8,81.77,473.5955,80.7464,468.1333,79.2754,469.6042,73.8132,463.8,81.77" style="stroke:#181818;stroke-width:1.0;"/></g><!--link tools_basic to types_basic--><g id="link_tools_basic_types_basic"><path d="M561.5,42.49 C561.5,54.3 561.5,63.98 561.5,75.77 " fill="none" id="tools_basic-to-types_basic" style="stroke:#181818;stroke-width:1.0;"/><polygon fill="#181818" points="561.5,81.77,565.5,72.77,561.5,76.77,557.5,72.77,561.5,81.77" style="stroke:#181818;stroke-width:1.0;"/></g><!--link io_basic to string_basic--><g id="link_io_basic_string_basic"><path d="M962.66,267.75 C952.32,279.55 942.5318,290.7153 932.2118,302.5053 " fill="none" id="io_basic-to-string_basic" style="stroke:#181818;stroke-width:1.0;"/><polygon fill="#181818" points="928.26,307.02,937.1976,302.8824,931.5532,303.2577,931.1779,297.6133,928.26,307.02" style="stroke:#181818;stroke-width:1.0;"/></g><!--link types_basic to style_guide--><g id="link_types_basic_style_guide"><path d="M577.04,117.58 C587.86,129.38 598.1853,140.6474 608.9853,152.4274 " fill="none" id="types_basic-to-style_guide" style="stroke:#181818;stroke-width:1.0;"/><polygon fill="#181818" points="613.04,156.85,609.9064,147.513,609.6611,153.1645,604.0096,152.9192,613.04,156.85" style="stroke:#181818;stroke-width:1.0;"/></g><!--link types_basic to style_indentation--><g id="link_types_basic_style_indentation"><path d="M609.05,117.58 C642.05,129.34 680.1889,142.9339 713.2089,154.7139 " fill="none" id="types_basic-to-style_indentation" style="stroke:#181818;stroke-width:1.0;"/><polygon fill="#181818" points="718.86,156.73,711.7273,149.9385,714.1507,155.0499,709.0392,157.4733,718.86,156.73" style="stroke:#181818;stroke-width:1.0;"/></g><!--link types_basic to types_modifiers--><g id="link_types_basic_types_modifiers"><path d="M512.54,114.95 C509.49,115.73 506.46,116.48 503.5,117.17 C408.01,139.53 382.53,137.3 286.5,157.17 C283.49,157.79 286.2693,157.2044 283.1593,157.8644 " fill="none" id="types_basic-to-types_modifiers" style="stroke:#181818;stroke-width:1.0;"/><polygon fill="#181818" points="277.29,159.11,286.9243,161.1545,282.1811,158.072,285.2636,153.3288,277.29,159.11" style="stroke:#181818;stroke-width:1.0;"/></g><!--link types_basic to types_casting--><g id="link_types_basic_types_casting"><path d="M513.03,117.58 C479.38,129.34 440.4034,142.9686 406.7334,154.7486 " fill="none" id="types_basic-to-types_casting" style="stroke:#181818;stroke-width:1.0;"/><polygon fill="#181818" points="401.07,156.73,410.886,157.5334,405.7895,155.0788,408.2441,149.9823,401.07,156.73" style="stroke:#181818;stroke-width:1.0;"/></g><!--link types_basic to types_conversion--><g id="link_types_basic_types_conversion"><path d="M545.96,117.58 C535.14,129.38 524.8147,140.6474 514.0147,152.4274 " fill="none" id="types_basic-to-types_conversion" style="stroke:#181818;stroke-width:1.0;"/><polygon fill="#181818" points="509.96,156.85,518.9904,152.9192,513.3389,153.1645,513.0936,147.513,509.96,156.85" style="stroke:#181818;stroke-width:1.0;"/></g><!--link types_basic to types_operations--><g id="link_types_basic_types_operations"><path d="M610.46,114.97 C613.51,115.75 616.54,116.49 619.5,117.17 C719.34,140.14 745.99,137.38 846.5,157.17 C849.68,157.8 847.0514,157.2492 850.3314,157.9192 " fill="none" id="types_basic-to-types_operations" style="stroke:#181818;stroke-width:1.0;"/><polygon fill="#181818" points="856.21,159.12,848.1926,153.3997,851.3112,158.1193,846.5915,161.2379,856.21,159.12" style="stroke:#181818;stroke-width:1.0;"/></g><!--link tools_tko to types_operations--><g id="link_tools_tko_types_operations"><path d="M713.47,114.1 C716.86,115.15 720.23,116.19 723.5,117.17 C769.41,130.99 815.7807,144.1576 855.1707,155.1476 " fill="none" id="tools_tko-to-types_operations" style="stroke:#181818;stroke-width:1.0;"/><polygon fill="#181818" points="860.95,156.76,853.3561,150.4885,856.1339,155.4163,851.2061,158.1942,860.95,156.76" style="stroke:#181818;stroke-width:1.0;"/></g><!--link types_operations to tools_math.h--><g id="link_types_operations_tools_math.h"><path d="M909.74,192.66 C900.86,204.47 892.6672,215.3554 883.7972,227.1454 " fill="none" id="types_operations-to-tools_math.h" style="stroke:#181818;stroke-width:1.0;"/><polygon fill="#181818" points="880.19,231.94,888.7971,227.1528,883.196,227.9445,882.4043,222.3433,880.19,231.94" style="stroke:#181818;stroke-width:1.0;"/></g><!--link types_operations to io_basic--><g id="link_types_operations_io_basic"><path d="M935.26,192.66 C944.14,204.47 952.3328,215.3554 961.2028,227.1454 " fill="none" id="types_operations-to-io_basic" style="stroke:#181818;stroke-width:1.0;"/><polygon fill="#181818" points="964.81,231.94,962.5957,222.3433,961.804,227.9445,956.2029,227.1528,964.81,231.94" style="stroke:#181818;stroke-width:1.0;"/></g><!--link string_novice to io_string--><g id="link_string_novice_io_string"><path d="M499.97,718.25 C511.44,730.06 522.4899,741.4358 533.9399,753.2258 " fill="none" id="string_novice-to-io_string" style="stroke:#181818;stroke-width:1.0;"/><polygon fill="#181818" points="538.12,757.53,534.7193,748.2869,534.6366,753.9431,528.9803,753.8604,538.12,757.53" style="stroke:#181818;stroke-width:1.0;"/></g><!--link repeat_novice to io_error--><g id="link_repeat_novice_io_error"><path d="M888.77,417.91 C861.69,429.76 831.1969,443.105 804.2269,454.905 " fill="none" id="repeat_novice-to-io_error" style="stroke:#181818;stroke-width:1.0;"/><polygon fill="#181818" points="798.73,457.31,808.5787,457.3671,803.3107,455.3058,805.372,450.0379,798.73,457.31" style="stroke:#181818;stroke-width:1.0;"/></g><!--link repeat_novice to tools_macros--><g id="link_repeat_novice_tools_macros"><path d="M914.28,417.91 C905.07,429.72 896.5286,440.6678 887.3386,452.4578 " fill="none" id="repeat_novice-to-tools_macros" style="stroke:#181818;stroke-width:1.0;"/><polygon fill="#181818" points="883.65,457.19,892.3378,452.5508,886.7239,453.2465,886.0282,447.6326,883.65,457.19" style="stroke:#181818;stroke-width:1.0;"/></g><!--link tools_basic to tools_tko--><g id="link_tools_basic_tools_tko"><path d="M587.01,42.49 C604.78,54.3 623.3929,66.659 641.1329,78.449 " fill="none" id="tools_basic-to-tools_tko" style="stroke:#181818;stroke-width:1.0;"/><polygon fill="#181818" points="646.13,81.77,640.8484,73.4571,641.9658,79.0025,636.4204,80.1198,646.13,81.77" style="stroke:#181818;stroke-width:1.0;"/></g><!--link tools_basic to tools_debug--><g id="link_tools_basic_tools_debug"><path d="M610.33,41.76 C646.78,53.87 690.696,68.4583 727.116,80.5583 " fill="none" id="tools_basic-to-tools_debug" style="stroke:#181818;stroke-width:1.0;"/><polygon fill="#181818" points="732.81,82.45,725.5302,75.8164,728.065,80.8736,723.0079,83.4084,732.81,82.45" style="stroke:#181818;stroke-width:1.0;"/></g><!--link io_basic to select_novice--><g id="link_io_basic_select_novice"><path d="M992.11,267.75 C1002.29,279.55 1011.8932,290.6848 1022.0532,302.4748 " fill="none" id="io_basic-to-select_novice" style="stroke:#181818;stroke-width:1.0;"/><polygon fill="#181818" points="1025.97,307.02,1023.1249,297.591,1022.706,303.2323,1017.0647,302.8134,1025.97,307.02" style="stroke:#181818;stroke-width:1.0;"/></g><!--link functions_novice to select_advanced--><g id="link_functions_novice_select_advanced"><path d="M666.42,493 C687.26,504.81 709.7191,517.5332 730.5191,529.3132 " fill="none" id="functions_novice-to-select_advanced" style="stroke:#181818;stroke-width:1.0;"/><polygon fill="#181818" points="735.74,532.27,729.8799,524.3542,731.3893,529.806,725.9375,531.3154,735.74,532.27" style="stroke:#181818;stroke-width:1.0;"/></g><!--link select_novice to select_expert--><g id="link_select_novice_select_expert"><path d="M984.84,340.08 C981.68,340.87 978.55,341.66 975.5,342.42 C916.06,357.29 853.7287,372.5766 807.1287,383.9566 " fill="none" id="select_novice-to-select_expert" style="stroke:#181818;stroke-width:1.0;"/><polygon fill="#181818" points="801.3,385.38,810.992,387.1307,806.1573,384.1938,809.0941,379.3591,801.3,385.38" style="stroke:#181818;stroke-width:1.0;"/></g><!--link select_expert to functions_novice--><g id="link_select_expert_functions_novice"><path d="M720.22,417.91 C702.61,429.72 684.2031,442.0581 666.6231,453.8481 " fill="none" id="select_expert-to-functions_novice" style="stroke:#181818;stroke-width:1.0;"/><polygon fill="#181818" points="661.64,457.19,671.3426,455.4992,665.7926,454.4051,666.8867,448.855,661.64,457.19" style="stroke:#181818;stroke-width:1.0;"/></g><!--link functions_novice to function_advanced--><g id="link_functions_novice_function_advanced"><path d="M590.58,493 C558.7,504.76 522.0383,518.2909 490.1483,530.0709 " fill="none" id="functions_novice-to-function_advanced" style="stroke:#181818;stroke-width:1.0;"/><polygon fill="#181818" points="484.52,532.15,494.3485,532.7836,489.2102,530.4175,491.5764,525.2792,484.52,532.15" style="stroke:#181818;stroke-width:1.0;"/></g><!--link select_novice to repeat_novice--><g id="link_select_novice_repeat_novice"><path d="M1014.29,342.83 C996.04,354.64 976.8286,367.0623 958.6086,378.8423 " fill="none" id="select_novice-to-repeat_novice" style="stroke:#181818;stroke-width:1.0;"/><polygon fill="#181818" points="953.57,382.1,963.2997,380.5726,957.7688,379.3853,958.9561,373.8544,953.57,382.1" style="stroke:#181818;stroke-width:1.0;"/></g><!--link repeat_novice to repeat_advanced--><g id="link_repeat_novice_repeat_advanced"><path d="M945.36,417.91 C957.8,429.72 969.9684,441.2692 982.3884,453.0592 " fill="none" id="repeat_novice-to-repeat_advanced" style="stroke:#181818;stroke-width:1.0;"/><polygon fill="#181818" points="986.74,457.19,982.9665,448.0927,983.1137,453.7476,977.4588,453.8948,986.74,457.19" style="stroke:#181818;stroke-width:1.0;"/></g><!--link select_novice to tools_rand--><g id="link_select_novice_tools_rand"><path d="M1045.94,342.73 C1053.77,367.6 1068.19,415.68 1076.5,457.51 C1087.3,511.87 1093.1345,571.3913 1095.6845,601.5513 " fill="none" id="select_novice-to-tools_rand" style="stroke:#181818;stroke-width:1.0;"/><polygon fill="#181818" points="1096.19,607.53,1099.4175,598.225,1095.7688,602.5478,1091.446,598.899,1096.19,607.53" style="stroke:#181818;stroke-width:1.0;"/></g><!--link tools_rand to game_zero_cem--><g id="link_tools_rand_game_zero_cem"><path d="M1091.47,643.17 C1087.27,654.97 1083.6992,664.9964 1079.5092,676.7864 " fill="none" id="tools_rand-to-game_zero_cem" style="stroke:#181818;stroke-width:1.0;"/><polygon fill="#181818" points="1077.5,682.44,1084.2829,675.2991,1079.1743,677.7287,1076.7447,672.6201,1077.5,682.44" style="stroke:#181818;stroke-width:1.0;"/></g><!--link functions_novice to game_zero_cem--><g id="link_functions_novice_game_zero_cem"><path d="M702.96,491.97 C757.26,505.44 826.74,523.88 837.5,532.59 C880.52,567.39 853.13,607.17 895.5,642.76 C929.54,671.34 972.3621,684.4477 1009.9221,691.4677 " fill="none" id="functions_novice-to-game_zero_cem" style="stroke:#181818;stroke-width:1.0;"/><polygon fill="#181818" points="1015.82,692.57,1007.7081,686.9846,1010.9051,691.6514,1006.2383,694.8484,1015.82,692.57" style="stroke:#181818;stroke-width:1.0;"/></g><!--link types_conversion to io_argc_argv--><g id="link_types_conversion_io_argc_argv"><path d="M494.5,192.66 C494.5,204.47 494.5,214.15 494.5,225.94 " fill="none" id="types_conversion-to-io_argc_argv" style="stroke:#181818;stroke-width:1.0;"/><polygon fill="#181818" points="494.5,231.94,498.5,222.94,494.5,226.94,490.5,222.94,494.5,231.94" style="stroke:#181818;stroke-width:1.0;"/></g><!--link repeat_advanced to array_novice--><g id="link_repeat_advanced_array_novice"><path d="M989.89,493 C979.71,504.81 970.1087,515.9465 959.9487,527.7265 " fill="none" id="repeat_advanced-to-array_novice" style="stroke:#181818;stroke-width:1.0;"/><polygon fill="#181818" points="956.03,532.27,964.9371,528.0672,959.2956,528.4837,958.879,522.8422,956.03,532.27" style="stroke:#181818;stroke-width:1.0;"/></g><!--link functions_novice to array_novice--><g id="link_functions_novice_array_novice"><path d="M702.96,491.67 C750.72,502.94 816.61,518.57 874.5,532.59 C879.27,533.75 878.4103,533.5407 883.3803,534.7507 " fill="none" id="functions_novice-to-array_novice" style="stroke:#181818;stroke-width:1.0;"/><polygon fill="#181818" points="889.21,536.17,881.4116,530.1546,884.3519,534.9872,879.5192,537.9275,889.21,536.17" style="stroke:#181818;stroke-width:1.0;"/></g><!--link array_novice to array_advanced--><g id="link_array_novice_array_advanced"><path d="M900.68,568.08 C872.35,579.85 840.2914,593.1594 811.9414,604.9294 " fill="none" id="array_novice-to-array_advanced" style="stroke:#181818;stroke-width:1.0;"/><polygon fill="#181818" points="806.4,607.23,816.2459,607.4734,811.0178,605.3128,813.1784,600.0848,806.4,607.23" style="stroke:#181818;stroke-width:1.0;"/></g><!--link tools_rand to game_blackjack--><g id="link_tools_rand_game_blackjack"><path d="M1052.2,642.53 C1019.36,654.35 980.715,668.2568 947.425,680.2468 " fill="none" id="tools_rand-to-game_blackjack" style="stroke:#181818;stroke-width:1.0;"/><polygon fill="#181818" points="941.78,682.28,951.603,682.9936,946.4842,680.5857,948.8921,675.4669,941.78,682.28" style="stroke:#181818;stroke-width:1.0;"/></g><!--link array_advanced to game_blackjack--><g id="link_array_advanced_game_blackjack"><path d="M795.42,643.17 C816.26,654.97 838.7202,667.6913 859.5202,679.4813 " fill="none" id="array_advanced-to-game_blackjack" style="stroke:#181818;stroke-width:1.0;"/><polygon fill="#181818" points="864.74,682.44,858.8828,674.5221,860.3902,679.9744,854.9379,681.4818,864.74,682.44" style="stroke:#181818;stroke-width:1.0;"/></g><!--link array_advanced to array_expert--><g id="link_array_advanced_array_expert"><path d="M765.04,643.17 C764.71,654.97 764.4428,664.6522 764.1228,676.4422 " fill="none" id="array_advanced-to-array_expert" style="stroke:#181818;stroke-width:1.0;"/><polygon fill="#181818" points="763.96,682.44,768.2027,673.5518,764.0957,677.4418,760.2057,673.3348,763.96,682.44" style="stroke:#181818;stroke-width:1.0;"/></g><!--link array_advanced to string_novice--><g id="link_array_advanced_string_novice"><path d="M706.04,641.63 C656.75,654.4 593.0282,670.9152 544.8582,683.3952 " fill="none" id="array_advanced-to-string_novice" style="stroke:#181818;stroke-width:1.0;"/><polygon fill="#181818" points="539.05,684.9,548.7656,686.5149,543.8902,683.646,546.7591,678.7706,539.05,684.9" style="stroke:#181818;stroke-width:1.0;"/></g><!--link string_novice to string_advanced--><g id="link_string_novice_string_advanced"><path d="M471.21,718.25 C462.65,730.06 454.7897,740.8808 446.2497,752.6708 " fill="none" id="string_novice-to-string_advanced" style="stroke:#181818;stroke-width:1.0;"/><polygon fill="#181818" points="442.73,757.53,451.249,752.5877,445.6631,753.4807,444.7701,747.8948,442.73,757.53" style="stroke:#181818;stroke-width:1.0;"/></g><!--link pointers_novice to string_advanced--><g id="link_pointers_novice_string_advanced"><path d="M400.37,643.1 C404.58,661.49 411.51,691.76 417.5,717.84 C420.56,731.19 422.6927,740.4732 425.2827,751.7132 " fill="none" id="pointers_novice-to-string_advanced" style="stroke:#181818;stroke-width:1.0;"/><polygon fill="#181818" points="426.63,757.56,428.507,747.8917,425.5073,752.6877,420.7113,749.688,426.63,757.56" style="stroke:#181818;stroke-width:1.0;"/></g><!--link string_advanced to string_expert--><g id="link_string_advanced_string_expert"><path d="M430.5,793.33 C430.5,805.14 430.5,814.82 430.5,826.61 " fill="none" id="string_advanced-to-string_expert" style="stroke:#181818;stroke-width:1.0;"/><polygon fill="#181818" points="430.5,832.61,434.5,823.61,430.5,827.61,426.5,823.61,430.5,832.61" style="stroke:#181818;stroke-width:1.0;"/></g><!--link function_advanced to pointers_novice--><g id="link_function_advanced_pointers_novice"><path d="M428.76,568.08 C421.97,579.89 415.9478,590.3668 409.1778,602.1568 " fill="none" id="function_advanced-to-pointers_novice" style="stroke:#181818;stroke-width:1.0;"/><polygon fill="#181818" points="406.19,607.36,414.1404,601.547,408.6798,603.024,407.2028,597.5634,406.19,607.36" style="stroke:#181818;stroke-width:1.0;"/></g><!--link functions_novice to structs_novice--><g id="link_functions_novice_structs_novice"><path d="M633.48,493 C631.38,504.81 629.653,514.5831 627.553,526.3631 " fill="none" id="functions_novice-to-structs_novice" style="stroke:#181818;stroke-width:1.0;"/><polygon fill="#181818" points="626.5,532.27,632.0174,524.1117,627.3775,527.3476,624.1416,522.7077,626.5,532.27" style="stroke:#181818;stroke-width:1.0;"/></g><!--link array_novice to matrix_novice--><g id="link_array_novice_matrix_novice"><path d="M946.14,568.08 C949.37,579.89 952.0747,589.7832 955.3047,601.5732 " fill="none" id="array_novice-to-matrix_novice" style="stroke:#181818;stroke-width:1.0;"/><polygon fill="#181818" points="956.89,607.36,958.3698,597.623,955.5689,602.5377,950.6541,599.7367,956.89,607.36" style="stroke:#181818;stroke-width:1.0;"/></g><!--link matrix_novice to matrix_advanced--><g id="link_matrix_novice_matrix_advanced"><path d="M963.11,643.21 C965.81,671.79 970.6552,723.1666 973.3452,751.6166 " fill="none" id="matrix_novice-to-matrix_advanced" style="stroke:#181818;stroke-width:1.0;"/><polygon fill="#181818" points="973.91,757.59,977.0451,748.2534,973.4393,752.6122,969.0806,749.0065,973.91,757.59" style="stroke:#181818;stroke-width:1.0;"/></g><!--link structs_advanced to matrix_advanced--><g id="link_structs_advanced_matrix_advanced"><path d="M691.81,715.78 C695.09,716.48 698.33,717.17 701.5,717.84 C773.84,733.18 851.1712,749.0701 906.7312,760.4101 " fill="none" id="structs_advanced-to-matrix_advanced" style="stroke:#181818;stroke-width:1.0;"/><polygon fill="#181818" points="912.61,761.61,904.5917,755.891,907.711,760.6101,902.9919,763.7294,912.61,761.61" style="stroke:#181818;stroke-width:1.0;"/></g><!--link tools_rand to game_jogodavida--><g id="link_tools_rand_game_jogodavida"><path d="M1118.94,643.12 C1130.84,653.46 1145.09,667.6 1154.5,682.76 C1180.98,725.42 1204,749.1 1179.5,792.93 C1169.53,810.76 1156.7188,820.9415 1139.1488,829.8715 " fill="none" id="tools_rand-to-game_jogodavida" style="stroke:#181818;stroke-width:1.0;"/><polygon fill="#181818" points="1133.8,832.59,1143.6355,832.0781,1138.2573,830.3246,1140.0108,824.9463,1133.8,832.59" style="stroke:#181818;stroke-width:1.0;"/></g><!--link matrix_advanced to game_jogodavida--><g id="link_matrix_advanced_game_jogodavida"><path d="M1001.48,793.33 C1019.57,805.14 1038.5758,817.5401 1056.6358,829.3301 " fill="none" id="matrix_advanced-to-game_jogodavida" style="stroke:#181818;stroke-width:1.0;"/><polygon fill="#181818" points="1061.66,832.61,1056.3103,824.3407,1057.4732,829.8768,1051.9371,831.0396,1061.66,832.61" style="stroke:#181818;stroke-width:1.0;"/></g><!--link tools_rand to game_cobrinha--><g id="link_tools_rand_game_cobrinha"><path d="M1113.59,643 C1122.52,653.51 1132.76,667.86 1137.5,682.76 C1145.67,708.46 1136.3218,733.5243 1126.5418,752.0443 " fill="none" id="tools_rand-to-game_cobrinha" style="stroke:#181818;stroke-width:1.0;"/><polygon fill="#181818" points="1123.74,757.35,1131.4798,751.2594,1126.0748,752.9286,1124.4056,747.5237,1123.74,757.35" style="stroke:#181818;stroke-width:1.0;"/></g><!--link structs_advanced to game_cobrinha--><g id="link_structs_advanced_game_cobrinha"><path d="M691.74,716.12 C695.04,716.73 698.3,717.31 701.5,717.84 C854.21,743.22 895.21,730.08 1047.5,757.84 C1050.87,758.46 1048.4512,757.892 1051.9312,758.632 " fill="none" id="structs_advanced-to-game_cobrinha" style="stroke:#181818;stroke-width:1.0;"/><polygon fill="#181818" points="1057.8,759.88,1049.8288,754.0955,1052.9093,758.84,1048.1649,761.9206,1057.8,759.88" style="stroke:#181818;stroke-width:1.0;"/></g><!--link select_novice to enum--><g id="link_select_novice_enum"><path d="M1066.48,342.83 C1085.09,354.97 1104.9553,367.941 1123.1753,379.831 " fill="none" id="select_novice-to-enum" style="stroke:#181818;stroke-width:1.0;"/><polygon fill="#181818" points="1128.2,383.11,1122.8489,374.8416,1124.0127,380.3775,1118.4769,381.5413,1128.2,383.11" style="stroke:#181818;stroke-width:1.0;"/></g><!--link pointers_novice to pointers_advanced--><g id="link_pointers_novice_pointers_advanced"><path d="M341.3,643.17 C302.99,654.93 257.8858,668.7792 219.5458,680.5492 " fill="none" id="pointers_novice-to-pointers_advanced" style="stroke:#181818;stroke-width:1.0;"/><polygon fill="#181818" points="213.81,682.31,223.5876,683.4926,218.5898,680.8426,221.2398,675.8449,213.81,682.31" style="stroke:#181818;stroke-width:1.0;"/></g><!--link pointers_novice to memory_novice--><g id="link_pointers_novice_memory_novice"><path d="M375.86,643.17 C361.48,654.97 347.016,666.8411 332.666,678.6311 " fill="none" id="pointers_novice-to-memory_novice" style="stroke:#181818;stroke-width:1.0;"/><polygon fill="#181818" points="328.03,682.44,337.5232,679.8173,331.8933,679.2659,332.4447,673.636,328.03,682.44" style="stroke:#181818;stroke-width:1.0;"/></g><!--link memory_novice to memory_advanced--><g id="link_memory_novice_memory_advanced"><path d="M302.4,718.25 C298.84,730.06 295.8499,739.9948 292.2999,751.7848 " fill="none" id="memory_novice-to-memory_advanced" style="stroke:#181818;stroke-width:1.0;"/><polygon fill="#181818" points="290.57,757.53,296.995,750.0654,292.0116,752.7423,289.3347,747.7589,290.57,757.53" style="stroke:#181818;stroke-width:1.0;"/></g><!--link pointers_advanced to files_novice--><g id="link_pointers_advanced_files_novice"><path d="M156.88,718.25 C155.75,730.06 154.8124,739.7674 153.6824,751.5574 " fill="none" id="pointers_advanced-to-files_novice" style="stroke:#181818;stroke-width:1.0;"/><polygon fill="#181818" points="153.11,757.53,157.9504,748.9527,153.587,752.5528,149.9869,748.1894,153.11,757.53" style="stroke:#181818;stroke-width:1.0;"/></g><!--link files_novice to files_advanced--><g id="link_files_novice_files_advanced"><path d="M151.5,793.33 C151.5,805.14 151.5,814.82 151.5,826.61 " fill="none" id="files_novice-to-files_advanced" style="stroke:#181818;stroke-width:1.0;"/><polygon fill="#181818" points="151.5,832.61,155.5,823.61,151.5,827.61,147.5,823.61,151.5,832.61" style="stroke:#181818;stroke-width:1.0;"/></g><!--link pointers_novice to structs_advanced--><g id="link_pointers_novice_structs_advanced"><path d="M449.61,643.17 C486.48,654.93 529.6739,668.7162 566.5639,680.4862 " fill="none" id="pointers_novice-to-structs_advanced" style="stroke:#181818;stroke-width:1.0;"/><polygon fill="#181818" points="572.28,682.31,564.9217,675.7636,567.5166,680.7902,562.49,683.3851,572.28,682.31" style="stroke:#181818;stroke-width:1.0;"/></g><!--link array_novice to structs_advanced--><g id="link_array_novice_structs_advanced"><path d="M889.08,559 C826.98,569.03 727.98,587.53 696.5,607.67 C667.17,626.44 647.9069,656.3984 636.6469,677.2884 " fill="none" id="array_novice-to-structs_advanced" style="stroke:#181818;stroke-width:1.0;"/><polygon fill="#181818" points="633.8,682.57,641.5914,676.5455,636.1724,678.1687,634.5492,672.7497,633.8,682.57" style="stroke:#181818;stroke-width:1.0;"/></g><!--link structs_novice to structs_advanced--><g id="link_structs_novice_structs_advanced"><path d="M623.73,568.13 C624.12,596.71 624.8099,648.0505 625.1899,676.5005 " fill="none" id="structs_novice-to-structs_advanced" style="stroke:#181818;stroke-width:1.0;"/><polygon fill="#181818" points="625.27,682.5,629.1494,673.4474,625.2032,677.5004,621.1502,673.5542,625.27,682.5" style="stroke:#181818;stroke-width:1.0;"/></g><!--link structs_advanced to end--><g id="link_structs_advanced_end"><path d="M625.96,718.25 C626.35,732.42 626.7237,746.1723 627.0537,758.0723 " fill="none" id="structs_advanced-to-end" style="stroke:#181818;stroke-width:1.0;"/><polygon fill="#181818" points="627.22,764.07,630.969,754.9626,627.0814,759.0719,622.9721,755.1843,627.22,764.07" style="stroke:#181818;stroke-width:1.0;"/></g><!--SRC=[bPPBSkCW48RtFeMgifcPgimHifoQrLn1rOQsJ8He5o0bdjD7HWyBgP78mbxyV3H_Fw3aQcLkOA4f95wWrVuF6VyF6Yp-WgkrgawUIBlo34w9uaMhVkNrzQsOrMlnSaUjwUEqbHQa9W6wL1AtE1EtWHelIX_2znj6wadH1dBUAbD5r6RV2DurbbKRJ1vooaWq7hmYiqiFQaDINHHQzyneXnRWVEyvZoNJzN63ZGoSRcY3QJUv3fNrDMMWh1orpLz_NrS-M3xkqsdiaQ5E2OonOMcEQV66u5aIhILx24vEXIMNDOjpQNOfYUVswP8RGzGeddv6yD8Q4MgpDJfk0Dc14IZdBMoWvGxyx2lkrtoi1fu_VC_JjBHmDVGlwObfGx8revuTUwYy1IEZ1Zs5G5NzOrR-HqkbmEOuHGvFtRHfyi1Mul7NnGd6YGGOh8LxThaPUYijo5NbqkKuQn3rU_-BeZ9-lqSF2zEaxRFCbKy-0wE-Ikz6olY-8Raygoxvo7XYr0FFdhnxbxrjXNTPhUmVKQi-OvJHbkmsqN0QuvpVa1wKTwf8GgSan4vIexBXqw45dVkgN-7OD8idNmKqRNCu8VDAzamrs91TNKP6MxAfs4oAZu-TzJXjf0NvdQl0b3KrUmcQ6zySVfOVx8zVFxy0]--></g></svg>