<?xml version="1.0" encoding="us-ascii" standalone="no"?><svg xmlns="http://www.w3.org/2000/svg" xmlns:xlink="http://www.w3.org/1999/xlink" contentStyleType="text/css" height="889px" preserveAspectRatio="none" style="width:1230px;height:889px;background:#FFFFFF;" version="1.1" viewBox="0 0 1230 889" width="1230px" zoomAndPan="magnify"><defs/><g><rect fill="#00FF00" height="36.3441" rx="12.5" ry="12.5" style="stroke:#181818;stroke-width:0.5;" width="99" x="753.5" y="7"/><text fill="#000000" font-family="sans-serif" font-size="12" lengthAdjust="spacing" textLength="79" x="763.5" y="29.8281">tools_basic (0)</text><rect fill="#FFC0CB" height="36.3441" rx="12.5" ry="12.5" style="stroke:#181818;stroke-width:0.5;" width="97" x="497.5" y="83.35"/><a href="http://google.com" target="_top" title="http://google.com" xlink:actuate="onRequest" xlink:href="http://google.com" xlink:show="new" xlink:title="http://google.com" xlink:type="simple"><text fill="#0000FF" font-family="sans-serif" font-size="12" lengthAdjust="spacing" text-decoration="underline" textLength="77" x="507.5" y="106.1781">tools_bash (1)</text></a><rect fill="#FFC0CB" height="36.3441" rx="12.5" ry="12.5" style="stroke:#181818;stroke-width:0.5;" width="97" x="1116.5" y="7"/><text fill="#000000" font-family="sans-serif" font-size="12" lengthAdjust="spacing" textLength="77" x="1126.5" y="29.8281">tools_bash (1)</text><rect fill="#FFC0CB" height="36.3441" rx="12.5" ry="12.5" style="stroke:#181818;stroke-width:0.5;" width="118" x="1106" y="83.35"/><text fill="#000000" font-family="sans-serif" font-size="12" lengthAdjust="spacing" textLength="98" x="1116" y="106.1781">tools_local_ide (2)</text><rect fill="#FFC0CB" height="36.3441" rx="12.5" ry="12.5" style="stroke:#181818;stroke-width:0.5;" width="118" x="614" y="83.35"/><text fill="#000000" font-family="sans-serif" font-size="12" lengthAdjust="spacing" textLength="98" x="624" y="106.1781">tools_makefile (3)</text><rect fill="#00FF00" height="36.3441" rx="12.5" ry="12.5" style="stroke:#181818;stroke-width:0.5;" width="102" x="752" y="83.35"/><text fill="#000000" font-family="sans-serif" font-size="12" lengthAdjust="spacing" textLength="82" x="762" y="106.1781">types_basic (7)</text><rect fill="#00FF00" height="36.3441" rx="12.5" ry="12.5" style="stroke:#181818;stroke-width:0.5;" width="100" x="478" y="236.03"/><text fill="#000000" font-family="sans-serif" font-size="12" lengthAdjust="spacing" textLength="80" x="488" y="258.8581">style_guide (1)</text><rect fill="#00FF00" height="36.3441" rx="12.5" ry="12.5" style="stroke:#181818;stroke-width:0.5;" width="132" x="598" y="236.03"/><text fill="#000000" font-family="sans-serif" font-size="12" lengthAdjust="spacing" textLength="112" x="608" y="258.8581">style_indentation (1)</text><rect fill="#FFC0CB" height="36.3441" rx="12.5" ry="12.5" style="stroke:#181818;stroke-width:0.5;" width="126" x="601" y="159.69"/><text fill="#000000" font-family="sans-serif" font-size="12" lengthAdjust="spacing" textLength="106" x="611" y="182.5181">types_modifiers (1)</text><rect fill="#FFC0CB" height="36.3441" rx="12.5" ry="12.5" style="stroke:#181818;stroke-width:0.5;" width="113" x="746.5" y="159.69"/><text fill="#000000" font-family="sans-serif" font-size="12" lengthAdjust="spacing" textLength="93" x="756.5" y="182.5181">types_casting (2)</text><rect fill="#FFC0CB" height="36.3441" rx="12.5" ry="12.5" style="stroke:#181818;stroke-width:0.5;" width="134" x="879" y="159.69"/><text fill="#000000" font-family="sans-serif" font-size="12" lengthAdjust="spacing" textLength="114" x="889" y="182.5181">types_conversion (0)</text><rect fill="#00FF00" height="36.3441" rx="12.5" ry="12.5" style="stroke:#181818;stroke-width:0.5;" width="133" x="1032.5" y="159.69"/><text fill="#000000" font-family="sans-serif" font-size="12" lengthAdjust="spacing" textLength="113" x="1042.5" y="182.5181">types_operations (3)</text><rect fill="#00FF00" height="36.3441" rx="12.5" ry="12.5" style="stroke:#181818;stroke-width:0.5;" width="87" x="874.5" y="83.35"/><text fill="#000000" font-family="sans-serif" font-size="12" lengthAdjust="spacing" textLength="67" x="884.5" y="106.1781">tools_tko (1)</text><rect fill="#FFC0CB" height="36.3441" rx="12.5" ry="12.5" style="stroke:#181818;stroke-width:0.5;" width="109" x="974.5" y="236.03"/><text fill="#000000" font-family="sans-serif" font-size="12" lengthAdjust="spacing" textLength="89" x="984.5" y="258.8581">tools_math.h (1)</text><rect fill="#00FF00" height="36.3441" rx="12.5" ry="12.5" style="stroke:#181818;stroke-width:0.5;" width="82" x="1104" y="236.03"/><text fill="#000000" font-family="sans-serif" font-size="12" lengthAdjust="spacing" textLength="62" x="1114" y="258.8581">io_basic (6)</text><rect fill="#00FF00" height="36.3441" rx="12.5" ry="12.5" style="stroke:#181818;stroke-width:0.5;" width="111" x="226.5" y="694.1"/><text fill="#000000" font-family="sans-serif" font-size="12" lengthAdjust="spacing" textLength="91" x="236.5" y="716.9281">string_novice (3)</text><rect fill="#FFC0CB" height="36.3441" rx="12.5" ry="12.5" style="stroke:#181818;stroke-width:0.5;" width="85" x="239.5" y="770.44"/><text fill="#000000" font-family="sans-serif" font-size="12" lengthAdjust="spacing" textLength="65" x="249.5" y="793.2681">io_string (0)</text><rect fill="#00FF00" height="36.3441" rx="12.5" ry="12.5" style="stroke:#181818;stroke-width:0.5;" width="116" x="179" y="388.72"/><text fill="#000000" font-family="sans-serif" font-size="12" lengthAdjust="spacing" textLength="96" x="189" y="411.5481">repeat_novice (3)</text><rect fill="#FFC0CB" height="36.3441" rx="12.5" ry="12.5" style="stroke:#181818;stroke-width:0.5;" width="82" x="7" y="465.07"/><text fill="#000000" font-family="sans-serif" font-size="12" lengthAdjust="spacing" textLength="62" x="17" y="487.8981">io_error (0)</text><rect fill="#FFC0CB" height="36.3441" rx="12.5" ry="12.5" style="stroke:#181818;stroke-width:0.5;" width="112" x="109" y="465.07"/><text fill="#000000" font-family="sans-serif" font-size="12" lengthAdjust="spacing" textLength="92" x="119" y="487.8981">tools_macros (0)</text><rect fill="#00FF00" height="36.3441" rx="12.5" ry="12.5" style="stroke:#181818;stroke-width:0.5;" width="119" x="604.5" y="312.38"/><text fill="#000000" font-family="sans-serif" font-size="12" lengthAdjust="spacing" textLength="99" x="614.5" y="335.2081">select_novice (10)</text><rect fill="#FFC0CB" height="36.3441" rx="12.5" ry="12.5" style="stroke:#181818;stroke-width:0.5;" width="105" x="981.5" y="83.35"/><text fill="#000000" font-family="sans-serif" font-size="12" lengthAdjust="spacing" textLength="85" x="991.5" y="106.1781">tools_debug (1)</text><rect fill="#00FF00" height="36.3441" rx="12.5" ry="12.5" style="stroke:#181818;stroke-width:0.5;" width="130" x="533" y="388.72"/><text fill="#000000" font-family="sans-serif" font-size="12" lengthAdjust="spacing" textLength="110" x="543" y="411.5481">functions_novice (4)</text><rect fill="#FFC0CB" height="36.3441" rx="12.5" ry="12.5" style="stroke:#181818;stroke-width:0.5;" width="130" x="437" y="465.07"/><text fill="#000000" font-family="sans-serif" font-size="12" lengthAdjust="spacing" textLength="110" x="447" y="487.8981">select_advanced (4)</text><rect fill="#FFC0CB" height="36.3441" rx="12.5" ry="12.5" style="stroke:#181818;stroke-width:0.5;" width="112" x="407" y="541.41"/><text fill="#000000" font-family="sans-serif" font-size="12" lengthAdjust="spacing" textLength="92" x="417" y="564.2381">select_expert (6)</text><rect fill="#00FF00" height="36.3441" rx="12.5" ry="12.5" style="stroke:#181818;stroke-width:0.5;" width="142" x="629" y="465.07"/><text fill="#000000" font-family="sans-serif" font-size="12" lengthAdjust="spacing" textLength="122" x="639" y="487.8981">function_advanced (4)</text><rect fill="#00FF00" height="36.3441" rx="12.5" ry="12.5" style="stroke:#181818;stroke-width:0.5;" width="134" x="241" y="465.07"/><text fill="#000000" font-family="sans-serif" font-size="12" lengthAdjust="spacing" textLength="114" x="251" y="487.8981">repeat_advanced (4)</text><rect fill="#00FF00" height="36.3441" rx="12.5" ry="12.5" style="stroke:#181818;stroke-width:0.5;" width="96" x="683" y="388.72"/><text fill="#000000" font-family="sans-serif" font-size="12" lengthAdjust="spacing" textLength="76" x="693" y="411.5481">tools_rand (3)</text><rect fill="#FFC0CB" height="36.3441" rx="12.5" ry="12.5" style="stroke:#181818;stroke-width:0.5;" width="129" x="791.5" y="465.07"/><text fill="#000000" font-family="sans-serif" font-size="12" lengthAdjust="spacing" textLength="109" x="801.5" y="487.8981">game_zero_cem (0)</text><rect fill="#FFC0CB" height="36.3441" rx="12.5" ry="12.5" style="stroke:#181818;stroke-width:0.5;" width="108" x="846" y="236.03"/><text fill="#000000" font-family="sans-serif" font-size="12" lengthAdjust="spacing" textLength="88" x="856" y="258.8581">io_argc_argv (1)</text><rect fill="#00FF00" height="36.3441" rx="12.5" ry="12.5" style="stroke:#181818;stroke-width:0.5;" width="109" x="277.5" y="541.41"/><text fill="#000000" font-family="sans-serif" font-size="12" lengthAdjust="spacing" textLength="89" x="287.5" y="564.2381">array_novice (3)</text><rect fill="#00FF00" height="36.3441" rx="12.5" ry="12.5" style="stroke:#181818;stroke-width:0.5;" width="127" x="218.5" y="617.75"/><text fill="#000000" font-family="sans-serif" font-size="12" lengthAdjust="spacing" textLength="107" x="228.5" y="640.5781">array_advanced (1)</text><rect fill="#FFC0CB" height="36.3441" rx="12.5" ry="12.5" style="stroke:#181818;stroke-width:0.5;" width="109" x="357.5" y="694.1"/><text fill="#000000" font-family="sans-serif" font-size="12" lengthAdjust="spacing" textLength="89" x="367.5" y="716.9281">array_expert (5)</text><rect fill="#FFC0CB" height="36.3441" rx="12.5" ry="12.5" style="stroke:#181818;stroke-width:0.5;" width="129" x="452.5" y="770.44"/><text fill="#000000" font-family="sans-serif" font-size="12" lengthAdjust="spacing" textLength="109" x="462.5" y="793.2681">string_advanced (0)</text><rect fill="#00FF00" height="36.3441" rx="12.5" ry="12.5" style="stroke:#181818;stroke-width:0.5;" width="125" x="676.5" y="541.41"/><text fill="#000000" font-family="sans-serif" font-size="12" lengthAdjust="spacing" textLength="105" x="686.5" y="564.2381">pointers_novice (1)</text><rect fill="#FFC0CB" height="36.3441" rx="12.5" ry="12.5" style="stroke:#181818;stroke-width:0.5;" width="111" x="461.5" y="846.79"/><text fill="#000000" font-family="sans-serif" font-size="12" lengthAdjust="spacing" textLength="91" x="471.5" y="869.6181">string_expert (1)</text><rect fill="#00FF00" height="36.3441" rx="12.5" ry="12.5" style="stroke:#181818;stroke-width:0.5;" width="117" x="539.5" y="541.41"/><text fill="#000000" font-family="sans-serif" font-size="12" lengthAdjust="spacing" textLength="97" x="549.5" y="564.2381">structs_novice (2)</text><rect fill="#00FF00" height="36.3441" rx="12.5" ry="12.5" style="stroke:#181818;stroke-width:0.5;" width="115" x="365.5" y="617.75"/><text fill="#000000" font-family="sans-serif" font-size="12" lengthAdjust="spacing" textLength="95" x="375.5" y="640.5781">matrix_novice (2)</text><rect fill="#FFC0CB" height="36.3441" rx="12.5" ry="12.5" style="stroke:#181818;stroke-width:0.5;" width="133" x="494.5" y="694.1"/><text fill="#000000" font-family="sans-serif" font-size="12" lengthAdjust="spacing" textLength="113" x="504.5" y="716.9281">matrix_advanced (2)</text><rect fill="#00FF00" height="36.3441" rx="12.5" ry="12.5" style="stroke:#181818;stroke-width:0.5;" width="135" x="500.5" y="617.75"/><text fill="#000000" font-family="sans-serif" font-size="12" lengthAdjust="spacing" textLength="115" x="510.5" y="640.5781">structs_advanced (2)</text><rect fill="#00FF00" height="36.3441" rx="12.5" ry="12.5" style="stroke:#181818;stroke-width:0.5;" width="70" x="799" y="388.72"/><text fill="#000000" font-family="sans-serif" font-size="12" lengthAdjust="spacing" textLength="50" x="809" y="411.5481">enum (2)</text><rect fill="#FFC0CB" height="36.3441" rx="12.5" ry="12.5" style="stroke:#181818;stroke-width:0.5;" width="143" x="697.5" y="617.75"/><text fill="#000000" font-family="sans-serif" font-size="12" lengthAdjust="spacing" textLength="123" x="707.5" y="640.5781">pointers_advanced (2)</text><rect fill="#FFC0CB" height="36.3441" rx="12.5" ry="12.5" style="stroke:#181818;stroke-width:0.5;" width="126" x="871" y="617.75"/><text fill="#000000" font-family="sans-serif" font-size="12" lengthAdjust="spacing" textLength="106" x="881" y="640.5781">memory_novice (0)</text><rect fill="#FFC0CB" height="36.3441" rx="12.5" ry="12.5" style="stroke:#181818;stroke-width:0.5;" width="144" x="872" y="694.1"/><text fill="#000000" font-family="sans-serif" font-size="12" lengthAdjust="spacing" textLength="124" x="882" y="716.9281">memory_advanced (2)</text><rect fill="#00FF00" height="36.3441" rx="12.5" ry="12.5" style="stroke:#181818;stroke-width:0.5;" width="102" x="708" y="694.1"/><text fill="#000000" font-family="sans-serif" font-size="12" lengthAdjust="spacing" textLength="82" x="718" y="716.9281">files_novice (1)</text><rect fill="#FFC0CB" height="36.3441" rx="12.5" ry="12.5" style="stroke:#181818;stroke-width:0.5;" width="120" x="699" y="770.44"/><text fill="#000000" font-family="sans-serif" font-size="12" lengthAdjust="spacing" textLength="100" x="709" y="793.2681">files_advanced (1)</text><ellipse cx="841" cy="712.27" fill="none" rx="11" ry="11" style="stroke:#222222;stroke-width:1.0;"/><ellipse cx="841" cy="712.27" fill="#222222" rx="6" ry="6" style="stroke:#222222;stroke-width:1.0;"/><!--link tools_basic (0) to [http://google.com tools_bash (1)]--><g id="link_tools_basic (0)_[http://google.com tools_bash (1)]"><path d="M753.08,40.39 C712.81,51.89 654.73,68.55 604,83.35 C600.98,84.23 603.6165,83.448 600.4865,84.368 " fill="none" id="tools_basic (0)-to-[http://google.com tools_bash (1)]" style="stroke:#181818;stroke-width:1.0;"/><polygon fill="#181818" points="594.73,86.06,604.4927,87.3597,599.5271,84.65,602.2367,79.6843,594.73,86.06" style="stroke:#181818;stroke-width:1.0;"/></g><!--link tools_bash (1) to tools_local_ide (2)--><g id="link_tools_bash (1)_tools_local_ide (2)"><path d="M1165,43.79 C1165,55.64 1165,65.2 1165,77.03 " fill="none" id="tools_bash (1)-to-tools_local_ide (2)" style="stroke:#181818;stroke-width:1.0;"/><polygon fill="#181818" points="1165,83.03,1169,74.03,1165,78.03,1161,74.03,1165,83.03" style="stroke:#181818;stroke-width:1.0;"/></g><!--link tools_basic (0) to tools_makefile (3)--><g id="link_tools_basic (0)_tools_makefile (3)"><path d="M772.19,43.79 C751.47,55.64 729.4674,68.2196 708.7974,80.0496 " fill="none" id="tools_basic (0)-to-tools_makefile (3)" style="stroke:#181818;stroke-width:1.0;"/><polygon fill="#181818" points="703.59,83.03,713.3881,82.0311,707.9295,80.5464,709.4143,75.0878,703.59,83.03" style="stroke:#181818;stroke-width:1.0;"/></g><!--link tools_basic (0) to types_basic (7)--><g id="link_tools_basic (0)_types_basic (7)"><path d="M803,43.79 C803,55.64 803,65.2 803,77.03 " fill="none" id="tools_basic (0)-to-types_basic (7)" style="stroke:#181818;stroke-width:1.0;"/><polygon fill="#181818" points="803,83.03,807,74.03,803,78.03,799,74.03,803,83.03" style="stroke:#181818;stroke-width:1.0;"/></g><!--link types_basic (7) to style_guide (1)--><g id="link_types_basic (7)_style_guide (1)"><path d="M751.78,117.07 C748.47,117.97 745.19,118.85 742,119.69 C670.3,138.63 638.92,114.65 580,159.69 C554.62,179.09 541.7359,208.9375 534.7859,230.1775 " fill="none" id="types_basic (7)-to-style_guide (1)" style="stroke:#181818;stroke-width:1.0;"/><polygon fill="#181818" points="532.92,235.88,539.5205,228.5702,534.4749,231.1279,531.9172,226.0823,532.92,235.88" style="stroke:#181818;stroke-width:1.0;"/></g><!--link types_basic (7) to style_indentation (1)--><g id="link_types_basic (7)_style_indentation (1)"><path d="M751.76,117 C748.46,117.92 745.18,118.82 742,119.69 C675.03,137.98 633.34,104.67 591,159.69 C581.15,172.49 583.93,181.51 591,196.03 C599.18,212.82 609.8879,222.8777 624.6779,232.4177 " fill="none" id="types_basic (7)-to-style_indentation (1)" style="stroke:#181818;stroke-width:1.0;"/><polygon fill="#181818" points="629.72,235.67,624.3251,227.4302,625.5183,232.9598,619.9887,234.1529,629.72,235.67" style="stroke:#181818;stroke-width:1.0;"/></g><!--link types_basic (7) to types_modifiers (1)--><g id="link_types_basic (7)_types_modifiers (1)"><path d="M770.06,120.14 C747.9,131.99 724.1003,144.7094 701.9903,156.5394 " fill="none" id="types_basic (7)-to-types_modifiers (1)" style="stroke:#181818;stroke-width:1.0;"/><polygon fill="#181818" points="696.7,159.37,706.5226,158.651,701.1086,157.0112,702.7484,151.5972,696.7,159.37" style="stroke:#181818;stroke-width:1.0;"/></g><!--link types_basic (7) to types_casting (2)--><g id="link_types_basic (7)_types_casting (2)"><path d="M803,120.14 C803,131.99 803,141.54 803,153.37 " fill="none" id="types_basic (7)-to-types_casting (2)" style="stroke:#181818;stroke-width:1.0;"/><polygon fill="#181818" points="803,159.37,807,150.37,803,154.37,799,150.37,803,159.37" style="stroke:#181818;stroke-width:1.0;"/></g><!--link types_basic (7) to types_conversion (0)--><g id="link_types_basic (7)_types_conversion (0)"><path d="M836.89,120.14 C859.68,131.99 884.2872,144.7709 907.0272,156.6009 " fill="none" id="types_basic (7)-to-types_conversion (0)" style="stroke:#181818;stroke-width:1.0;"/><polygon fill="#181818" points="912.35,159.37,906.2118,151.6679,907.9143,157.0624,902.5197,158.7649,912.35,159.37" style="stroke:#181818;stroke-width:1.0;"/></g><!--link types_basic (7) to types_operations (3)--><g id="link_types_basic (7)_types_operations (3)"><path d="M854.39,116.88 C857.98,117.84 861.54,118.79 865,119.69 C921.15,134.32 979.334,148.4967 1026.204,159.6867 " fill="none" id="types_basic (7)-to-types_operations (3)" style="stroke:#181818;stroke-width:1.0;"/><polygon fill="#181818" points="1032.04,161.08,1024.2149,155.0994,1027.1767,159.9189,1022.3572,162.8807,1032.04,161.08" style="stroke:#181818;stroke-width:1.0;"/></g><!--link tools_tko (1) to types_operations (3)--><g id="link_tools_tko (1)_types_operations (3)"><path d="M960.89,120.14 C989.64,131.94 1021.8,145.1502 1050.55,156.9602 " fill="none" id="tools_tko (1)-to-types_operations (3)" style="stroke:#181818;stroke-width:1.0;"/><polygon fill="#181818" points="1056.1,159.24,1049.2949,152.1203,1051.475,157.3401,1046.2551,159.5202,1056.1,159.24" style="stroke:#181818;stroke-width:1.0;"/></g><!--link types_operations (3) to tools_math.h (1)--><g id="link_types_operations (3)_tools_math.h (1)"><path d="M1082.41,196.48 C1071.25,208.33 1060.7132,219.5218 1049.5832,231.3418 " fill="none" id="types_operations (3)-to-tools_math.h (1)" style="stroke:#181818;stroke-width:1.0;"/><polygon fill="#181818" points="1045.47,235.71,1054.552,231.8998,1048.8977,232.0698,1048.7277,226.4155,1045.47,235.71" style="stroke:#181818;stroke-width:1.0;"/></g><!--link types_operations (3) to io_basic (6)--><g id="link_types_operations (3)_io_basic (6)"><path d="M1109.9,196.48 C1117.23,208.33 1123.701,218.789 1131.021,230.609 " fill="none" id="types_operations (3)-to-io_basic (6)" style="stroke:#181818;stroke-width:1.0;"/><polygon fill="#181818" points="1134.18,235.71,1132.8422,225.9524,1131.5475,231.4591,1126.0408,230.1645,1134.18,235.71" style="stroke:#181818;stroke-width:1.0;"/></g><!--link string_novice (3) to io_string (0)--><g id="link_string_novice (3)_io_string (0)"><path d="M282,730.89 C282,742.74 282,752.3 282,764.12 " fill="none" id="string_novice (3)-to-io_string (0)" style="stroke:#181818;stroke-width:1.0;"/><polygon fill="#181818" points="282,770.12,286,761.12,282,765.12,278,761.12,282,770.12" style="stroke:#181818;stroke-width:1.0;"/></g><!--link repeat_novice (3) to io_error (0)--><g id="link_repeat_novice (3)_io_error (0)"><path d="M192.21,425.51 C160.99,437.79 125.2331,451.8524 94.8231,463.8224 " fill="none" id="repeat_novice (3)-to-io_error (0)" style="stroke:#181818;stroke-width:1.0;"/><polygon fill="#181818" points="89.24,466.02,99.0797,466.4456,93.8925,464.1887,96.1495,459.0016,89.24,466.02" style="stroke:#181818;stroke-width:1.0;"/></g><!--link repeat_novice (3) to tools_macros (0)--><g id="link_repeat_novice (3)_tools_macros (0)"><path d="M219.94,425.51 C208.46,437.36 197.5628,448.6087 186.1128,460.4387 " fill="none" id="repeat_novice (3)-to-tools_macros (0)" style="stroke:#181818;stroke-width:1.0;"/><polygon fill="#181818" points="181.94,464.75,191.0735,461.0649,185.4174,461.1572,185.325,455.5011,181.94,464.75" style="stroke:#181818;stroke-width:1.0;"/></g><!--link tools_basic (0) to tools_tko (1)--><g id="link_tools_basic (0)_tools_tko (1)"><path d="M830.25,43.79 C848.59,55.64 867.612,67.9414 885.902,79.7714 " fill="none" id="tools_basic (0)-to-tools_tko (1)" style="stroke:#181818;stroke-width:1.0;"/><polygon fill="#181818" points="890.94,83.03,885.5554,74.7834,886.7417,80.3145,881.2106,81.5008,890.94,83.03" style="stroke:#181818;stroke-width:1.0;"/></g><!--link io_basic (6) to select_novice (10)--><g id="link_io_basic (6)_select_novice (10)"><path d="M1103.72,269.85 C1100.45,270.78 1097.18,271.64 1094,272.38 C963.8,302.65 813.4101,317.9418 729.7501,324.7718 " fill="none" id="io_basic (6)-to-select_novice (10)" style="stroke:#181818;stroke-width:1.0;"/><polygon fill="#181818" points="723.77,325.26,733.0656,328.5144,728.7534,324.8532,732.4147,320.5409,723.77,325.26" style="stroke:#181818;stroke-width:1.0;"/></g><!--link style_guide (1) to select_novice (10)--><g id="link_style_guide (1)_select_novice (10)"><path d="M560.23,272.82 C581.91,284.67 605.1059,297.3509 626.7359,309.1809 " fill="none" id="style_guide (1)-to-select_novice (10)" style="stroke:#181818;stroke-width:1.0;"/><polygon fill="#181818" points="632,312.06,626.0232,304.232,627.6132,309.6608,622.1844,311.2508,632,312.06" style="stroke:#181818;stroke-width:1.0;"/></g><!--link style_indentation (1) to select_novice (10)--><g id="link_style_indentation (1)_select_novice (10)"><path d="M664,272.82 C664,284.67 664,294.23 664,306.06 " fill="none" id="style_indentation (1)-to-select_novice (10)" style="stroke:#181818;stroke-width:1.0;"/><polygon fill="#181818" points="664,312.06,668,303.06,664,307.06,660,303.06,664,312.06" style="stroke:#181818;stroke-width:1.0;"/></g><!--link tools_basic (0) to tools_debug (1)--><g id="link_tools_basic (0)_tools_debug (1)"><path d="M852.84,42.21 C890.64,54.38 936.7782,69.2327 975.3282,81.6327 " fill="none" id="tools_basic (0)-to-tools_debug (1)" style="stroke:#181818;stroke-width:1.0;"/><polygon fill="#181818" points="981.04,83.47,973.6972,76.9063,976.2802,81.939,971.2475,84.522,981.04,83.47" style="stroke:#181818;stroke-width:1.0;"/></g><!--link functions_novice (4) to select_advanced (4)--><g id="link_functions_novice (4)_select_advanced (4)"><path d="M575.25,425.51 C559.95,437.36 544.6031,449.2454 529.3331,461.0754 " fill="none" id="functions_novice (4)-to-select_advanced (4)" style="stroke:#181818;stroke-width:1.0;"/><polygon fill="#181818" points="524.59,464.75,534.1544,462.4002,528.5426,461.6878,529.255,456.076,524.59,464.75" style="stroke:#181818;stroke-width:1.0;"/></g><!--link select_advanced (4) to select_expert (6)--><g id="link_select_advanced (4)_select_expert (6)"><path d="M492.76,501.86 C486.54,513.71 481.1671,523.9566 474.9671,535.7766 " fill="none" id="select_advanced (4)-to-select_expert (6)" style="stroke:#181818;stroke-width:1.0;"/><polygon fill="#181818" points="472.18,541.09,479.9029,534.9779,474.5026,536.6622,472.8183,531.2618,472.18,541.09" style="stroke:#181818;stroke-width:1.0;"/></g><!--link select_novice (10) to functions_novice (4)--><g id="link_select_novice (10)_functions_novice (4)"><path d="M648.36,349.17 C637.84,361.02 628.0148,372.0943 617.5148,383.9143 " fill="none" id="select_novice (10)-to-functions_novice (4)" style="stroke:#181818;stroke-width:1.0;"/><polygon fill="#181818" points="613.53,388.4,622.4976,384.3279,616.8506,384.6619,616.5167,379.0149,613.53,388.4" style="stroke:#181818;stroke-width:1.0;"/></g><!--link functions_novice (4) to function_advanced (4)--><g id="link_functions_novice (4)_function_advanced (4)"><path d="M622.17,425.51 C638.43,437.36 654.9324,449.3844 671.1524,461.2144 " fill="none" id="functions_novice (4)-to-function_advanced (4)" style="stroke:#181818;stroke-width:1.0;"/><polygon fill="#181818" points="676,464.75,671.0856,456.2148,671.9603,461.8037,666.3715,462.6784,676,464.75" style="stroke:#181818;stroke-width:1.0;"/></g><!--link select_novice (10) to repeat_novice (3)--><g id="link_select_novice (10)_repeat_novice (3)"><path d="M604.18,341.96 C522.35,356.21 382.371,380.5805 301.301,394.7005 " fill="none" id="select_novice (10)-to-repeat_novice (3)" style="stroke:#181818;stroke-width:1.0;"/><polygon fill="#181818" points="295.39,395.73,304.9429,398.1264,300.3158,394.8721,303.5702,390.245,295.39,395.73" style="stroke:#181818;stroke-width:1.0;"/></g><!--link repeat_novice (3) to repeat_advanced (4)--><g id="link_repeat_novice (3)_repeat_advanced (4)"><path d="M253.83,425.51 C265.14,437.36 275.8576,448.5795 287.1476,460.4095 " fill="none" id="repeat_novice (3)-to-repeat_advanced (4)" style="stroke:#181818;stroke-width:1.0;"/><polygon fill="#181818" points="291.29,464.75,287.9701,455.4776,287.838,461.1329,282.1827,461.0008,291.29,464.75" style="stroke:#181818;stroke-width:1.0;"/></g><!--link select_novice (10) to tools_rand (3)--><g id="link_select_novice (10)_tools_rand (3)"><path d="M679.88,349.17 C690.56,361.02 700.5616,372.1244 711.2216,383.9444 " fill="none" id="select_novice (10)-to-tools_rand (3)" style="stroke:#181818;stroke-width:1.0;"/><polygon fill="#181818" points="715.24,388.4,712.1829,379.0376,711.8914,384.687,706.242,384.3955,715.24,388.4" style="stroke:#181818;stroke-width:1.0;"/></g><!--link tools_rand (3) to game_zero_cem (0)--><g id="link_tools_rand (3)_game_zero_cem (0)"><path d="M760.62,425.51 C780.55,437.36 801.5539,449.8517 821.4339,461.6817 " fill="none" id="tools_rand (3)-to-game_zero_cem (0)" style="stroke:#181818;stroke-width:1.0;"/><polygon fill="#181818" points="826.59,464.75,820.9013,456.7102,822.2932,462.1931,816.8103,463.585,826.59,464.75" style="stroke:#181818;stroke-width:1.0;"/></g><!--link functions_novice (4) to game_zero_cem (0)--><g id="link_functions_novice (4)_game_zero_cem (0)"><path d="M659.14,425.51 C700.12,437.32 748.1046,451.1485 789.0846,462.9585 " fill="none" id="functions_novice (4)-to-game_zero_cem (0)" style="stroke:#181818;stroke-width:1.0;"/><polygon fill="#181818" points="794.85,464.62,787.3096,458.2842,790.0455,463.2354,785.0943,465.9713,794.85,464.62" style="stroke:#181818;stroke-width:1.0;"/></g><!--link types_conversion (0) to io_argc_argv (1)--><g id="link_types_conversion (0)_io_argc_argv (1)"><path d="M935.1,196.48 C927.77,208.33 921.299,218.789 913.979,230.609 " fill="none" id="types_conversion (0)-to-io_argc_argv (1)" style="stroke:#181818;stroke-width:1.0;"/><polygon fill="#181818" points="910.82,235.71,918.9592,230.1645,913.4525,231.4591,912.1578,225.9524,910.82,235.71" style="stroke:#181818;stroke-width:1.0;"/></g><!--link repeat_advanced (4) to array_novice (3)--><g id="link_repeat_advanced (4)_array_novice (3)"><path d="M313.69,501.86 C317.51,513.71 320.6993,523.5593 324.5093,535.3793 " fill="none" id="repeat_advanced (4)-to-array_novice (3)" style="stroke:#181818;stroke-width:1.0;"/><polygon fill="#181818" points="326.35,541.09,327.396,531.2968,324.816,536.3311,319.7818,533.7512,326.35,541.09" style="stroke:#181818;stroke-width:1.0;"/></g><!--link functions_novice (4) to array_novice (3)--><g id="link_functions_novice (4)_array_novice (3)"><path d="M532.84,422.19 C499.59,431.3 459.42,445.18 427,465.07 C409.34,475.89 374.0017,512.8931 351.8917,536.8231 " fill="none" id="functions_novice (4)-to-array_novice (3)" style="stroke:#181818;stroke-width:1.0;"/><polygon fill="#181818" points="347.82,541.23,356.8656,537.3341,351.2131,537.5576,350.9897,531.9051,347.82,541.23" style="stroke:#181818;stroke-width:1.0;"/></g><!--link array_novice (3) to array_advanced (1)--><g id="link_array_novice (3)_array_advanced (1)"><path d="M320.15,578.2 C312.18,590.05 305.0715,600.6333 297.1115,612.4533 " fill="none" id="array_novice (3)-to-array_advanced (1)" style="stroke:#181818;stroke-width:1.0;"/><polygon fill="#181818" points="293.76,617.43,302.105,612.1993,296.5529,613.2827,295.4694,607.7306,293.76,617.43" style="stroke:#181818;stroke-width:1.0;"/></g><!--link array_advanced (1) to array_expert (5)--><g id="link_array_advanced (1)_array_expert (5)"><path d="M312.81,654.54 C333.53,666.4 355.5326,678.9696 376.2026,690.7996 " fill="none" id="array_advanced (1)-to-array_expert (5)" style="stroke:#181818;stroke-width:1.0;"/><polygon fill="#181818" points="381.41,693.78,375.5857,685.8378,377.0705,691.2964,371.6119,692.7811,381.41,693.78" style="stroke:#181818;stroke-width:1.0;"/></g><!--link array_advanced (1) to string_novice (3)--><g id="link_array_advanced (1)_string_novice (3)"><path d="M282,654.54 C282,666.4 282,675.95 282,687.78 " fill="none" id="array_advanced (1)-to-string_novice (3)" style="stroke:#181818;stroke-width:1.0;"/><polygon fill="#181818" points="282,693.78,286,684.78,282,688.78,278,684.78,282,693.78" style="stroke:#181818;stroke-width:1.0;"/></g><!--link string_novice (3) to string_advanced (0)--><g id="link_string_novice (3)_string_advanced (0)"><path d="M337.69,730.89 C375.02,742.7 418.2495,756.3702 455.5795,768.1802 " fill="none" id="string_novice (3)-to-string_advanced (0)" style="stroke:#181818;stroke-width:1.0;"/><polygon fill="#181818" points="461.3,769.99,453.9257,763.4616,456.5329,768.4818,451.5127,771.089,461.3,769.99" style="stroke:#181818;stroke-width:1.0;"/></g><!--link pointers_novice (1) to string_advanced (0)--><g id="link_pointers_novice (1)_string_advanced (0)"><path d="M720.95,577.96 C710.43,588.74 697.43,603.26 688,617.75 C658.02,663.84 675.49,691.19 637,730.44 C619.71,748.07 601.456,758.6605 579.606,767.6805 " fill="none" id="pointers_novice (1)-to-string_advanced (0)" style="stroke:#181818;stroke-width:1.0;"/><polygon fill="#181818" points="574.06,769.97,583.9053,770.2331,578.6817,768.0621,580.8527,762.8384,574.06,769.97" style="stroke:#181818;stroke-width:1.0;"/></g><!--link string_advanced (0) to string_expert (1)--><g id="link_string_advanced (0)_string_expert (1)"><path d="M517,807.23 C517,819.08 517,828.64 517,840.47 " fill="none" id="string_advanced (0)-to-string_expert (1)" style="stroke:#181818;stroke-width:1.0;"/><polygon fill="#181818" points="517,846.47,521,837.47,517,841.47,513,837.47,517,846.47" style="stroke:#181818;stroke-width:1.0;"/></g><!--link function_advanced (4) to pointers_novice (1)--><g id="link_function_advanced (4)_pointers_novice (1)"><path d="M709.24,501.86 C715.46,513.71 720.8329,523.9566 727.0329,535.7766 " fill="none" id="function_advanced (4)-to-pointers_novice (1)" style="stroke:#181818;stroke-width:1.0;"/><polygon fill="#181818" points="729.82,541.09,729.1817,531.2618,727.4974,536.6622,722.0971,534.9779,729.82,541.09" style="stroke:#181818;stroke-width:1.0;"/></g><!--link functions_novice (4) to structs_novice (2)--><g id="link_functions_novice (4)_structs_novice (2)"><path d="M598,425.47 C598,454.51 598,506.15 598,535.11 " fill="none" id="functions_novice (4)-to-structs_novice (2)" style="stroke:#181818;stroke-width:1.0;"/><polygon fill="#181818" points="598,541.11,602,532.11,598,536.11,594,532.11,598,541.11" style="stroke:#181818;stroke-width:1.0;"/></g><!--link array_novice (3) to matrix_novice (2)--><g id="link_array_novice (3)_matrix_novice (2)"><path d="M353.57,578.2 C368.07,590.05 382.4733,601.8142 396.9433,613.6342 " fill="none" id="array_novice (3)-to-matrix_novice (2)" style="stroke:#181818;stroke-width:1.0;"/><polygon fill="#181818" points="401.59,617.43,397.1504,608.6385,397.7177,614.2669,392.0894,614.8342,401.59,617.43" style="stroke:#181818;stroke-width:1.0;"/></g><!--link matrix_novice (2) to matrix_advanced (2)--><g id="link_matrix_novice (2)_matrix_advanced (2)"><path d="M455.7,654.54 C477.7,666.4 501.2983,679.1034 523.2483,690.9334 " fill="none" id="matrix_novice (2)-to-matrix_advanced (2)" style="stroke:#181818;stroke-width:1.0;"/><polygon fill="#181818" points="528.53,693.78,522.5051,685.9889,524.1285,691.4078,518.7096,693.0313,528.53,693.78" style="stroke:#181818;stroke-width:1.0;"/></g><!--link structs_advanced (2) to matrix_advanced (2)--><g id="link_structs_advanced (2)_matrix_advanced (2)"><path d="M566.34,654.54 C565.23,666.4 564.3205,675.9762 563.2105,687.8062 " fill="none" id="structs_advanced (2)-to-matrix_advanced (2)" style="stroke:#181818;stroke-width:1.0;"/><polygon fill="#181818" points="562.65,693.78,567.4733,685.193,563.1171,688.8019,559.5083,684.4457,562.65,693.78" style="stroke:#181818;stroke-width:1.0;"/></g><!--link pointers_novice (1) to structs_advanced (2)--><g id="link_pointers_novice (1)_structs_advanced (2)"><path d="M698.48,578.2 C671.32,590.01 641.1931,603.1091 614.0331,614.9091 " fill="none" id="pointers_novice (1)-to-structs_advanced (2)" style="stroke:#181818;stroke-width:1.0;"/><polygon fill="#181818" points="608.53,617.3,618.3785,617.3824,613.1159,615.3076,615.1907,610.045,608.53,617.3" style="stroke:#181818;stroke-width:1.0;"/></g><!--link array_novice (3) to structs_advanced (2)--><g id="link_array_novice (3)_structs_advanced (2)"><path d="M386.74,577.82 C424.32,589.66 468.3374,603.5268 506.1974,615.4568 " fill="none" id="array_novice (3)-to-structs_advanced (2)" style="stroke:#181818;stroke-width:1.0;"/><polygon fill="#181818" points="511.92,617.26,504.5382,610.7401,507.1512,615.7573,502.1339,618.3702,511.92,617.26" style="stroke:#181818;stroke-width:1.0;"/></g><!--link structs_novice (2) to structs_advanced (2)--><g id="link_structs_novice (2)_structs_advanced (2)"><path d="M590.89,578.2 C586.11,590.05 582.0754,600.046 577.3054,611.866 " fill="none" id="structs_novice (2)-to-structs_advanced (2)" style="stroke:#181818;stroke-width:1.0;"/><polygon fill="#181818" points="575.06,617.43,582.1374,610.5809,576.9311,612.7933,574.7187,607.5871,575.06,617.43" style="stroke:#181818;stroke-width:1.0;"/></g><!--link select_novice (10) to enum (2)--><g id="link_select_novice (10)_enum (2)"><path d="M704.29,349.17 C732.96,361.71 765.6233,375.9846 793.1133,388.0146 " fill="none" id="select_novice (10)-to-enum (2)" style="stroke:#181818;stroke-width:1.0;"/><polygon fill="#181818" points="798.61,390.42,791.9686,383.1474,794.0294,388.4155,788.7613,390.4763,798.61,390.42" style="stroke:#181818;stroke-width:1.0;"/></g><!--link pointers_novice (1) to pointers_advanced (2)--><g id="link_pointers_novice (1)_pointers_advanced (2)"><path d="M746.11,578.2 C750.89,590.05 754.9246,600.046 759.6946,611.866 " fill="none" id="pointers_novice (1)-to-pointers_advanced (2)" style="stroke:#181818;stroke-width:1.0;"/><polygon fill="#181818" points="761.94,617.43,762.2813,607.5871,760.0689,612.7933,754.8626,610.5809,761.94,617.43" style="stroke:#181818;stroke-width:1.0;"/></g><!--link pointers_novice (1) to memory_novice (0)--><g id="link_pointers_novice (1)_memory_novice (0)"><path d="M785.21,578.2 C816.18,590.01 851.2032,603.3637 882.1732,615.1637 " fill="none" id="pointers_novice (1)-to-memory_novice (0)" style="stroke:#181818;stroke-width:1.0;"/><polygon fill="#181818" points="887.78,617.3,880.794,610.3577,883.1077,615.5198,877.9456,617.8335,887.78,617.3" style="stroke:#181818;stroke-width:1.0;"/></g><!--link memory_novice (0) to memory_advanced (2)--><g id="link_memory_novice (0)_memory_advanced (2)"><path d="M936.37,654.54 C937.96,666.4 939.2608,676.0035 940.8508,687.8335 " fill="none" id="memory_novice (0)-to-memory_advanced (2)" style="stroke:#181818;stroke-width:1.0;"/><polygon fill="#181818" points="941.65,693.78,944.4155,684.3274,940.984,688.8246,936.4868,685.393,941.65,693.78" style="stroke:#181818;stroke-width:1.0;"/></g><!--link pointers_advanced (2) to files_novice (1)--><g id="link_pointers_advanced (2)_files_novice (1)"><path d="M766.63,654.54 C765.04,666.4 763.7392,676.0035 762.1492,687.8335 " fill="none" id="pointers_advanced (2)-to-files_novice (1)" style="stroke:#181818;stroke-width:1.0;"/><polygon fill="#181818" points="761.35,693.78,766.5132,685.393,762.016,688.8246,758.5845,684.3274,761.35,693.78" style="stroke:#181818;stroke-width:1.0;"/></g><!--link files_novice (1) to files_advanced (1)--><g id="link_files_novice (1)_files_advanced (1)"><path d="M759,730.89 C759,742.74 759,752.3 759,764.12 " fill="none" id="files_novice (1)-to-files_advanced (1)" style="stroke:#181818;stroke-width:1.0;"/><polygon fill="#181818" points="759,770.12,763,761.12,759,765.12,755,761.12,759,770.12" style="stroke:#181818;stroke-width:1.0;"/></g><!--link files_novice (1) to end--><g id="link_files_novice (1)_end"><path d="M810.25,712.27 C816.82,712.27 817.38,712.27 823.95,712.27 " fill="none" id="files_novice (1)-to-end" style="stroke:#181818;stroke-width:1.0;"/><polygon fill="#181818" points="829.95,712.27,820.95,708.27,824.95,712.27,820.95,716.27,829.95,712.27" style="stroke:#181818;stroke-width:1.0;"/></g><!--SRC=[dPRHRjiW58RlynJ8lKacjKsoTPDsqHUfAelY4mV5W8LnrEpfvnbim0D3UfCB_tpc_Fyvu1HAYAOhFt172ThkTmLwQ2W3zFZuYegtjxDIxU_dvrg8ke4d8XYQrv_Hzh1xVoyGUcWflsmANodqO_qYBJM2uAQa5Q3jST8TB520rXY-m8as0_Oz4xkrC6k_9cqJUQwPJjqQAEj-BEzm3qDv1LnXHGNF9hN6H4LF56Jd19R34Tmfoci_nZGb-7NOQonpVmyeMf2ZlSvqmFWREw0kmd6TWyL5l-dg_7GE1BD2KZ7v-6dtwvGSiYgvk5828KGly3AHq09MAmn8AUGToEI9ID7vwIUdtmzu4p9ffX4Q8BQ2mzxD83JScLXulfDmsba57ttjTVZKSpAsTdxZZ-1-kBfYJg0okeRZciV2vp10ogJdaV-xqE1ALHabJmkMXPc8rxUEJLLgtepwbIrrRoJcLU2qBnvheiOCoZyWHKc0UTET32UEhjnPyod4iYR_VgxU4CMzQn1BYM-XI9FLHic8u5AsdCEI2qWkEGtiYxMOu69NNkeoDAfzhzEFLb2kXbROkSbduvh7JaO35qAyc_6wSguJ9NkYh7pCREdmSPBqCuJ558-pPevUI6Cj2p4FpkXExEK9gwjaDBySTlqQ0jupRttAugn_AI06J4WRWZEyCSNZrlSCgERRCFoh3KzkM72fnUatvoN6lQBjjzrV]--></g></svg>